<?xml version="1.0" encoding="UTF-8" ?>
<!DOCTYPE svg PUBLIC "-//W3C//DTD SVG 1.1//EN" "http://www.w3.org/Graphics/SVG/1.1/DTD/svg11.dtd">
<svg width="1757pt" height="412pt" viewBox="0 0 1757 412" version="1.1" xmlns="http://www.w3.org/2000/svg">
<g id="#003399ff">
<path fill="#003399" opacity="1.00" d=" M 362.39 12.41 C 397.35 -3.44 439.33 -2.87 473.81 14.02 C 459.52 26.35 445.13 38.58 430.85 50.92 C 415.72 48.33 399.85 49.78 385.59 55.55 C 367.18 62.87 351.54 76.96 342.45 94.58 C 333.62 111.39 330.78 131.31 334.78 149.89 C 337.04 160.73 341.57 171.05 347.80 180.19 C 340.51 196.50 333.11 212.76 325.76 229.04 C 303.83 208.36 289.17 180.05 285.40 150.11 C 281.84 123.02 286.89 94.84 299.82 70.75 C 313.47 45.11 335.84 24.23 362.39 12.41 Z" />
<path fill="#003399" opacity="1.00" d=" M 2.28 10.22 C 57.53 10.30 112.78 10.23 168.03 10.26 C 184.64 10.49 201.61 14.10 215.57 23.47 C 229.82 32.50 239.72 47.58 243.37 63.96 C 247.94 83.36 246.97 104.26 239.57 122.85 C 233.43 137.89 221.28 150.12 206.46 156.70 C 194.19 162.56 180.46 164.50 166.98 164.75 C 134.24 164.75 101.50 164.74 68.75 164.75 C 68.81 183.47 68.62 202.19 68.85 220.90 C 69.28 231.88 69.30 243.59 75.35 253.24 C 50.90 253.27 26.45 253.22 2.00 253.27 C 8.27 243.71 8.26 231.96 8.70 220.97 C 8.98 185.90 8.39 150.82 9.02 115.75 C 58.60 115.76 108.18 115.72 157.76 115.77 C 169.35 107.35 180.84 98.80 192.40 90.32 C 180.90 79.78 169.27 69.39 157.86 58.76 C 108.24 58.73 58.63 58.75 9.01 58.75 C 9.04 48.13 8.99 37.49 7.85 26.92 C 7.26 21.02 5.30 15.31 2.28 10.22 Z" />
<path fill="#003399" opacity="1.00" d=" M 577.87 10.26 C 602.32 10.23 626.78 10.29 651.23 10.23 C 648.38 15.11 646.24 20.46 645.64 26.12 C 644.67 34.69 644.43 43.34 644.50 51.97 C 644.50 81.32 644.49 110.68 644.51 140.04 C 644.00 165.37 644.35 190.72 644.25 216.07 C 644.84 228.63 644.03 242.15 650.94 253.27 C 626.46 253.22 601.99 253.25 577.51 253.26 C 581.21 247.54 583.08 240.83 583.49 234.07 C 585.14 212.76 583.64 191.37 584.49 170.03 C 584.51 141.02 584.49 112.00 584.50 82.99 C 584.26 64.96 585.16 46.88 583.62 28.89 C 583.16 22.34 581.27 15.89 577.87 10.26 Z" />
<path fill="#003399" opacity="1.00" d=" M 701.91 10.23 C 732.59 10.27 763.27 10.25 793.95 10.25 C 793.54 16.11 795.90 21.59 798.16 26.85 C 801.74 34.67 805.82 42.26 810.54 49.44 C 818.38 63.87 827.90 77.31 836.87 91.05 C 849.90 110.72 863.05 130.31 875.83 150.15 C 882.89 161.27 890.07 172.34 896.21 184.01 C 896.32 157.01 896.21 130.02 896.26 103.02 C 896.71 92.68 896.41 82.33 896.50 71.99 C 896.37 56.70 897.02 41.36 895.30 26.14 C 894.63 20.51 892.69 15.10 889.84 10.21 C 911.97 10.29 934.10 10.26 956.23 10.23 C 953.22 15.33 951.08 20.99 950.57 26.92 C 948.82 44.23 949.72 61.64 949.50 79.00 C 949.69 101.34 949.13 123.67 949.25 146.02 C 949.26 170.35 949.22 194.68 949.27 219.01 C 949.76 230.63 949.56 243.03 955.89 253.28 C 926.40 253.24 896.90 253.20 867.41 253.30 C 866.39 239.08 861.21 225.38 853.78 213.30 C 847.71 201.10 839.99 189.84 832.63 178.41 C 821.84 161.86 811.14 145.26 800.30 128.74 C 787.51 109.32 774.35 90.13 761.78 70.57 C 761.35 113.71 761.53 156.86 761.51 200.01 C 760.99 211.00 761.32 222.02 762.08 232.99 C 762.49 240.09 764.27 247.16 767.99 253.27 C 745.86 253.24 723.72 253.24 701.59 253.27 C 704.80 248.06 706.77 242.15 707.32 236.05 C 709.20 216.08 707.63 196.00 708.50 175.98 C 708.50 135.63 708.50 95.27 708.50 54.91 C 708.56 45.58 708.34 36.24 707.43 26.95 C 706.86 21.05 704.88 15.35 701.91 10.23 Z" />
<path fill="#003399" opacity="1.00" d=" M 1000.76 10.25 C 1075.58 10.25 1150.41 10.25 1225.24 10.25 C 1225.20 26.31 1225.43 42.37 1224.99 58.42 C 1219.85 54.59 1213.36 53.27 1207.07 53.09 C 1185.56 52.16 1164.03 52.60 1142.50 52.50 C 1142.50 107.67 1142.49 162.84 1142.51 218.01 C 1143.05 229.92 1142.56 242.75 1149.16 253.26 C 1124.69 253.24 1100.22 253.24 1075.76 253.26 C 1078.88 248.04 1080.69 242.11 1081.35 236.08 C 1083.22 219.46 1082.27 202.72 1082.50 186.04 C 1083.18 141.54 1082.31 97.01 1083.00 52.50 C 1064.33 52.56 1045.65 52.32 1026.98 52.76 C 1017.97 53.11 1008.00 52.58 1000.48 58.47 C 1000.46 42.39 1000.51 26.32 1000.76 10.25 Z" />
<path fill="#003399" opacity="1.00" d=" M 1258.04 10.20 C 1326.11 10.33 1394.18 10.21 1462.24 10.25 C 1462.20 26.63 1462.25 43.00 1462.49 59.36 C 1453.03 53.66 1441.76 53.11 1431.02 52.78 C 1395.61 52.17 1360.17 52.65 1324.75 52.51 C 1324.74 70.83 1324.75 89.16 1324.75 107.49 C 1358.21 107.57 1391.69 107.39 1425.15 107.57 C 1436.53 114.78 1447.64 122.53 1458.88 130.01 C 1447.63 136.60 1436.53 143.49 1425.20 149.89 C 1391.64 150.15 1358.07 149.93 1324.50 150.00 C 1324.50 170.08 1324.49 190.17 1324.51 210.25 C 1352.00 210.26 1379.50 210.25 1407.00 210.25 C 1420.37 210.19 1433.81 210.67 1447.10 208.85 C 1452.38 208.13 1457.44 206.23 1462.01 203.50 C 1461.99 220.09 1462.01 236.67 1462.00 253.25 C 1393.90 253.26 1325.80 253.24 1257.70 253.25 C 1264.95 241.89 1263.86 227.92 1264.49 215.04 C 1264.52 193.05 1264.49 171.06 1264.50 149.06 C 1264.38 114.35 1265.05 79.65 1264.67 44.94 C 1264.15 33.17 1264.53 20.57 1258.04 10.20 Z" />
<path fill="#003399" opacity="1.00" d=" M 1496.97 10.26 C 1542.98 10.24 1589.00 10.26 1635.01 10.25 C 1654.37 10.54 1674.32 8.62 1692.98 15.03 C 1708.80 20.35 1723.07 31.08 1730.95 45.98 C 1739.79 62.56 1741.84 82.10 1739.75 100.56 C 1737.77 117.15 1730.59 133.74 1717.66 144.69 C 1708.20 152.74 1696.24 157.39 1684.14 159.63 C 1696.49 177.71 1708.73 195.88 1721.02 214.01 C 1728.57 225.80 1736.22 237.77 1746.56 247.37 C 1749.05 249.66 1751.91 251.47 1754.78 253.25 C 1726.29 253.25 1697.80 253.23 1669.31 253.27 C 1671.93 245.89 1668.40 238.30 1665.34 231.66 C 1658.07 217.46 1648.26 204.80 1639.48 191.54 C 1633.30 182.54 1627.14 173.52 1620.98 164.51 C 1601.75 164.48 1582.51 164.53 1563.28 164.48 C 1563.30 175.30 1563.03 186.13 1563.49 196.95 C 1563.64 210.80 1562.95 224.72 1564.76 238.50 C 1565.44 243.74 1567.44 248.69 1570.06 253.25 C 1545.59 253.25 1521.13 253.25 1496.67 253.25 C 1503.47 242.09 1502.94 228.59 1503.49 216.03 C 1503.52 182.60 1503.47 149.17 1503.51 115.75 C 1552.88 115.74 1602.24 115.77 1651.60 115.74 C 1663.09 107.31 1674.50 98.78 1686.05 90.44 C 1677.61 82.36 1668.81 74.67 1660.23 66.75 C 1657.15 64.17 1654.50 61.01 1651.15 58.82 C 1601.93 58.63 1552.70 58.83 1503.48 58.72 C 1503.66 48.44 1503.69 38.13 1502.67 27.89 C 1502.08 21.69 1500.20 15.60 1496.97 10.26 Z" />
<path fill="#003399" opacity="1.00" d=" M 504.32 34.45 C 520.28 48.66 532.76 66.78 540.21 86.83 C 554.54 124.70 550.07 169.10 528.31 203.28 C 509.25 233.85 477.18 255.98 441.75 262.68 C 415.34 267.84 387.45 264.63 362.84 253.74 C 376.03 240.77 389.37 227.95 402.68 215.11 C 420.12 218.24 438.51 215.32 454.27 207.25 C 469.18 199.62 481.71 187.41 489.69 172.69 C 499.23 155.21 502.18 134.24 497.74 114.82 C 495.80 105.78 492.07 97.23 487.42 89.26 C 493.09 71.01 498.66 52.71 504.32 34.45 Z" />
</g>
<g id="#339900ff">
<path fill="#339900" opacity="1.00" d=" M 383.88 111.94 C 421.99 79.15 459.95 46.18 498.13 13.46 C 482.55 59.77 467.06 106.12 451.48 152.43 C 450.55 154.75 450.38 157.65 448.19 159.22 C 410.49 191.42 372.77 223.62 335.09 255.87 C 350.53 209.64 365.85 163.37 381.23 117.13 C 381.89 115.30 382.19 113.15 383.88 111.94 M 411.45 117.64 C 404.59 119.90 399.63 126.77 399.70 134.00 C 399.33 143.26 407.67 151.82 416.97 151.55 C 427.09 152.02 435.99 142.11 434.44 132.09 C 433.56 121.41 421.47 113.78 411.45 117.64 Z" />
<path fill="#339900" opacity="1.00" d=" M 578.00 284.00 C 583.25 284.00 588.50 283.99 593.75 284.01 C 593.75 300.50 593.74 317.00 593.75 333.49 C 609.56 333.53 625.38 333.46 641.19 333.53 C 643.78 335.87 646.25 338.35 648.71 340.84 C 646.07 343.41 643.90 346.65 640.80 348.66 C 625.13 348.87 609.43 348.68 593.75 348.75 C 593.74 367.92 593.75 387.08 593.75 406.24 C 588.50 406.25 583.25 406.25 578.00 406.25 C 577.99 365.50 578.00 324.75 578.00 284.00 Z" />
<path fill="#339900" opacity="1.00" d=" M 654.75 284.00 C 660.08 284.00 665.42 283.99 670.75 284.01 C 670.74 324.75 670.75 365.50 670.75 406.24 C 665.41 406.25 660.08 406.25 654.76 406.24 C 654.74 365.50 654.75 324.75 654.75 284.00 Z" />
<path fill="#339900" opacity="1.00" d=" M 812.75 284.00 C 841.33 284.00 869.92 284.00 898.50 284.00 C 898.50 288.91 898.48 293.81 898.52 298.72 C 875.26 298.79 852.01 298.72 828.75 298.75 C 828.74 311.25 828.74 323.75 828.75 336.25 C 846.44 336.25 864.13 336.27 881.82 336.23 C 884.19 338.55 886.53 340.90 888.87 343.26 C 886.55 345.56 884.23 347.86 882.00 350.23 C 864.25 350.27 846.50 350.24 828.75 350.25 C 828.74 364.00 828.75 377.75 828.75 391.49 C 852.92 391.52 877.08 391.48 901.25 391.51 C 901.24 396.42 901.25 401.33 901.24 406.24 C 871.75 406.25 842.25 406.25 812.76 406.24 C 812.74 365.50 812.75 324.75 812.75 284.00 Z" />
<path fill="#339900" opacity="1.00" d=" M 1060.39 284.04 C 1066.01 283.94 1071.64 284.07 1077.27 283.95 C 1093.62 324.65 1109.65 365.48 1125.89 406.23 C 1119.87 406.27 1113.85 406.24 1107.84 406.25 C 1094.73 369.95 1081.77 333.60 1068.68 297.30 C 1062.48 316.46 1056.13 335.58 1049.98 354.76 C 1057.67 354.74 1065.35 354.75 1073.04 354.75 C 1074.38 359.54 1075.59 364.37 1076.94 369.17 C 1066.28 369.35 1055.61 369.21 1044.95 369.24 C 1040.54 381.57 1036.26 393.94 1031.87 406.27 C 1026.28 406.23 1020.70 406.27 1015.12 406.23 C 1030.18 365.49 1045.37 324.80 1060.39 284.04 Z" />
<path fill="#339900" opacity="1.00" d=" M 1254.50 284.00 C 1259.83 284.00 1265.16 284.00 1270.50 284.00 C 1270.53 315.56 1270.43 347.12 1270.55 378.67 C 1265.20 378.83 1259.85 378.71 1254.51 378.76 C 1254.48 347.17 1254.50 315.59 1254.50 284.00 Z" />
<path fill="#339900" opacity="1.00" d=" M 1430.00 284.00 C 1461.33 284.00 1492.67 284.00 1524.00 284.00 C 1523.99 288.74 1524.00 293.47 1524.00 298.21 C 1512.98 298.71 1501.96 298.43 1490.94 298.50 C 1470.62 298.38 1450.32 298.93 1430.01 298.75 C 1429.98 293.83 1429.99 288.92 1430.00 284.00 Z" />
<path fill="#339900" opacity="1.00" d=" M 1651.25 284.01 C 1656.49 283.99 1661.74 284.00 1667.00 284.00 C 1667.00 300.50 1666.99 317.00 1667.00 333.50 C 1682.07 333.53 1697.13 333.44 1712.20 333.54 C 1714.12 336.23 1717.36 338.19 1718.80 341.02 C 1716.60 343.66 1714.43 346.44 1711.83 348.68 C 1696.89 348.86 1681.94 348.69 1667.00 348.75 C 1666.99 367.92 1667.01 387.08 1667.00 406.25 C 1661.74 406.25 1656.49 406.26 1651.25 406.24 C 1651.25 365.50 1651.26 324.75 1651.25 284.01 Z" />
<path fill="#339900" opacity="1.00" d=" M 1728.00 284.00 C 1733.33 284.00 1738.66 284.00 1744.00 284.00 C 1744.00 324.75 1744.00 365.50 1744.00 406.25 C 1738.66 406.25 1733.33 406.25 1728.00 406.25 C 1727.99 365.50 1728.00 324.75 1728.00 284.00 Z" />
<path fill="#339900" opacity="1.00" d=" M 1468.76 308.76 C 1473.50 308.74 1478.24 308.75 1483.00 308.75 C 1483.00 341.25 1483.00 373.75 1483.00 406.25 C 1478.24 406.25 1473.50 406.25 1468.76 406.25 C 1468.74 373.75 1468.75 341.25 1468.76 308.76 Z" />
<path fill="#339900" opacity="1.00" d=" M 1254.50 391.50 C 1279.25 391.50 1304.00 391.49 1328.76 391.51 C 1328.69 396.44 1328.86 401.38 1328.64 406.31 C 1303.93 406.16 1279.22 406.30 1254.51 406.25 C 1254.49 401.33 1254.49 396.42 1254.50 391.50 Z" />
</g>
</svg>
