<?xml version="1.0" encoding="UTF-8" ?>
<!DOCTYPE svg PUBLIC "-//W3C//DTD SVG 1.1//EN" "http://www.w3.org/Graphics/SVG/1.1/DTD/svg11.dtd">
<svg width="234pt" height="49pt" viewBox="0 0 234 49" version="1.1" xmlns="http://www.w3.org/2000/svg">
<g id="#003399ff">
<path fill="#003399" opacity="1.00" d=" M 47.39 0.00 L 52.22 0.00 C 53.68 0.47 55.14 0.95 56.59 1.46 C 55.02 2.87 53.44 4.27 51.84 5.65 C 48.37 5.89 44.46 6.30 42.16 9.26 C 39.44 12.00 39.31 16.14 40.50 19.61 C 41.67 22.36 39.83 24.96 38.79 27.40 C 35.57 23.74 33.18 19.03 33.97 14.02 C 34.54 6.92 40.58 1.32 47.39 0.00 Z" />
<path fill="#003399" opacity="1.00" d=" M 0.45 1.07 C 7.92 1.55 15.46 0.66 22.90 1.55 C 28.05 2.53 30.32 8.44 28.96 13.11 C 28.33 16.90 24.53 19.42 20.85 19.49 C 16.63 19.70 12.40 19.53 8.18 19.50 C 8.07 23.03 8.09 26.58 8.50 30.10 C 5.81 30.09 3.12 30.10 0.43 30.13 C 1.09 24.68 0.73 19.19 0.82 13.72 C 6.78 13.69 12.75 13.73 18.71 13.70 C 20.09 12.70 21.49 11.73 22.89 10.76 C 21.10 9.32 19.65 6.81 17.05 6.93 C 11.68 6.80 6.30 6.97 0.93 6.89 C 0.80 4.95 0.63 3.01 0.45 1.07 Z" />
<path fill="#003399" opacity="1.00" d=" M 69.33 1.14 C 72.04 1.20 74.75 1.20 77.47 1.19 C 76.81 10.80 76.98 20.49 77.36 30.11 C 74.70 30.09 72.04 30.09 69.37 30.12 C 69.96 20.49 70.15 10.75 69.33 1.14 Z" />
<path fill="#003399" opacity="1.00" d=" M 84.24 1.14 C 87.68 1.20 91.13 1.19 94.57 1.19 C 97.83 8.38 102.71 14.67 107.10 21.18 C 107.02 14.54 107.81 7.79 106.58 1.21 C 109.02 1.20 111.46 1.18 113.90 1.14 C 113.36 10.77 113.31 20.46 113.86 30.10 C 110.54 30.10 107.22 30.10 103.90 30.06 C 101.32 22.13 95.71 15.66 91.16 8.80 C 91.18 15.90 90.85 23.02 91.41 30.11 C 89.02 30.10 86.63 30.09 84.25 30.09 C 84.91 20.47 84.99 10.75 84.24 1.14 Z" />
<path fill="#003399" opacity="1.00" d=" M 119.77 1.16 C 128.66 1.19 137.55 1.24 146.44 1.13 C 146.50 2.93 146.55 4.72 146.63 6.52 C 143.33 6.21 140.02 6.18 136.71 6.16 C 136.72 14.14 136.50 22.12 136.89 30.09 C 134.30 30.09 131.70 30.09 129.11 30.10 C 129.73 22.12 129.44 14.11 129.41 6.11 C 126.14 6.19 122.87 6.23 119.60 6.49 C 119.65 4.71 119.70 2.94 119.77 1.16 Z" />
<path fill="#003399" opacity="1.00" d=" M 151.04 1.16 C 158.98 1.22 166.91 1.18 174.84 1.19 C 174.87 3.02 174.90 4.85 174.95 6.68 C 169.48 5.89 163.95 6.27 158.45 6.24 C 158.46 8.39 158.46 10.53 158.45 12.67 C 163.84 13.19 170.51 10.88 174.49 15.71 C 169.71 18.93 163.83 17.46 158.45 17.70 C 158.44 20.07 158.42 22.45 158.40 24.82 C 163.92 24.84 169.46 25.06 174.96 24.53 C 174.89 26.36 174.84 28.19 174.79 30.02 C 166.80 30.18 158.80 30.05 150.80 30.10 C 151.60 20.49 151.25 10.80 151.04 1.16 Z" />
<path fill="#003399" opacity="1.00" d=" M 179.42 1.15 C 186.66 1.38 193.92 0.86 201.14 1.41 C 206.89 2.00 209.76 8.83 207.76 13.85 C 206.95 16.68 204.23 18.08 201.72 19.15 C 204.15 22.88 206.63 26.59 209.38 30.10 C 206.31 30.11 203.25 30.11 200.18 29.97 C 198.97 26.06 196.21 22.97 194.03 19.59 C 191.70 19.55 189.37 19.54 187.03 19.55 C 187.06 23.08 187.10 26.61 187.47 30.13 C 184.80 30.10 182.14 30.09 179.48 30.11 C 180.09 24.67 179.77 19.18 179.83 13.72 C 185.24 13.65 190.65 13.80 196.06 13.69 C 198.36 13.82 199.94 11.82 201.78 10.77 C 200.02 9.33 198.57 6.86 196.02 6.94 C 190.69 6.71 185.35 7.15 180.03 6.79 C 179.73 4.92 179.64 3.03 179.42 1.15 Z" />
<path fill="#003399" opacity="1.00" d=" M 213.91 3.93 C 213.60 0.86 216.93 1.29 218.99 1.23 C 223.99 1.36 229.08 0.77 234.00 1.90 L 234.00 48.48 C 227.33 49.20 220.58 49.08 213.90 48.58 C 213.82 33.70 213.76 18.80 213.91 3.93 M 216.68 9.00 C 219.17 10.92 217.94 14.29 218.21 16.95 C 218.59 16.93 219.34 16.89 219.72 16.87 C 219.70 13.28 219.68 9.69 219.71 6.11 C 220.10 6.04 220.87 5.92 221.25 5.86 C 220.25 8.78 222.48 9.75 224.84 9.63 C 224.85 9.87 224.87 10.35 224.88 10.60 C 223.49 10.57 222.10 10.55 220.72 10.53 C 223.41 12.42 221.52 15.03 220.80 17.39 C 223.05 16.14 223.54 13.45 224.94 11.49 C 225.09 13.49 225.16 15.51 225.28 17.51 C 227.34 16.55 226.16 13.94 226.47 12.19 C 226.74 12.14 227.27 12.05 227.54 12.01 C 228.01 14.15 228.50 16.62 230.96 17.26 C 230.37 15.70 229.53 14.23 229.11 12.61 C 229.63 12.13 230.67 11.18 231.19 10.70 C 229.39 10.58 227.59 10.42 225.80 10.21 C 227.24 9.65 228.76 9.36 230.28 9.09 C 230.29 7.65 230.28 6.21 230.24 4.78 C 226.83 4.37 223.24 5.48 219.96 4.26 C 218.83 5.82 217.76 7.41 216.68 9.00 M 217.33 20.30 C 216.30 24.01 216.94 27.98 217.19 31.77 C 221.94 32.11 226.73 32.28 231.47 31.73 C 231.13 31.49 230.45 31.01 230.11 30.78 C 226.21 30.49 222.28 30.77 218.37 30.59 C 218.30 27.47 218.28 24.36 218.31 21.25 C 222.67 21.09 227.04 21.12 231.40 20.95 C 231.09 20.66 230.46 20.08 230.14 19.78 C 225.93 19.80 221.31 18.98 217.33 20.30 M 218.95 24.66 C 220.80 24.22 222.67 23.91 224.57 23.72 C 224.01 26.42 221.12 25.20 219.25 25.56 L 219.40 26.85 C 220.38 26.88 222.34 26.94 223.32 26.96 C 221.80 27.91 220.33 28.95 218.96 30.10 C 221.56 29.99 223.77 28.69 225.65 26.99 C 227.20 28.63 229.09 29.87 231.32 30.36 C 230.58 28.98 229.19 28.31 227.90 27.59 C 229.12 26.99 230.35 26.43 231.59 25.86 C 229.34 25.36 226.66 26.05 224.81 24.38 C 226.92 24.02 229.05 23.79 231.17 23.47 C 228.37 21.05 224.01 23.40 220.76 21.68 C 220.30 22.42 219.40 23.91 218.95 24.66 M 216.78 34.26 C 217.39 36.01 219.27 35.60 220.72 35.61 C 220.93 33.52 217.98 34.63 216.78 34.26 M 222.22 34.83 C 224.12 36.08 226.51 35.44 228.66 35.53 C 228.70 35.88 228.79 36.57 228.84 36.92 C 226.56 36.87 224.30 36.69 222.03 36.58 C 220.06 38.72 221.10 41.88 220.82 44.50 C 222.49 43.15 224.52 41.72 226.08 44.09 C 226.43 43.80 227.14 43.21 227.49 42.91 C 228.51 43.50 229.61 43.86 230.77 43.99 C 231.54 40.88 230.60 37.71 230.51 34.57 C 227.78 34.25 225.04 34.03 222.29 34.12 C 222.27 34.30 222.24 34.65 222.22 34.83 M 217.20 37.26 C 218.73 40.13 219.01 43.61 217.11 46.40 C 221.79 46.49 226.48 46.85 231.15 46.39 C 228.11 43.96 223.53 45.71 219.84 45.14 C 219.74 42.63 219.74 40.10 219.58 37.59 C 218.98 37.51 217.79 37.34 217.20 37.26 Z" />
<path fill="#003399" opacity="1.00" d=" M 58.43 10.17 C 58.72 7.97 59.73 5.96 60.63 3.97 C 64.92 8.81 67.23 15.94 64.20 22.04 C 60.93 29.96 50.96 33.63 43.19 30.24 C 44.73 28.67 46.33 27.16 47.97 25.70 C 52.35 26.04 57.02 24.00 58.81 19.81 C 60.52 16.74 59.34 13.27 58.43 10.17 Z" />
<path fill="#003399" opacity="1.00" d=" M 222.93 7.83 C 222.99 4.74 227.70 5.53 229.11 7.44 C 227.06 7.69 224.99 7.79 222.93 7.83 Z" />
<path fill="#003399" opacity="1.00" d=" M 222.54 38.29 C 223.74 37.39 224.44 37.62 224.64 38.99 C 223.44 39.88 222.74 39.64 222.54 38.29 Z" />
<path fill="#003399" opacity="1.00" d=" M 227.27 38.26 C 230.17 36.59 227.56 41.60 227.27 38.26 Z" />
</g>
<g id="#339900fe">
<path fill="#339900" opacity="1.00" d=" M 48.72 10.70 C 52.32 7.79 55.66 4.57 59.36 1.78 C 57.63 6.93 55.97 12.12 54.15 17.25 C 53.61 19.14 51.86 20.22 50.49 21.48 C 46.94 24.29 43.69 27.47 40.00 30.11 C 41.80 25.05 43.37 19.92 45.16 14.87 C 45.64 12.98 47.36 11.92 48.72 10.70 M 49.07 17.78 C 52.30 18.81 52.44 14.36 50.09 13.24 C 48.19 13.85 46.40 16.87 49.07 17.78 Z" />
<path fill="#339900" opacity="1.00" d=" M 78.38 33.39 C 78.81 33.52 79.68 33.78 80.11 33.91 C 80.15 38.80 80.16 43.69 80.12 48.58 C 79.66 48.42 78.75 48.10 78.30 47.94 C 78.10 43.09 78.19 38.23 78.38 33.39 Z" />
<path fill="#339900" opacity="1.00" d=" M 97.24 33.70 C 100.76 34.35 105.47 32.23 108.13 35.22 C 105.16 35.54 102.17 35.49 99.19 35.44 C 99.14 36.90 99.11 38.35 99.09 39.81 C 101.51 39.85 103.94 39.88 106.36 40.02 C 105.23 42.94 101.43 41.15 99.06 41.66 C 99.10 43.30 99.14 44.95 99.20 46.60 C 101.99 46.57 104.81 46.29 107.58 46.77 L 108.22 48.21 C 104.53 48.34 100.84 48.29 97.15 48.27 C 97.19 43.41 97.11 38.55 97.24 33.70 Z" />
<path fill="#339900" opacity="1.00" d=" M 170.35 35.20 C 170.95 34.14 171.84 33.65 173.00 33.75 C 176.22 33.70 179.50 33.47 182.69 34.10 C 182.55 34.40 182.29 35.00 182.15 35.30 C 178.23 35.61 174.27 35.52 170.35 35.20 Z" />
<path fill="#339900" opacity="1.00" d=" M 206.88 40.42 C 206.89 37.87 205.92 34.66 208.36 32.86 C 208.86 38.23 208.56 43.62 208.52 49.00 L 207.76 49.00 C 206.46 46.84 206.71 44.28 206.70 41.87 C 206.07 41.53 205.43 41.20 204.80 40.86 C 203.02 41.13 201.24 41.37 199.47 41.72 C 199.49 43.91 199.50 46.11 199.50 48.31 L 197.55 48.32 C 197.55 43.24 197.39 38.16 197.70 33.09 C 200.39 34.11 199.20 37.23 199.57 39.38 C 202.03 39.56 204.48 39.87 206.88 40.42 Z" />
<path fill="#339900" opacity="1.00" d=" M 68.95 33.47 C 72.19 33.52 70.62 37.47 71.13 39.58 C 73.27 40.01 76.98 38.33 77.62 41.32 C 75.44 41.42 73.27 41.45 71.09 41.44 C 71.04 43.71 71.00 45.97 70.83 48.23 C 70.37 48.23 69.47 48.22 69.02 48.21 C 68.78 43.30 68.98 38.39 68.95 33.47 Z" />
<path fill="#339900" opacity="1.00" d=" M 126.61 34.42 C 127.15 34.18 128.25 33.71 128.80 33.47 C 130.67 38.54 132.96 43.46 134.61 48.62 C 134.05 48.39 132.94 47.94 132.38 47.72 C 130.51 43.88 129.91 39.49 127.53 35.88 C 126.91 37.81 126.29 39.74 125.71 41.69 C 126.65 42.06 128.52 42.81 129.46 43.18 C 127.97 43.53 126.48 43.86 124.98 44.16 C 124.18 45.98 123.80 48.32 121.45 48.76 C 122.84 43.87 124.72 39.13 126.61 34.42 Z" />
<path fill="#339900" opacity="1.00" d=" M 150.09 33.47 C 150.52 33.62 151.39 33.90 151.83 34.05 C 152.06 37.66 151.87 41.28 151.90 44.90 C 151.46 44.91 150.56 44.94 150.11 44.95 C 150.09 41.13 150.07 37.30 150.09 33.47 Z" />
<path fill="#339900" opacity="1.00" d=" M 175.84 37.48 C 176.16 37.13 176.80 36.42 177.12 36.06 C 177.53 40.36 177.53 44.70 177.10 48.99 C 174.31 45.98 176.08 41.21 175.84 37.48 Z" />
<path fill="#339900" opacity="1.00" d=" M 149.49 48.16 C 151.12 45.03 155.60 46.92 158.46 46.66 C 158.74 47.03 159.29 47.77 159.57 48.14 C 156.21 48.35 152.84 48.35 149.49 48.16 Z" />
</g>
</svg>
