<?xml version="1.0" encoding="UTF-8" ?>
<!DOCTYPE svg PUBLIC "-//W3C//DTD SVG 1.1//EN" "http://www.w3.org/Graphics/SVG/1.1/DTD/svg11.dtd">
<svg width="320pt" height="320pt" viewBox="0 0 320 320" version="1.1" xmlns="http://www.w3.org/2000/svg">
<g id="#4e6fa4ff">
<path fill="#4e6fa4" opacity="1.00" d=" M 151.80 0.00 L 168.29 0.00 C 202.24 1.78 235.53 14.53 261.71 36.26 C 287.05 57.02 305.79 85.73 314.41 117.34 C 317.54 128.58 319.24 140.16 320.00 151.79 L 320.00 168.24 C 318.23 202.21 305.47 235.53 283.73 261.73 C 262.95 287.06 234.24 305.82 202.60 314.42 C 191.39 317.55 179.82 319.24 168.21 320.00 L 151.71 320.00 C 117.76 318.21 84.47 305.47 58.28 283.74 C 32.74 262.81 13.89 233.79 5.38 201.86 C 2.37 190.88 0.73 179.57 0.00 168.22 L 0.00 151.72 C 0.58 143.73 1.43 135.74 3.09 127.89 C 10.14 92.43 29.87 59.74 57.72 36.73 C 84.01 14.71 117.57 1.76 151.80 0.00 M 155.43 60.69 C 152.34 61.45 149.71 63.33 147.00 64.92 C 119.28 81.57 91.55 98.19 63.83 114.83 C 61.96 115.89 60.12 117.65 60.21 119.97 C 60.10 122.30 61.92 124.09 63.80 125.15 C 92.77 142.54 121.74 159.91 150.71 177.30 C 156.26 180.72 163.77 180.70 169.32 177.28 C 198.26 159.91 227.21 142.55 256.15 125.18 C 258.03 124.12 259.87 122.36 259.79 120.03 C 259.90 117.70 258.08 115.92 256.21 114.85 C 227.23 97.46 198.25 80.08 169.27 62.69 C 165.19 60.10 160.07 59.66 155.43 60.69 M 63.24 155.22 C 58.96 157.19 59.53 163.50 63.79 165.14 C 92.51 182.39 121.26 199.60 149.97 216.87 C 155.62 220.66 163.49 220.88 169.29 217.30 C 198.46 199.77 227.66 182.32 256.80 164.76 C 260.03 163.20 260.91 158.38 257.96 156.11 C 252.68 152.44 246.93 149.46 241.51 146.00 C 219.15 159.47 196.75 172.85 174.39 186.31 C 168.20 190.19 160.44 190.76 153.40 189.42 C 148.41 188.53 144.31 185.43 140.03 182.94 C 119.53 170.62 98.99 158.36 78.51 146.00 C 73.45 149.11 68.29 152.08 63.24 155.22 M 63.23 195.22 C 61.27 196.34 59.80 198.56 60.27 200.88 C 60.63 203.12 62.62 204.48 64.43 205.54 C 93.19 222.77 121.93 240.04 150.68 257.28 C 156.24 260.72 163.78 260.71 169.34 257.27 C 198.48 239.76 227.67 222.32 256.79 204.76 C 260.03 203.22 260.91 198.38 257.96 196.11 C 252.68 192.43 246.93 189.47 241.52 186.00 C 219.76 199.09 197.97 212.13 176.21 225.21 C 166.98 231.61 153.76 231.80 144.40 225.58 C 122.46 212.36 100.45 199.25 78.51 186.00 C 73.44 189.12 68.28 192.08 63.23 195.22 Z" />
</g>
</svg>
