<?xml version="1.0" encoding="UTF-8" ?>
<!DOCTYPE svg PUBLIC "-//W3C//DTD SVG 1.1//EN" "http://www.w3.org/Graphics/SVG/1.1/DTD/svg11.dtd">
<svg width="320pt" height="320pt" viewBox="0 0 320 320" version="1.1" xmlns="http://www.w3.org/2000/svg">
<g id="#4e6fa4ff">
<path fill="#4e6fa4" opacity="1.00" d=" M 151.56 0.00 L 168.45 0.00 C 202.34 1.83 235.57 14.56 261.71 36.25 C 287.23 57.17 306.07 86.15 314.60 118.05 C 317.61 128.97 319.20 140.23 320.00 151.52 L 320.00 168.39 C 318.30 199.23 307.73 229.57 289.37 254.45 C 268.29 283.42 237.24 305.01 202.64 314.41 C 191.49 317.53 179.99 319.19 168.45 320.00 L 151.54 320.00 C 121.22 318.30 91.36 308.07 66.73 290.22 C 37.15 269.14 15.11 237.68 5.58 202.61 C 2.46 191.47 0.78 179.97 0.00 168.44 L 0.00 151.52 C 0.61 143.60 1.43 135.67 3.09 127.89 C 10.18 92.19 30.13 59.31 58.27 36.27 C 84.42 14.57 117.65 1.82 151.56 0.00 M 96.61 99.62 C 83.78 107.17 74.55 120.36 71.41 134.87 C 69.35 143.81 70.37 153.12 72.05 162.03 C 76.32 183.19 89.33 201.66 105.45 215.60 C 120.95 229.01 139.02 239.37 158.16 246.63 C 159.71 247.43 161.28 246.20 162.75 245.79 C 186.75 236.20 209.63 222.42 226.82 202.88 C 239.71 188.27 248.53 169.63 249.51 150.01 C 250.95 135.55 245.50 120.84 235.96 110.03 C 226.54 99.26 212.38 92.40 197.95 92.98 C 182.89 93.27 168.94 101.82 160.00 113.65 C 153.59 105.31 144.95 98.52 134.89 95.25 C 122.30 90.98 107.96 92.78 96.61 99.62 Z" />
</g>
</svg>
