<?xml version="1.0" encoding="UTF-8" ?>
<!DOCTYPE svg PUBLIC "-//W3C//DTD SVG 1.1//EN" "http://www.w3.org/Graphics/SVG/1.1/DTD/svg11.dtd">
<svg width="200pt" height="200pt" viewBox="0 0 200 200" version="1.1" xmlns="http://www.w3.org/2000/svg">
<g id="#4e6fa4ff">
<path fill="#4e6fa4" opacity="1.00" d=" M 61.95 32.03 C 74.48 21.63 90.77 16.20 106.98 16.00 C 126.11 15.91 145.51 23.24 158.74 37.27 C 169.02 48.06 174.95 63.07 173.97 78.02 C 173.66 92.84 169.60 107.48 162.19 120.32 C 160.41 123.82 157.88 126.87 156.10 130.36 C 155.61 133.64 156.98 136.84 157.05 140.11 C 159.10 154.73 160.87 169.39 163.04 183.99 C 138.10 184.02 113.17 183.99 88.23 184.01 C 86.52 176.39 85.16 168.69 83.85 161.00 C 72.51 160.99 61.18 161.02 49.85 161.00 C 48.02 161.16 46.64 159.48 45.98 157.97 C 44.23 153.93 45.54 149.50 46.35 145.40 C 44.01 144.08 42.02 142.27 40.75 139.89 C 41.75 137.44 44.02 136.19 46.34 135.23 C 44.25 135.15 42.46 134.22 40.98 132.80 C 41.46 126.70 39.29 120.85 37.83 115.02 C 33.78 115.05 28.97 115.13 26.00 111.88 C 25.46 109.38 28.07 108.06 29.51 106.51 C 33.85 102.13 39.26 98.06 40.82 91.77 C 41.73 85.80 39.97 79.93 39.53 74.00 C 40.15 64.95 42.33 55.83 47.03 47.99 C 50.77 41.66 56.22 36.55 61.95 32.03 M 130.08 38.98 C 124.02 41.01 120.58 47.67 121.59 53.86 C 118.28 55.83 115.01 57.86 111.63 59.71 C 110.43 60.66 109.69 58.71 108.87 58.15 C 105.24 53.91 99.69 51.43 94.10 51.74 C 84.00 51.24 74.80 60.15 74.47 70.16 C 73.16 81.84 84.20 92.76 95.87 91.28 C 100.89 91.22 105.25 88.45 108.83 85.18 C 115.37 88.71 121.73 92.59 128.20 96.26 C 126.57 101.29 132.53 107.13 137.36 104.24 C 140.43 102.92 141.43 99.46 141.07 96.37 C 139.95 94.56 138.49 93.01 136.61 91.97 C 135.33 91.99 134.06 92.01 132.78 92.02 C 131.76 92.63 130.73 93.24 129.70 93.85 C 123.46 90.08 117.04 86.59 110.83 82.76 C 114.55 76.88 115.42 69.08 112.12 62.81 C 115.58 60.78 119.00 58.66 122.58 56.85 C 124.84 61.88 130.39 65.13 135.89 64.40 C 143.98 64.09 150.14 54.71 147.07 47.21 C 145.01 40.45 136.71 36.06 130.08 38.98 Z" />
</g>
</svg>
