<?xml version="1.0" encoding="UTF-8" ?>
<!DOCTYPE svg PUBLIC "-//W3C//DTD SVG 1.1//EN" "http://www.w3.org/Graphics/SVG/1.1/DTD/svg11.dtd">
<svg width="200pt" height="200pt" viewBox="0 0 200 200" version="1.1" xmlns="http://www.w3.org/2000/svg">
<g id="#4e6fa4ff">
<path fill="#4e6fa4" opacity="1.00" d=" M 88.95 12.69 C 96.43 12.27 103.95 12.54 111.45 12.56 C 111.60 55.72 111.47 98.88 111.51 142.04 C 111.46 146.36 111.66 150.70 111.38 155.02 C 103.93 154.96 96.48 155.06 89.04 154.96 C 88.91 107.54 89.10 60.11 88.95 12.69 Z" />
<path fill="#4e6fa4" opacity="1.00" d=" M 133.20 55.12 C 140.63 55.28 148.07 54.94 155.49 55.30 C 155.56 88.48 155.47 121.66 155.54 154.84 C 148.05 155.19 140.54 154.94 133.04 154.97 C 132.94 123.66 133.05 92.35 132.99 61.05 C 132.93 59.07 133.02 57.09 133.20 55.12 Z" />
<path fill="#4e6fa4" opacity="1.00" d=" M 45.17 88.46 C 52.59 88.57 60.02 88.41 67.44 88.54 C 67.55 110.57 67.57 132.60 67.44 154.63 C 60.18 155.49 52.47 154.80 45.03 154.96 C 45.07 132.79 44.79 110.61 45.17 88.46 Z" />
<path fill="#4e6fa4" opacity="1.00" d=" M 12.55 176.56 C 69.69 176.40 126.83 176.56 183.97 176.47 C 185.32 176.47 186.67 176.56 188.03 176.63 C 187.98 180.41 188.03 184.18 187.97 187.96 C 130.28 188.07 72.60 187.94 14.92 188.02 C 14.33 187.90 13.15 187.67 12.56 187.55 C 12.35 183.89 12.52 180.22 12.55 176.56 Z" />
</g>
</svg>
