<?xml version="1.0" encoding="UTF-8" ?>
<!DOCTYPE svg PUBLIC "-//W3C//DTD SVG 1.1//EN" "http://www.w3.org/Graphics/SVG/1.1/DTD/svg11.dtd">
<svg width="320pt" height="320pt" viewBox="0 0 320 320" version="1.1" xmlns="http://www.w3.org/2000/svg">
<g id="#4e6fa4ff">
<path fill="#4e6fa4" opacity="1.00" d=" M 143.18 0.00 L 177.18 0.00 C 180.12 1.51 183.55 0.74 186.67 1.59 C 188.32 1.94 189.99 2.26 191.64 2.66 C 193.30 2.96 194.96 3.24 196.60 3.62 C 197.93 3.96 199.27 4.29 200.60 4.66 C 201.94 4.99 203.28 5.32 204.61 5.70 C 205.06 5.84 205.96 6.12 206.41 6.26 C 208.13 6.78 209.88 7.23 211.60 7.76 C 212.08 7.85 213.05 8.02 213.53 8.11 C 214.52 8.72 215.51 9.32 216.51 9.93 C 217.01 9.97 218.00 10.03 218.50 10.06 C 219.49 10.68 220.49 11.30 221.48 11.92 C 221.97 11.97 222.95 12.07 223.44 12.12 C 224.81 12.86 226.18 13.59 227.57 14.30 C 229.19 15.10 230.81 15.91 232.43 16.72 C 233.77 17.39 235.11 18.06 236.45 18.74 C 236.95 18.97 237.96 19.43 238.46 19.65 C 252.45 27.78 265.49 37.63 276.74 49.27 C 281.62 55.36 287.23 60.89 291.38 67.55 C 294.33 72.23 297.77 76.62 300.32 81.54 C 300.78 82.51 301.25 83.47 301.73 84.43 C 302.57 86.14 303.43 87.86 304.27 89.58 C 305.45 91.91 306.62 94.26 307.88 96.56 C 307.93 97.04 308.03 98.02 308.08 98.51 C 308.69 99.51 309.31 100.51 309.94 101.51 C 309.97 102.00 310.03 102.99 310.07 103.49 C 310.67 104.48 311.28 105.48 311.89 106.48 C 311.98 106.96 312.15 107.92 312.23 108.40 C 312.76 110.12 313.21 111.85 313.74 113.57 C 313.87 114.04 314.13 114.97 314.26 115.43 C 314.77 117.15 315.23 118.89 315.75 120.61 C 315.93 121.52 316.12 122.44 316.31 123.36 C 316.72 125.01 317.03 126.68 317.36 128.35 C 317.74 130.01 318.05 131.68 318.40 133.34 C 319.14 136.57 318.77 140.00 320.00 143.13 L 320.00 177.17 C 318.49 180.12 319.26 183.55 318.40 186.67 C 318.05 188.32 317.73 189.99 317.34 191.64 C 317.04 193.30 316.75 194.95 316.38 196.60 C 316.04 197.93 315.70 199.27 315.34 200.60 C 315.00 201.94 314.67 203.27 314.30 204.60 C 314.16 205.06 313.88 205.98 313.74 206.44 C 313.21 208.15 312.76 209.88 312.23 211.59 C 312.15 212.08 311.98 213.04 311.89 213.53 C 311.28 214.52 310.67 215.51 310.07 216.51 C 310.03 217.01 309.97 218.01 309.94 218.50 C 309.31 219.50 308.69 220.49 308.08 221.49 C 308.03 221.98 307.93 222.96 307.88 223.45 C 306.98 225.09 306.12 226.75 305.26 228.41 C 304.28 230.43 303.29 232.44 302.28 234.45 C 302.03 234.94 301.52 235.93 301.27 236.42 C 300.62 237.77 299.97 239.11 299.33 240.46 C 293.49 249.16 288.12 258.27 280.78 265.84 C 276.46 271.45 271.41 276.49 265.80 280.82 C 257.98 288.30 248.68 293.93 239.63 299.77 C 238.26 300.40 236.91 301.05 235.56 301.72 C 234.51 302.23 233.48 302.75 232.44 303.27 C 230.43 304.29 228.43 305.28 226.40 306.26 C 225.42 306.80 224.44 307.35 223.47 307.91 C 222.97 307.95 221.99 308.03 221.50 308.07 C 220.50 308.69 219.50 309.31 218.50 309.94 C 218.00 309.97 217.00 310.04 216.50 310.07 C 215.51 310.68 214.51 311.29 213.52 311.90 C 213.03 311.98 212.07 312.15 211.59 312.23 C 209.88 312.76 208.15 313.22 206.44 313.75 C 205.97 313.87 205.04 314.13 204.57 314.26 C 202.85 314.77 201.12 315.23 199.40 315.75 C 198.48 315.93 197.56 316.12 196.64 316.32 C 194.99 316.72 193.31 317.02 191.64 317.33 C 189.52 317.83 187.38 318.20 185.29 318.78 C 182.48 318.96 179.58 318.88 176.93 320.00 L 142.82 320.00 C 140.34 318.62 137.42 319.05 134.71 318.79 C 132.61 318.20 130.47 317.82 128.36 317.31 C 126.70 317.03 125.03 316.75 123.39 316.39 C 122.05 316.04 120.72 315.71 119.39 315.34 C 118.06 315.00 116.73 314.67 115.41 314.30 C 114.95 314.16 114.03 313.88 113.57 313.74 C 111.85 313.21 110.12 312.76 108.41 312.23 C 107.92 312.15 106.96 311.98 106.47 311.90 C 105.48 311.28 104.49 310.68 103.50 310.07 C 103.00 310.04 102.00 309.97 101.50 309.94 C 100.50 309.31 99.50 308.69 98.51 308.07 C 98.01 308.03 97.02 307.95 96.53 307.90 C 95.55 307.35 94.57 306.80 93.59 306.25 C 91.57 305.28 89.57 304.29 87.57 303.28 C 85.85 302.43 84.14 301.57 82.42 300.72 C 81.47 300.25 80.51 299.79 79.55 299.33 C 70.83 293.50 61.73 288.10 54.15 280.78 C 48.56 276.47 43.54 271.45 39.23 265.86 C 31.90 258.27 26.48 249.17 20.66 240.43 C 19.57 238.13 18.44 235.85 17.28 233.58 C 16.43 231.86 15.58 230.14 14.74 228.42 C 13.88 226.75 13.02 225.09 12.12 223.45 C 12.07 222.96 11.97 221.98 11.92 221.48 C 11.30 220.49 10.68 219.49 10.06 218.50 C 10.03 218.00 9.96 217.00 9.93 216.50 C 9.32 215.50 8.71 214.51 8.10 213.52 C 8.02 213.03 7.85 212.07 7.77 211.58 C 7.23 209.87 6.78 208.14 6.25 206.43 C 6.12 205.96 5.87 205.03 5.74 204.57 C 5.22 202.85 4.77 201.11 4.25 199.40 C 4.06 198.48 3.88 197.56 3.69 196.64 C 3.28 194.99 2.97 193.31 2.65 191.64 C 2.26 189.99 1.94 188.32 1.60 186.66 C 0.85 183.44 1.27 180.02 0.00 176.92 L 0.00 142.82 C 1.37 140.34 0.95 137.42 1.21 134.70 C 1.80 132.61 2.18 130.47 2.68 128.36 C 2.98 126.68 3.27 125.00 3.68 123.35 C 3.87 122.43 4.06 121.52 4.25 120.60 C 4.77 118.88 5.22 117.14 5.74 115.41 C 5.87 114.95 6.12 114.03 6.25 113.57 C 6.78 111.86 7.23 110.12 7.77 108.41 C 7.85 107.93 8.02 106.96 8.10 106.48 C 8.71 105.48 9.32 104.49 9.93 103.50 C 9.96 103.00 10.03 102.00 10.06 101.50 C 10.68 100.51 11.30 99.51 11.92 98.52 C 11.97 98.03 12.07 97.05 12.12 96.55 C 13.01 94.91 13.87 93.25 14.74 91.59 C 15.57 89.86 16.43 88.14 17.28 86.42 C 18.30 84.42 19.29 82.42 20.23 80.38 C 23.94 74.47 27.81 68.65 31.81 62.93 C 38.77 54.59 45.41 45.79 54.17 39.21 C 61.74 31.88 70.84 26.50 79.55 20.67 C 81.56 19.70 83.57 18.71 85.58 17.73 C 86.07 17.48 87.05 16.97 87.54 16.72 C 88.89 16.05 90.24 15.39 91.60 14.73 C 93.25 13.87 94.91 13.01 96.55 12.12 C 97.05 12.07 98.03 11.97 98.52 11.92 C 99.51 11.30 100.51 10.68 101.50 10.06 C 102.00 10.03 103.00 9.96 103.50 9.93 C 104.49 9.32 105.48 8.71 106.48 8.10 C 106.96 8.02 107.93 7.85 108.41 7.77 C 110.12 7.24 111.86 6.78 113.57 6.26 C 114.03 6.12 114.95 5.84 115.41 5.69 C 116.74 5.33 118.08 5.00 119.42 4.68 C 121.15 4.19 122.89 3.77 124.61 3.26 C 125.52 3.07 126.43 2.87 127.35 2.68 C 129.79 2.15 132.29 1.87 134.72 1.25 C 137.56 1.06 140.47 1.01 143.18 0.00 M 145.48 51.16 C 141.83 51.98 138.12 52.49 134.45 53.23 C 114.00 58.26 94.97 69.11 80.58 84.52 C 63.75 101.86 53.19 125.07 50.88 149.10 C 50.62 152.89 50.73 156.69 50.33 160.47 C 50.90 165.96 50.51 171.54 51.67 176.96 C 55.18 200.70 67.06 223.04 84.55 239.45 C 101.87 256.24 125.04 266.79 149.03 269.11 C 156.68 269.55 164.37 269.55 172.02 269.04 C 181.09 268.07 189.96 265.76 198.57 262.77 C 218.00 255.30 235.32 242.36 247.74 225.64 C 259.80 209.90 267.16 190.69 269.11 170.99 C 269.53 161.01 269.89 150.89 268.01 141.03 C 264.06 117.82 252.24 96.06 234.95 80.09 C 217.95 63.77 195.39 53.54 172.00 50.96 C 163.17 50.38 154.30 50.44 145.48 51.16 Z" />
<path fill="#4e6fa4" opacity="1.00" d=" M 147.52 70.52 C 153.96 69.53 160.52 70.17 167.02 70.01 C 185.93 71.18 204.21 79.06 218.63 91.26 C 222.10 94.53 225.47 97.90 228.74 101.37 C 240.76 115.54 248.48 133.43 249.97 151.99 C 250.05 157.00 250.00 162.02 249.99 167.03 C 248.06 198.46 227.74 227.76 199.39 241.25 C 189.94 246.04 179.56 248.79 169.05 249.91 C 163.35 250.09 157.63 250.01 151.92 249.96 C 133.14 248.43 115.00 240.55 100.79 228.22 C 96.47 223.88 91.81 219.80 88.21 214.80 C 77.91 201.34 71.40 184.93 70.03 168.01 C 69.95 163.00 70.00 157.99 70.01 152.99 C 71.93 121.55 92.26 92.24 120.61 78.75 C 129.03 74.49 138.19 71.82 147.52 70.52 M 200.50 111.01 C 190.45 118.01 179.75 124.08 169.43 130.70 C 174.46 133.33 179.79 135.91 183.29 140.56 C 185.93 143.48 187.33 147.21 189.30 150.56 C 195.91 140.24 202.00 129.57 208.98 119.50 C 209.91 116.36 209.42 113.00 206.78 110.85 C 204.68 110.63 202.57 110.61 200.50 111.01 M 151.39 142.12 C 147.58 144.42 144.42 147.58 142.13 151.39 C 140.03 156.90 140.03 163.10 142.12 168.61 C 144.42 172.41 147.58 175.58 151.39 177.87 C 156.91 179.96 163.10 179.98 168.62 177.87 C 172.41 175.57 175.58 172.42 177.87 168.61 C 179.96 163.09 179.98 156.90 177.87 151.39 C 175.58 147.58 172.41 144.42 168.61 142.13 C 163.10 140.03 156.90 140.03 151.39 142.12 M 111.21 200.44 C 110.83 201.49 110.44 202.55 110.04 203.60 C 110.77 205.53 111.34 207.78 113.28 208.88 C 115.26 209.77 117.45 209.29 119.51 208.98 C 129.56 201.90 140.42 196.00 150.61 189.12 C 147.37 187.55 143.97 186.15 141.20 183.79 C 136.31 180.22 133.23 174.84 130.90 169.37 C 124.10 179.58 118.03 190.25 111.21 200.44 Z" />
</g>
</svg>
