<?xml version="1.0" encoding="UTF-8" ?>
<!DOCTYPE svg PUBLIC "-//W3C//DTD SVG 1.1//EN" "http://www.w3.org/Graphics/SVG/1.1/DTD/svg11.dtd">
<svg width="320pt" height="320pt" viewBox="0 0 320 320" version="1.1" xmlns="http://www.w3.org/2000/svg">
<g id="#4e6fa4ff">
<path fill="#4e6fa4" opacity="1.00" d=" M 143.83 0.00 L 176.27 0.00 C 178.17 0.64 180.13 1.05 182.12 1.27 C 217.62 5.94 251.23 23.26 275.86 49.21 C 298.58 72.79 313.76 103.55 318.46 135.96 C 318.80 138.61 319.13 141.28 320.00 143.83 L 320.00 176.27 C 319.01 179.03 318.75 181.96 318.35 184.84 C 313.50 216.98 298.37 247.45 275.81 270.84 C 253.15 294.68 222.94 311.23 190.62 317.36 C 185.84 318.47 180.86 318.49 176.17 320.00 L 143.73 320.00 C 140.97 319.02 138.05 318.75 135.17 318.35 C 103.04 313.51 72.57 298.38 49.18 275.83 C 23.24 251.20 5.95 217.60 1.26 182.12 C 1.04 180.10 0.63 178.10 0.00 176.17 L 0.00 143.73 C 0.63 141.84 1.04 139.89 1.26 137.91 C 5.64 104.76 21.00 73.21 44.20 49.15 C 68.83 23.23 102.41 5.94 137.87 1.26 C 139.90 1.04 141.89 0.62 143.83 0.00 M 157.28 60.33 C 152.92 60.83 149.35 63.57 145.67 65.71 C 118.59 81.95 91.52 98.23 64.42 114.44 C 62.65 115.54 60.60 116.86 60.29 119.11 C 59.65 121.77 61.72 124.04 63.89 125.23 C 92.42 142.34 120.95 159.44 149.46 176.58 C 155.66 180.95 164.45 180.92 170.64 176.52 C 199.11 159.40 227.62 142.32 256.11 125.23 C 257.73 124.21 259.46 122.88 259.72 120.84 C 260.32 118.19 258.26 115.95 256.10 114.77 C 227.19 97.44 198.29 80.08 169.39 62.75 C 165.81 60.47 161.44 59.79 157.28 60.33 M 62.68 155.61 C 60.27 157.06 59.39 160.48 61.05 162.82 C 62.78 164.93 65.37 166.03 67.62 167.47 C 95.30 184.05 122.96 200.67 150.64 217.27 C 156.23 220.73 163.79 220.73 169.37 217.26 C 198.48 199.78 227.62 182.35 256.70 164.84 C 259.98 163.30 260.99 158.40 257.95 156.12 C 252.70 152.38 246.90 149.46 241.48 145.97 C 218.92 159.63 196.26 173.13 173.65 186.72 C 164.48 191.68 152.35 191.14 143.74 185.17 C 122.02 172.07 100.21 159.12 78.51 145.97 C 73.29 149.28 67.84 152.21 62.68 155.61 M 62.08 196.10 C 59.00 198.37 60.00 203.32 63.32 204.85 C 92.41 222.37 121.55 239.80 150.66 257.28 C 156.24 260.72 163.77 260.72 169.34 257.28 C 198.45 239.80 227.59 222.36 256.68 204.85 C 260.00 203.31 261.00 198.37 257.91 196.09 C 252.69 192.37 246.90 189.49 241.53 185.97 C 219.80 199.08 198.01 212.08 176.27 225.17 C 166.81 231.71 153.21 231.72 143.74 225.18 C 122.02 212.07 100.21 199.12 78.52 185.97 C 73.11 189.46 67.32 192.37 62.08 196.10 Z" />
</g>
</svg>
