<?xml version="1.0" encoding="UTF-8" ?>
<!DOCTYPE svg PUBLIC "-//W3C//DTD SVG 1.1//EN" "http://www.w3.org/Graphics/SVG/1.1/DTD/svg11.dtd">
<svg width="200pt" height="200pt" viewBox="0 0 200 200" version="1.1" xmlns="http://www.w3.org/2000/svg">
<g id="#4e6fa4ff">
<path fill="#4e6fa4" opacity="1.00" d=" M 67.18 17.94 C 67.44 10.15 74.19 3.29 81.98 3.02 C 89.34 2.97 96.69 3.00 104.05 3.01 C 111.56 3.14 118.42 9.51 118.99 17.01 C 119.03 24.39 118.98 31.77 119.00 39.15 C 124.70 39.24 130.41 38.98 136.10 39.27 C 140.89 39.70 145.57 43.92 145.05 48.98 C 145.76 54.50 140.37 59.37 135.02 59.02 C 107.01 58.98 79.01 59.01 51.00 59.01 C 44.91 59.27 39.65 52.89 41.27 46.97 C 42.25 42.58 46.47 39.42 50.88 39.21 C 56.30 39.05 61.72 39.22 67.14 39.14 C 67.20 32.07 67.08 25.00 67.18 17.94 M 91.32 12.15 C 84.19 13.49 80.41 23.04 85.65 28.43 C 89.95 34.12 99.61 32.62 102.24 26.10 C 105.77 19.25 98.76 10.45 91.32 12.15 Z" />
<path fill="#4e6fa4" opacity="1.00" d=" M 23.98 14.99 C 31.15 13.16 38.65 14.29 45.97 14.04 C 46.02 17.95 46.03 21.87 45.95 25.79 C 39.49 26.49 32.10 24.17 26.43 28.23 C 21.99 31.25 20.87 36.99 20.97 42.01 C 21.04 86.04 20.97 130.08 21.01 174.11 C 20.77 180.88 25.79 188.18 33.01 188.14 C 54.85 188.22 76.70 188.05 98.55 188.22 C 101.50 192.20 103.94 196.62 107.63 200.00 L 25.61 200.00 C 20.91 198.33 16.12 196.10 13.09 191.95 C 9.35 187.57 7.94 181.66 8.12 176.00 C 8.19 129.32 8.12 82.64 8.16 35.95 C 8.16 26.49 14.86 17.54 23.98 14.99 Z" />
<path fill="#4e6fa4" opacity="1.00" d=" M 140.61 25.61 C 140.36 21.73 140.40 17.83 140.66 13.96 C 148.52 14.46 156.73 12.81 164.28 15.65 C 172.50 18.70 178.24 27.27 178.02 36.02 C 177.96 56.62 178.04 77.21 177.98 97.81 C 173.56 95.28 169.35 92.41 164.96 89.82 C 165.06 72.89 164.95 55.96 165.02 39.03 C 165.46 33.26 161.18 27.71 155.69 26.17 C 150.71 25.35 145.59 26.33 140.61 25.61 Z" />
<path fill="#4e6fa4" opacity="1.00" d=" M 41.35 85.44 C 42.67 80.89 47.29 77.75 51.99 78.00 C 79.39 78.03 106.80 77.92 134.21 78.06 C 129.94 79.85 125.34 80.81 121.29 83.11 C 114.12 86.71 108.15 92.18 102.56 97.84 C 85.70 98.21 68.79 97.90 51.92 98.00 C 45.46 98.49 39.32 91.85 41.35 85.44 Z" />
<path fill="#4e6fa4" opacity="1.00" d=" M 122.33 100.25 C 128.23 95.17 136.64 92.84 144.26 94.77 C 149.93 95.83 154.48 99.52 158.68 103.23 C 169.68 111.90 179.28 122.23 187.67 133.43 C 193.32 141.71 193.14 153.31 187.35 161.46 C 176.97 174.61 165.43 187.04 151.64 196.67 C 149.30 198.07 146.69 198.94 144.19 200.00 L 133.63 200.00 C 130.89 198.95 128.05 198.08 125.56 196.50 C 115.05 188.86 105.48 179.94 97.17 169.94 C 93.06 164.89 87.98 160.16 86.49 153.56 C 85.08 146.37 85.83 138.39 90.48 132.44 C 95.91 125.89 101.08 119.06 107.33 113.24 C 112.21 108.77 117.26 104.50 122.33 100.25 M 132.21 113.98 C 131.31 115.17 129.73 116.20 130.00 117.91 C 129.97 124.89 130.02 131.87 129.99 138.85 C 122.36 138.98 114.71 138.58 107.09 139.05 C 106.84 139.31 106.34 139.84 106.09 140.10 C 105.08 144.86 105.27 149.97 106.06 154.77 C 107.30 155.30 108.50 156.17 109.92 156.00 C 116.61 156.02 123.31 155.98 130.00 156.00 C 130.02 162.69 129.98 169.37 130.00 176.06 C 129.81 177.51 130.73 178.72 131.28 179.98 C 135.43 180.75 139.68 180.57 143.87 180.39 C 146.10 180.34 147.17 177.92 147.11 175.98 C 147.22 169.33 147.12 162.67 147.14 156.01 C 154.11 155.96 161.08 156.04 168.04 155.99 C 169.71 156.15 170.81 154.68 172.04 153.82 C 171.98 149.49 171.96 145.16 172.05 140.84 C 171.23 139.93 170.46 138.61 169.01 138.89 C 161.76 138.72 154.50 139.01 147.25 138.75 C 146.99 131.51 147.28 124.25 147.11 117.00 C 147.39 115.28 145.67 113.88 144.07 114.01 C 140.11 113.93 136.16 114.06 132.21 113.98 Z" />
</g>
</svg>
