<?xml version="1.0" encoding="UTF-8" ?>
<!DOCTYPE svg PUBLIC "-//W3C//DTD SVG 1.1//EN" "http://www.w3.org/Graphics/SVG/1.1/DTD/svg11.dtd">
<svg width="320pt" height="320pt" viewBox="0 0 320 320" version="1.1" xmlns="http://www.w3.org/2000/svg">
<g id="#4e6fa4ff">
<path fill="#4e6fa4" opacity="1.00" d=" M 143.11 0.00 L 177.16 0.00 C 180.13 1.49 183.58 0.71 186.69 1.67 C 187.91 1.88 189.13 2.08 190.35 2.28 C 192.44 2.76 194.53 3.23 196.63 3.72 C 197.55 3.89 198.48 4.07 199.41 4.25 C 201.12 4.77 202.86 5.22 204.57 5.74 C 205.04 5.87 205.97 6.13 206.43 6.26 C 208.14 6.78 209.87 7.24 211.59 7.77 C 212.07 7.85 213.03 8.02 213.51 8.10 C 214.51 8.71 215.51 9.32 216.51 9.93 C 217.01 9.96 218.00 10.03 218.49 10.07 C 219.49 10.69 220.50 11.30 221.50 11.92 C 221.99 11.97 222.95 12.08 223.44 12.13 C 229.38 15.39 235.62 18.08 241.54 21.39 C 250.13 27.04 258.93 32.50 266.37 39.67 C 273.82 45.16 279.44 52.57 285.44 59.51 C 289.36 64.03 292.39 69.22 295.77 74.13 C 300.76 81.07 303.71 89.16 307.87 96.57 C 307.92 97.05 308.03 98.02 308.08 98.50 C 308.69 99.50 309.31 100.50 309.93 101.51 C 309.97 102.00 310.04 102.99 310.07 103.49 C 310.68 104.49 311.29 105.49 311.90 106.49 C 311.98 106.97 312.15 107.93 312.24 108.40 C 312.76 110.12 313.21 111.85 313.73 113.57 C 313.88 114.03 314.16 114.95 314.31 115.41 C 314.68 116.73 315.02 118.07 315.36 119.41 C 315.71 120.74 316.02 122.08 316.35 123.42 C 316.81 125.49 317.22 127.58 317.71 129.65 C 317.91 130.87 318.11 132.09 318.34 133.31 C 319.17 136.52 318.75 139.95 320.00 143.07 L 320.00 177.16 C 318.50 180.13 319.29 183.57 318.33 186.69 C 318.11 187.90 317.91 189.13 317.72 190.35 C 317.23 192.44 316.77 194.53 316.28 196.62 C 316.10 197.55 315.92 198.48 315.75 199.42 C 315.23 201.13 314.78 202.86 314.26 204.57 C 314.13 205.04 313.87 205.97 313.74 206.44 C 313.21 208.15 312.76 209.88 312.23 211.59 C 312.15 212.07 311.98 213.03 311.90 213.51 C 311.28 214.51 310.67 215.51 310.07 216.52 C 310.04 217.01 309.97 217.99 309.94 218.49 C 309.31 219.49 308.69 220.49 308.08 221.50 C 308.03 221.99 307.92 222.95 307.87 223.44 C 304.61 229.38 301.92 235.63 298.61 241.55 C 293.07 249.91 287.82 258.54 280.82 265.80 C 277.62 269.90 274.09 273.73 270.21 277.19 C 264.46 281.77 259.25 287.06 253.01 291.02 C 247.69 294.36 242.74 298.34 237.02 301.01 C 232.48 303.27 227.91 305.46 223.44 307.87 C 222.96 307.92 221.99 308.03 221.50 308.08 C 220.49 308.69 219.49 309.31 218.49 309.94 C 217.99 309.97 217.01 310.03 216.51 310.07 C 215.51 310.67 214.51 311.28 213.51 311.89 C 213.03 311.98 212.07 312.15 211.60 312.24 C 209.88 312.76 208.14 313.21 206.43 313.74 C 205.96 313.87 205.04 314.14 204.58 314.28 C 202.87 314.78 201.15 315.20 199.44 315.67 C 198.08 316.00 196.72 316.31 195.37 316.66 C 193.68 316.97 192.00 317.29 190.33 317.69 C 189.11 317.90 187.90 318.11 186.69 318.34 C 183.47 319.16 180.05 318.75 176.93 320.00 L 142.84 320.00 C 139.88 318.53 136.47 319.22 133.34 318.40 C 131.68 318.06 130.01 317.74 128.36 317.36 C 126.69 317.04 125.02 316.72 123.37 316.31 C 122.44 316.12 121.51 315.93 120.59 315.75 C 118.87 315.22 117.14 314.78 115.43 314.26 C 114.96 314.13 114.04 313.87 113.57 313.74 C 111.86 313.22 110.12 312.76 108.41 312.23 C 107.93 312.15 106.97 311.98 106.49 311.90 C 105.49 311.29 104.49 310.68 103.49 310.07 C 102.99 310.04 102.00 309.97 101.50 309.93 C 100.50 309.31 99.50 308.69 98.50 308.08 C 98.01 308.03 97.05 307.92 96.56 307.87 C 90.62 304.61 84.37 301.92 78.45 298.60 C 69.87 292.96 61.08 287.51 53.65 280.35 C 46.02 274.69 40.25 267.08 34.13 259.94 C 29.91 254.99 26.70 249.30 22.97 244.00 C 18.70 237.52 15.93 230.19 12.13 223.43 C 12.08 222.95 11.97 221.99 11.92 221.50 C 11.30 220.50 10.69 219.49 10.07 218.49 C 10.03 218.00 9.97 217.01 9.93 216.51 C 9.32 215.52 8.71 214.52 8.11 213.52 C 8.02 213.04 7.85 212.07 7.76 211.59 C 7.23 209.87 6.78 208.14 6.26 206.43 C 6.13 205.97 5.87 205.04 5.74 204.58 C 5.21 202.86 4.77 201.12 4.25 199.41 C 4.07 198.48 3.89 197.55 3.72 196.63 C 3.23 194.53 2.76 192.44 2.28 190.35 C 2.08 189.12 1.88 187.90 1.67 186.69 C 0.83 183.48 1.24 180.05 0.00 176.93 L 0.00 142.84 C 1.50 139.87 0.69 136.42 1.67 133.31 C 1.89 132.09 2.08 130.87 2.28 129.65 C 2.76 127.56 3.23 125.46 3.72 123.38 C 3.89 122.44 4.07 121.52 4.25 120.59 C 4.77 118.87 5.22 117.14 5.74 115.43 C 5.87 114.96 6.13 114.04 6.26 113.57 C 6.78 111.86 7.23 110.12 7.76 108.41 C 7.85 107.93 8.02 106.97 8.10 106.49 C 8.71 105.49 9.32 104.49 9.93 103.49 C 9.96 103.00 10.03 102.00 10.07 101.51 C 10.68 100.50 11.30 99.50 11.92 98.50 C 11.97 98.01 12.07 97.05 12.13 96.56 C 16.16 89.41 19.02 81.60 23.74 74.85 C 27.31 69.71 30.45 64.26 34.56 59.52 C 40.56 52.58 46.17 45.17 53.63 39.67 C 59.52 34.07 66.15 29.36 72.99 25.00 C 80.23 19.63 88.74 16.48 96.56 12.13 C 97.05 12.08 98.02 11.97 98.50 11.92 C 99.50 11.30 100.50 10.69 101.51 10.07 C 102.00 10.03 102.99 9.97 103.48 9.93 C 104.48 9.32 105.49 8.71 106.49 8.11 C 106.97 8.02 107.93 7.85 108.41 7.76 C 110.12 7.23 111.85 6.79 113.57 6.27 C 114.03 6.12 114.95 5.83 115.41 5.68 C 116.75 5.33 118.09 5.01 119.44 4.67 C 121.15 4.19 122.89 3.78 124.60 3.28 C 125.51 3.07 126.43 2.86 127.35 2.65 C 129.32 2.22 131.31 1.95 133.30 1.63 C 136.54 0.87 139.97 1.22 143.11 0.00 M 92.52 102.61 C 81.27 110.72 73.79 123.44 71.15 136.95 C 68.21 160.59 77.20 184.66 92.70 202.39 C 95.99 205.79 98.65 209.81 102.50 212.63 C 118.91 227.76 138.66 239.01 159.48 246.89 C 173.15 241.45 186.54 235.11 198.71 226.78 C 216.82 214.87 233.03 199.00 242.09 179.05 C 247.93 166.28 250.37 151.96 248.99 137.98 C 246.64 124.07 238.99 110.94 227.50 102.63 C 215.62 93.86 199.46 90.35 185.36 95.46 C 175.13 98.44 166.94 105.72 160.00 113.53 C 157.09 110.58 154.40 107.41 151.22 104.74 C 142.86 97.53 132.04 93.43 121.03 92.96 C 110.85 93.27 100.70 96.48 92.52 102.61 Z" />
</g>
</svg>
