<?xml version="1.0" encoding="UTF-8" ?>
<!DOCTYPE svg PUBLIC "-//W3C//DTD SVG 1.1//EN" "http://www.w3.org/Graphics/SVG/1.1/DTD/svg11.dtd">
<svg width="200pt" height="200pt" viewBox="0 0 200 200" version="1.1" xmlns="http://www.w3.org/2000/svg">
<g id="#4e6fa4ff">
<path fill="#4e6fa4" opacity="1.00" d=" M 43.65 33.51 C 58.47 28.61 75.79 31.89 87.57 42.22 C 80.65 52.20 77.24 65.03 79.89 77.03 C 82.27 91.25 91.99 103.83 104.87 110.19 C 115.12 115.20 127.26 116.59 138.19 113.04 C 140.82 115.53 143.34 118.13 145.90 120.68 C 130.23 135.78 114.36 150.69 98.66 165.76 C 94.70 169.55 88.09 169.80 83.90 166.25 C 65.25 148.52 46.63 130.76 28.01 112.99 C 20.22 106.25 14.61 97.02 12.52 86.90 C 11.07 78.16 11.39 68.93 14.79 60.65 C 19.75 47.93 30.65 37.67 43.65 33.51 Z" />
<path fill="#4e6fa4" opacity="1.00" d=" M 117.00 32.22 C 126.21 30.02 136.27 31.75 144.43 36.50 C 158.40 44.58 166.04 62.30 161.66 77.94 C 161.39 80.11 159.55 82.28 160.15 84.42 C 168.22 92.81 176.67 100.83 184.75 109.21 C 187.20 111.63 188.15 115.04 188.41 118.38 C 188.38 125.20 182.95 131.34 176.13 131.93 C 171.85 132.40 167.57 130.41 164.68 127.32 C 156.65 119.22 148.49 111.23 140.51 103.07 C 133.54 106.43 125.58 106.65 118.03 105.68 C 103.89 102.99 91.91 91.52 88.73 77.47 C 87.52 72.49 87.90 67.25 88.26 62.19 C 90.83 47.71 102.54 35.25 117.00 32.22 M 120.43 46.17 C 108.46 48.65 99.77 61.57 102.50 73.55 C 104.17 82.40 111.35 89.84 120.07 91.95 C 125.63 93.06 131.64 92.59 136.66 89.82 C 143.80 85.91 148.93 78.17 149.04 69.95 C 149.58 60.67 143.75 51.55 135.33 47.76 C 130.74 45.44 125.40 45.55 120.43 46.17 Z" />
</g>
</svg>
