<?xml version="1.0" encoding="UTF-8" ?>
<!DOCTYPE svg PUBLIC "-//W3C//DTD SVG 1.1//EN" "http://www.w3.org/Graphics/SVG/1.1/DTD/svg11.dtd">
<svg width="129pt" height="129pt" viewBox="0 0 129 129" version="1.1" xmlns="http://www.w3.org/2000/svg">
<g id="#ffffffff">
<path fill="#ffffff" opacity="1.00" d=" M 0.00 0.00 L 129.00 0.00 L 129.00 129.00 L 0.00 129.00 L 0.00 0.00 M 8.93 8.93 C 8.93 15.98 8.93 23.02 8.93 30.07 C 15.98 30.08 23.02 30.08 30.07 30.07 C 30.08 23.02 30.08 15.98 30.07 8.93 C 23.03 8.92 15.98 8.92 8.93 8.93 M 32.93 8.93 C 32.93 10.98 32.93 13.02 32.93 15.07 C 34.97 15.07 37.02 15.07 39.06 15.07 C 39.06 13.02 39.06 10.97 39.06 8.92 C 37.02 8.92 34.97 8.93 32.93 8.93 M 41.92 8.92 C 41.93 10.97 41.93 13.02 41.93 15.07 C 42.72 15.07 44.29 15.07 45.07 15.07 C 45.07 13.02 45.07 10.97 45.07 8.92 C 44.29 8.92 42.71 8.92 41.92 8.92 M 47.93 8.94 C 47.93 10.98 47.93 13.02 47.93 15.06 C 48.71 15.07 50.28 15.07 51.06 15.08 C 51.06 13.02 51.06 10.97 51.06 8.91 C 50.28 8.92 48.72 8.93 47.93 8.94 M 56.92 8.92 C 56.93 9.70 56.93 11.26 56.93 12.04 C 57.68 12.05 59.20 12.08 59.95 12.10 C 59.95 12.80 59.94 14.20 59.94 14.90 C 59.18 14.92 57.67 14.94 56.92 14.95 C 56.92 15.73 56.92 17.29 56.93 18.07 C 57.71 18.07 59.27 18.07 60.05 18.07 C 60.07 17.32 60.10 15.80 60.11 15.04 C 60.81 15.05 62.21 15.05 62.90 15.06 C 62.92 15.81 62.94 17.31 62.95 18.06 C 63.70 18.07 65.18 18.08 65.93 18.08 C 65.93 18.83 65.94 20.32 65.94 21.07 C 68.94 21.07 71.93 21.08 74.93 21.08 C 74.93 25.08 74.93 29.07 74.93 33.07 C 76.93 33.07 78.93 33.08 80.93 33.08 C 80.93 33.79 80.94 35.21 80.94 35.92 C 76.99 35.93 73.04 35.93 69.10 35.94 C 69.09 35.19 69.07 33.68 69.06 32.93 C 68.31 32.93 66.81 32.91 66.06 32.91 C 66.07 30.96 66.07 29.01 66.08 27.07 C 66.78 27.06 68.18 27.05 68.88 27.04 C 68.90 27.80 68.93 29.32 68.95 30.08 C 69.73 30.07 71.29 30.07 72.07 30.07 C 72.07 29.29 72.07 27.73 72.07 26.95 C 71.33 26.95 69.83 26.93 69.08 26.93 C 69.08 26.18 69.07 24.68 69.06 23.94 C 67.07 23.93 65.07 23.94 63.08 23.94 C 63.07 23.18 63.06 21.67 63.05 20.92 C 61.01 20.92 58.97 20.93 56.93 20.93 C 56.93 21.68 56.93 23.17 56.92 23.92 C 56.18 23.93 54.69 23.94 53.94 23.95 C 53.94 24.69 53.93 26.18 53.92 26.93 C 53.18 26.93 51.68 26.94 50.94 26.94 C 50.94 29.98 50.94 33.02 50.94 36.05 C 51.69 36.06 53.19 36.08 53.94 36.09 C 53.94 38.03 53.94 39.97 53.94 41.91 C 53.19 41.91 51.70 41.93 50.95 41.94 C 50.94 42.69 50.92 44.19 50.91 44.94 C 48.92 44.93 46.94 44.92 44.95 44.92 C 44.93 45.68 44.90 47.20 44.88 47.96 C 44.18 47.95 42.77 47.93 42.07 47.92 C 42.07 43.92 42.07 39.93 42.07 35.93 C 41.30 35.93 39.74 35.93 38.96 35.93 C 38.95 36.69 38.92 38.19 38.91 38.95 C 36.92 38.94 34.93 38.94 32.94 38.94 C 32.93 39.69 32.90 41.19 32.89 41.94 C 32.19 41.94 30.80 41.94 30.10 41.95 C 30.09 41.19 30.07 39.69 30.06 38.94 C 26.07 38.94 22.08 38.94 18.08 38.94 C 18.07 38.23 18.05 36.82 18.04 36.11 C 18.80 36.09 20.32 36.06 21.07 36.04 C 21.07 35.26 21.07 33.70 21.07 32.92 C 20.29 32.92 18.73 32.92 17.94 32.92 C 17.93 33.68 17.91 35.19 17.90 35.94 C 15.92 35.94 13.93 35.93 11.95 35.93 C 11.94 36.68 11.93 38.19 11.93 38.94 C 11.18 38.94 9.68 38.95 8.93 38.95 C 8.93 44.98 8.93 51.02 8.93 57.05 C 9.68 57.07 11.20 57.09 11.96 57.11 C 11.96 57.80 11.96 59.19 11.96 59.89 C 11.20 59.91 9.69 59.94 8.94 59.96 C 8.93 60.73 8.93 62.28 8.93 63.06 C 9.68 63.07 11.19 63.08 11.94 63.09 C 11.94 65.03 11.94 66.97 11.94 68.91 C 11.19 68.92 9.68 68.93 8.93 68.94 C 8.93 73.98 8.93 79.03 8.93 84.07 C 9.72 84.07 11.28 84.07 12.06 84.07 C 12.06 82.07 12.06 80.08 12.06 78.08 C 12.81 78.07 14.32 78.06 15.07 78.05 C 15.07 77.27 15.07 75.72 15.07 74.94 C 14.32 74.93 12.81 74.92 12.05 74.91 C 12.06 72.97 12.06 71.02 12.06 69.08 C 14.01 69.07 15.96 69.07 17.90 69.06 C 17.91 69.82 17.93 71.32 17.94 72.07 C 19.94 72.07 21.94 72.07 23.93 72.08 C 23.93 74.03 23.93 75.98 23.93 77.93 C 23.23 77.94 21.82 77.96 21.12 77.97 C 21.10 77.21 21.07 75.69 21.05 74.93 C 20.27 74.93 18.71 74.93 17.93 74.94 C 17.93 76.98 17.92 79.03 17.92 81.07 C 20.92 81.07 23.92 81.07 26.91 81.06 C 26.92 81.81 26.95 83.30 26.96 84.04 C 27.71 84.07 29.22 84.11 29.97 84.13 C 29.95 84.83 29.92 86.23 29.91 86.93 C 27.97 86.93 26.03 86.93 24.09 86.94 C 24.08 86.19 24.05 84.68 24.04 83.93 C 23.27 83.93 21.72 83.93 20.94 83.93 C 20.93 84.68 20.91 86.18 20.90 86.94 C 18.92 86.93 16.93 86.93 14.94 86.93 C 14.93 87.68 14.92 89.20 14.91 89.95 C 14.20 89.95 12.80 89.96 12.10 89.96 C 12.08 89.21 12.05 87.69 12.04 86.94 C 11.26 86.93 9.70 86.93 8.92 86.92 C 8.92 87.70 8.92 89.26 8.92 90.04 C 9.68 90.05 11.21 90.08 11.97 90.10 C 11.96 90.80 11.95 92.20 11.94 92.91 C 11.19 92.92 9.68 92.93 8.92 92.94 C 8.93 93.73 8.93 95.29 8.94 96.07 C 11.98 96.07 15.02 96.07 18.06 96.07 C 18.07 95.32 18.09 93.81 18.09 93.06 C 20.03 93.06 21.97 93.06 23.91 93.06 C 23.92 93.81 23.94 95.32 23.95 96.07 C 25.98 96.07 28.02 96.07 30.06 96.07 C 30.07 95.32 30.09 93.81 30.10 93.06 C 32.09 93.06 34.08 93.07 36.07 93.07 C 36.07 91.03 36.07 88.99 36.07 86.96 C 35.31 86.94 33.81 86.91 33.06 86.89 C 33.06 86.20 33.06 84.80 33.06 84.11 C 33.81 84.09 35.31 84.07 36.07 84.05 C 36.07 81.06 36.07 78.07 36.06 75.08 C 36.81 75.08 38.32 75.07 39.07 75.06 C 39.07 74.28 39.06 72.71 39.06 71.93 C 38.28 71.93 36.73 71.93 35.96 71.93 C 35.94 72.69 35.90 74.22 35.88 74.98 C 35.18 74.96 33.78 74.93 33.08 74.91 C 33.07 72.91 33.07 70.92 33.07 68.92 C 31.03 68.92 28.99 68.92 26.95 68.92 C 26.94 69.68 26.92 71.18 26.92 71.94 C 26.21 71.94 24.80 71.95 24.10 71.95 C 24.08 71.20 24.05 69.70 24.04 68.95 C 23.30 68.94 21.81 68.91 21.07 68.89 C 21.07 68.20 21.05 66.80 21.05 66.11 C 21.80 66.09 23.31 66.06 24.06 66.04 C 24.06 63.05 24.06 60.07 24.06 57.09 C 24.77 57.07 26.18 57.05 26.89 57.04 C 26.91 57.80 26.95 59.31 26.97 60.07 C 27.74 60.07 29.30 60.07 30.07 60.07 C 30.07 59.29 30.07 57.73 30.07 56.95 C 29.32 56.93 27.80 56.90 27.04 56.88 C 27.05 56.18 27.07 54.77 27.09 54.07 C 30.03 54.07 32.97 54.07 35.91 54.07 C 35.93 54.77 35.96 56.18 35.98 56.88 C 35.21 56.90 33.69 56.93 32.93 56.94 C 32.93 58.98 32.93 61.02 32.93 63.06 C 33.68 63.06 35.19 63.08 35.94 63.08 C 35.94 65.08 35.93 67.07 35.93 69.07 C 36.71 69.07 38.27 69.07 39.06 69.08 C 39.06 68.33 39.07 66.82 39.07 66.07 C 39.82 66.07 41.31 66.06 42.06 66.06 C 42.07 65.31 42.09 63.81 42.10 63.06 C 42.80 63.06 44.19 63.05 44.89 63.05 C 44.90 63.80 44.93 65.31 44.95 66.06 C 45.69 66.06 47.18 66.07 47.93 66.07 C 47.93 66.82 47.94 68.31 47.95 69.06 C 48.43 69.07 49.41 69.10 49.90 69.11 C 49.90 67.04 49.90 64.97 49.90 62.91 C 48.31 62.92 46.71 62.94 45.11 62.96 C 45.10 62.21 45.06 60.70 45.04 59.95 C 44.30 59.94 42.80 59.91 42.05 59.90 C 42.07 56.95 42.07 54.00 42.08 51.06 C 42.79 51.06 44.21 51.06 44.91 51.06 C 44.92 53.07 44.92 55.07 44.93 57.08 C 45.72 57.07 47.29 57.07 48.08 57.07 C 48.07 55.14 48.05 53.22 48.03 51.29 C 50.83 50.82 53.60 50.17 56.41 49.68 C 57.29 47.47 59.96 47.58 60.64 49.88 C 63.19 49.90 65.73 49.91 68.27 49.85 C 69.18 48.56 70.59 48.02 72.05 47.63 C 72.06 46.96 72.08 45.61 72.08 44.93 C 71.30 44.93 69.73 44.92 68.95 44.92 C 68.93 45.68 68.90 47.20 68.89 47.96 C 68.18 47.95 66.77 47.93 66.07 47.91 C 66.07 44.97 66.07 42.03 66.06 39.09 C 66.77 39.07 68.17 39.04 68.87 39.02 C 68.89 39.79 68.93 41.31 68.95 42.08 C 69.73 42.07 71.28 42.07 72.06 42.07 C 72.07 41.31 72.09 39.81 72.10 39.05 C 74.04 39.06 75.98 39.06 77.92 39.06 C 77.93 39.77 77.96 41.18 77.97 41.89 C 77.21 41.90 75.69 41.93 74.93 41.95 C 74.93 43.99 74.93 46.02 74.93 48.06 C 75.63 48.05 77.02 48.04 77.72 48.04 C 78.63 51.81 78.95 55.66 79.40 59.50 C 79.77 59.82 80.52 60.46 80.90 60.78 C 80.90 61.35 80.91 62.49 80.92 63.06 C 81.68 63.07 83.20 63.09 83.96 63.10 C 83.95 63.81 83.92 65.24 83.91 65.95 C 82.30 65.93 80.69 65.91 79.09 65.88 C 79.09 66.69 79.10 68.32 79.10 69.13 C 80.75 69.10 82.40 69.07 84.05 69.05 C 84.07 68.30 84.10 66.79 84.12 66.03 C 84.82 66.04 86.22 66.07 86.93 66.08 C 86.93 68.03 86.93 69.97 86.94 71.92 C 84.93 71.92 82.92 71.93 80.91 71.93 C 80.91 73.97 80.92 76.01 80.92 78.04 C 81.68 78.06 83.19 78.09 83.95 78.10 C 83.94 78.81 83.92 80.23 83.91 80.94 C 80.98 80.92 78.04 80.88 75.11 80.84 C 75.18 80.40 75.33 79.52 75.40 79.08 C 71.11 79.12 66.82 79.12 62.53 79.08 C 62.65 79.49 62.87 80.31 62.98 80.72 C 62.27 80.75 60.86 80.80 60.15 80.83 C 60.21 80.40 60.34 79.55 60.40 79.12 C 57.73 79.05 54.99 79.41 52.38 78.69 C 49.70 77.53 50.00 74.32 49.68 71.91 C 47.10 71.92 44.51 71.93 41.93 71.93 C 41.93 72.72 41.93 74.28 41.93 75.06 C 43.93 75.07 45.93 75.07 47.93 75.08 C 47.93 75.79 47.94 77.22 47.94 77.93 C 45.94 77.94 43.93 77.94 41.92 77.94 C 41.92 80.93 41.93 83.92 41.93 86.91 C 41.18 86.92 39.68 86.93 38.93 86.94 C 38.94 87.72 38.94 89.29 38.94 90.07 C 39.72 90.07 41.27 90.06 42.05 90.06 C 42.07 89.31 42.10 87.80 42.11 87.05 C 42.81 87.06 44.22 87.07 44.92 87.08 C 44.92 89.02 44.93 90.96 44.94 92.90 C 44.19 92.91 42.69 92.94 41.94 92.95 C 41.93 93.70 41.92 95.19 41.91 95.93 C 38.91 95.92 35.92 95.92 32.93 95.93 C 32.93 96.71 32.93 98.28 32.93 99.06 C 33.68 99.07 35.18 99.08 35.93 99.08 C 35.93 99.82 35.94 101.31 35.94 102.06 C 36.72 102.06 38.27 102.07 39.05 102.07 C 39.06 101.32 39.07 99.83 39.07 99.09 C 39.81 99.08 41.30 99.07 42.04 99.06 C 42.06 98.31 42.09 96.81 42.10 96.06 C 42.80 96.06 44.19 96.05 44.89 96.05 C 44.90 96.80 44.93 98.31 44.95 99.06 C 45.70 99.07 47.21 99.10 47.97 99.11 C 47.96 99.82 47.94 101.22 47.92 101.93 C 45.93 101.93 43.93 101.93 41.93 101.94 C 41.93 102.68 41.93 104.17 41.93 104.92 C 41.18 104.92 39.69 104.94 38.94 104.94 C 38.94 105.72 38.94 107.28 38.94 108.07 C 40.94 108.07 42.93 108.08 44.93 108.08 C 44.93 108.79 44.93 110.21 44.93 110.91 C 42.93 110.92 40.94 110.92 38.94 110.93 C 38.94 111.68 38.94 113.17 38.93 113.92 C 38.18 113.93 36.68 113.94 35.93 113.95 C 35.93 115.99 35.93 118.03 35.93 120.07 C 37.98 120.07 40.02 120.07 42.07 120.07 C 42.07 118.06 42.08 116.06 42.08 114.06 C 42.79 114.06 44.21 114.06 44.92 114.07 C 44.92 116.07 44.93 118.07 44.93 120.07 C 45.71 120.07 47.28 120.07 48.07 120.07 C 48.07 116.08 48.07 112.09 48.06 108.10 C 48.81 108.09 50.31 108.06 51.06 108.05 C 51.06 107.27 51.06 105.72 51.06 104.95 C 50.31 104.94 48.81 104.92 48.06 104.91 C 48.06 104.21 48.05 102.80 48.04 102.10 C 48.80 102.09 50.31 102.06 51.06 102.04 C 51.06 100.01 51.06 97.98 51.06 95.95 C 50.31 95.93 48.81 95.91 48.06 95.90 C 48.06 93.95 48.07 92.01 48.07 90.07 C 48.78 90.06 50.19 90.04 50.90 90.03 C 50.91 90.79 50.94 92.31 50.96 93.07 C 51.70 93.07 53.19 93.07 53.93 93.08 C 53.93 93.82 53.94 95.31 53.94 96.06 C 54.69 96.07 56.18 96.08 56.93 96.09 C 56.93 98.03 56.93 99.97 56.94 101.90 C 56.19 101.92 54.68 101.94 53.93 101.95 C 53.93 102.73 53.93 104.28 53.92 105.06 C 54.67 105.06 56.17 105.07 56.92 105.07 C 56.92 105.81 56.93 107.30 56.94 108.04 C 57.69 108.06 59.20 108.09 59.95 108.11 C 59.95 108.81 59.94 110.20 59.94 110.90 C 59.18 110.91 57.68 110.93 56.92 110.94 C 56.92 112.94 56.92 114.93 56.92 116.92 C 56.22 116.93 54.82 116.96 54.11 116.97 C 54.10 116.21 54.07 114.69 54.05 113.93 C 53.27 113.93 51.71 113.93 50.93 113.93 C 50.94 115.97 50.94 118.02 50.94 120.07 C 52.98 120.07 55.01 120.07 57.05 120.07 C 57.07 119.31 57.09 117.81 57.11 117.05 C 57.80 117.05 59.19 117.04 59.88 117.04 C 59.90 117.79 59.94 119.31 59.96 120.07 C 60.73 120.07 62.28 120.07 63.05 120.07 C 63.05 119.32 63.06 117.83 63.07 117.08 C 63.81 117.07 65.31 117.05 66.06 117.04 C 66.06 116.30 66.07 114.82 66.07 114.08 C 66.82 114.07 68.32 114.06 69.07 114.06 C 69.07 112.06 69.08 110.06 69.08 108.07 C 69.79 108.07 71.21 108.07 71.92 108.07 C 71.92 111.02 71.93 113.97 71.93 116.92 C 71.18 116.92 69.68 116.94 68.93 116.95 C 68.93 117.73 68.93 119.29 68.93 120.07 C 70.97 120.07 73.02 120.07 75.07 120.07 C 75.07 116.03 75.07 111.99 75.07 107.95 C 74.31 107.93 72.79 107.90 72.03 107.88 C 72.05 107.17 72.08 105.77 72.09 105.07 C 75.03 105.07 77.98 105.07 80.92 105.07 C 80.93 105.77 80.96 107.18 80.97 107.88 C 80.21 107.90 78.70 107.93 77.94 107.95 C 77.94 108.73 77.94 110.30 77.94 111.08 C 78.72 111.08 80.27 111.08 81.05 111.08 C 81.06 110.32 81.09 108.80 81.11 108.04 C 81.81 108.05 83.22 108.07 83.92 108.09 C 83.92 110.03 83.92 111.98 83.93 113.93 C 81.93 113.93 79.93 113.93 77.94 113.93 C 77.94 114.72 77.93 116.28 77.93 117.06 C 79.92 117.06 81.91 117.06 83.89 117.05 C 83.91 117.81 83.94 119.31 83.95 120.07 C 85.98 120.07 88.01 120.07 90.04 120.07 C 90.05 119.31 90.08 117.80 90.10 117.04 C 90.80 117.05 92.20 117.05 92.90 117.06 C 92.91 117.81 92.94 119.31 92.96 120.07 C 95.99 120.07 99.02 120.07 102.06 120.07 C 102.06 119.28 102.06 117.72 102.06 116.94 C 100.07 116.94 98.09 116.94 96.10 116.95 C 96.09 116.19 96.07 114.69 96.05 113.93 C 94.02 113.93 91.99 113.93 89.96 113.93 C 89.95 114.69 89.91 116.21 89.90 116.97 C 89.19 116.96 87.78 116.93 87.07 116.92 C 87.07 112.98 87.07 109.03 87.06 105.09 C 87.80 105.08 89.30 105.06 90.04 105.05 C 90.06 104.29 90.09 102.78 90.11 102.02 C 90.81 102.04 92.23 102.07 92.93 102.08 C 92.93 105.08 92.93 108.08 92.93 111.08 C 94.97 111.07 97.01 111.07 99.05 111.08 C 99.07 110.32 99.09 108.81 99.11 108.06 C 99.80 108.06 101.20 108.06 101.90 108.06 C 101.91 108.81 101.94 110.31 101.96 111.07 C 102.70 111.07 104.19 111.08 104.93 111.09 C 104.93 111.83 104.94 113.31 104.94 114.05 C 105.69 114.06 107.19 114.09 107.94 114.10 C 107.94 114.80 107.94 116.21 107.94 116.91 C 107.19 116.92 105.69 116.94 104.93 116.95 C 104.93 117.73 104.94 119.29 104.94 120.07 C 105.72 120.07 107.28 120.07 108.06 120.07 C 108.07 119.32 108.08 117.81 108.08 117.06 C 108.83 117.06 110.32 117.06 111.06 117.06 C 111.07 116.31 111.08 114.82 111.09 114.08 C 111.83 114.07 113.31 114.06 114.05 114.06 C 114.06 113.31 114.09 111.81 114.10 111.06 C 114.80 111.06 116.20 111.06 116.90 111.05 C 116.91 111.81 116.94 113.31 116.95 114.07 C 117.73 114.07 119.29 114.07 120.07 114.07 C 120.07 112.02 120.07 109.98 120.07 107.94 C 119.32 107.93 117.82 107.92 117.07 107.91 C 117.06 107.17 117.06 105.69 117.06 104.96 C 116.30 104.94 114.79 104.91 114.04 104.89 C 114.05 104.18 114.07 102.78 114.08 102.07 C 116.07 102.06 118.07 102.06 120.07 102.06 C 120.07 100.02 120.07 97.98 120.07 95.95 C 119.31 95.93 117.81 95.91 117.05 95.90 C 117.05 95.20 117.05 93.80 117.05 93.10 C 117.80 93.09 119.31 93.06 120.07 93.05 C 120.07 89.02 120.07 84.99 120.07 80.96 C 119.31 80.94 117.79 80.90 117.04 80.88 C 117.04 80.18 117.05 78.79 117.06 78.09 C 117.81 78.08 119.32 78.05 120.07 78.04 C 120.07 77.27 120.07 75.73 120.07 74.95 C 119.31 74.94 117.81 74.92 117.06 74.90 C 117.06 72.97 117.06 71.04 117.05 69.10 C 117.81 69.09 119.31 69.06 120.07 69.05 C 120.07 66.01 120.07 62.97 120.07 59.93 C 119.29 59.93 117.74 59.93 116.97 59.93 C 116.95 60.69 116.91 62.21 116.89 62.96 C 116.19 62.95 114.78 62.93 114.07 62.92 C 114.07 60.98 114.06 59.04 114.06 57.10 C 114.81 57.09 116.31 57.07 117.06 57.06 C 117.06 56.31 117.07 54.82 117.07 54.07 C 117.82 54.07 119.32 54.06 120.07 54.06 C 120.07 47.01 120.07 39.97 120.07 32.93 C 118.03 32.93 115.99 32.93 113.95 32.93 C 113.94 33.68 113.92 35.18 113.90 35.94 C 113.21 35.94 111.81 35.95 111.11 35.96 C 111.10 35.20 111.07 33.68 111.05 32.92 C 108.01 32.92 104.98 32.93 101.94 32.93 C 101.94 33.68 101.93 35.17 101.93 35.92 C 101.18 35.93 99.68 35.94 98.93 35.95 C 98.93 37.99 98.92 40.03 98.93 42.07 C 99.71 42.07 101.28 42.07 102.07 42.07 C 102.06 40.07 102.06 38.07 102.06 36.07 C 105.02 36.07 107.97 36.07 110.93 36.07 C 110.93 36.79 110.93 38.21 110.93 38.93 C 108.93 38.93 106.93 38.94 104.93 38.95 C 104.93 40.99 104.93 43.03 104.93 45.08 C 105.71 45.07 107.27 45.07 108.05 45.07 C 108.07 44.32 108.09 42.82 108.10 42.07 C 110.08 42.07 112.06 42.07 114.05 42.08 C 114.06 41.32 114.09 39.80 114.11 39.03 C 114.82 39.05 116.23 39.07 116.94 39.08 C 116.94 42.03 116.94 44.97 116.94 47.92 C 116.23 47.93 114.82 47.95 114.11 47.96 C 114.09 47.20 114.06 45.68 114.04 44.92 C 113.27 44.92 111.71 44.92 110.94 44.92 C 110.93 45.67 110.92 47.17 110.92 47.93 C 110.18 47.93 108.69 47.94 107.95 47.94 C 107.93 48.70 107.90 50.21 107.88 50.97 C 107.19 50.96 105.79 50.95 105.10 50.94 C 105.08 50.19 105.06 48.70 105.05 47.95 C 104.30 47.94 102.81 47.93 102.07 47.92 C 102.06 47.17 102.05 45.67 102.05 44.92 C 101.27 44.92 99.71 44.92 98.93 44.92 C 98.92 46.93 98.92 48.93 98.92 50.94 C 96.97 50.94 95.03 50.94 93.08 50.94 C 93.07 50.23 93.04 48.82 93.03 48.12 C 93.79 48.10 95.31 48.06 96.07 48.04 C 96.07 47.27 96.07 45.72 96.07 44.95 C 95.32 44.93 93.82 44.91 93.07 44.89 C 93.06 44.20 93.05 42.81 93.04 42.11 C 93.80 42.10 95.32 42.06 96.07 42.04 C 96.07 41.27 96.07 39.72 96.07 38.95 C 95.29 38.94 93.72 38.94 92.94 38.94 C 92.93 39.69 92.92 41.18 92.92 41.93 C 92.17 41.93 90.69 41.93 89.94 41.93 C 89.94 44.94 89.94 47.94 89.93 50.94 C 89.22 50.94 87.79 50.94 87.08 50.94 C 87.07 47.94 87.07 44.94 87.07 41.95 C 86.31 41.93 84.80 41.90 84.04 41.88 C 84.05 41.18 84.07 39.77 84.08 39.06 C 86.07 39.06 88.06 39.06 90.05 39.06 C 90.05 38.31 90.06 36.82 90.07 36.07 C 90.82 36.07 92.31 36.06 93.06 36.06 C 93.07 35.27 93.07 33.71 93.08 32.92 C 92.30 32.92 90.74 32.92 89.96 32.92 C 89.95 33.68 89.92 35.20 89.90 35.96 C 89.20 35.95 87.80 35.95 87.10 35.94 C 87.09 35.19 87.06 33.69 87.05 32.93 C 86.31 32.93 84.81 32.91 84.07 32.91 C 84.07 30.92 84.07 28.93 84.08 26.94 C 83.29 26.94 81.73 26.93 80.95 26.93 C 80.93 27.69 80.90 29.20 80.88 29.96 C 80.18 29.95 78.77 29.92 78.06 29.91 C 78.06 27.96 78.06 26.02 78.06 24.07 C 81.02 24.07 83.97 24.07 86.93 24.07 C 86.93 26.07 86.93 28.07 86.93 30.07 C 87.71 30.07 89.26 30.07 90.04 30.07 C 90.06 29.32 90.08 27.81 90.09 27.05 C 90.80 27.05 92.20 27.05 92.90 27.05 C 92.91 27.81 92.94 29.32 92.95 30.08 C 93.73 30.07 95.29 30.07 96.07 30.07 C 96.08 25.03 96.08 20.00 96.07 14.96 C 95.32 14.95 93.81 14.92 93.06 14.90 C 93.06 12.91 93.07 10.91 93.07 8.92 C 91.02 8.92 88.97 8.92 86.92 8.92 C 86.93 9.70 86.93 11.26 86.94 12.04 C 87.69 12.05 89.20 12.08 89.95 12.10 C 89.95 12.80 89.96 14.20 89.96 14.89 C 89.20 14.91 87.68 14.94 86.93 14.96 C 86.93 15.73 86.93 17.28 86.93 18.06 C 87.68 18.07 89.19 18.09 89.95 18.10 C 89.94 20.04 89.94 21.99 89.93 23.93 C 89.23 23.94 87.81 23.95 87.10 23.96 C 87.09 23.20 87.06 21.68 87.05 20.92 C 84.06 20.92 81.08 20.93 78.09 20.93 C 78.08 20.18 78.06 18.68 78.05 17.93 C 76.06 17.93 74.07 17.92 72.08 17.92 C 72.07 17.22 72.05 15.81 72.04 15.11 C 72.80 15.09 74.31 15.06 75.07 15.05 C 75.07 13.01 75.07 10.97 75.07 8.93 C 72.02 8.93 68.98 8.93 65.93 8.93 C 65.93 10.92 65.93 12.92 65.93 14.92 C 65.23 14.93 63.82 14.96 63.11 14.97 C 63.09 14.22 63.05 12.71 63.03 11.95 C 62.29 11.95 60.82 11.94 60.08 11.93 C 60.08 11.18 60.07 9.68 60.06 8.93 C 59.28 8.93 57.71 8.93 56.92 8.92 M 98.93 8.92 C 98.92 15.97 98.92 23.02 98.93 30.07 C 105.97 30.08 113.02 30.08 120.07 30.07 C 120.07 23.02 120.07 15.98 120.07 8.93 C 113.02 8.92 105.97 8.93 98.93 8.92 M 77.94 11.94 C 77.94 12.72 77.94 14.29 77.94 15.07 C 79.98 15.07 82.03 15.07 84.07 15.07 C 84.07 14.29 84.07 12.72 84.07 11.94 C 82.03 11.94 79.98 11.94 77.94 11.94 M 32.93 17.93 C 32.92 21.98 32.92 26.03 32.93 30.08 C 33.71 30.07 35.26 30.07 36.04 30.07 C 36.06 29.31 36.10 27.79 36.11 27.03 C 36.82 27.04 38.23 27.07 38.94 27.08 C 38.94 29.08 38.94 31.08 38.94 33.08 C 40.92 33.07 42.91 33.07 44.89 33.07 C 44.91 33.81 44.94 35.31 44.95 36.06 C 45.73 36.06 47.29 36.07 48.07 36.07 C 48.07 32.02 48.07 27.98 48.07 23.93 C 47.28 23.93 45.71 23.94 44.93 23.94 C 44.93 25.93 44.92 27.92 44.92 29.91 C 44.22 29.92 42.82 29.95 42.12 29.96 C 42.10 29.21 42.07 27.71 42.05 26.96 C 41.30 26.94 39.79 26.91 39.04 26.90 C 39.04 26.20 39.05 24.80 39.05 24.10 C 39.80 24.08 41.31 24.05 42.07 24.04 C 42.07 23.26 42.07 21.70 42.07 20.92 C 40.08 20.93 38.09 20.93 36.09 20.93 C 36.08 20.18 36.06 18.68 36.05 17.93 C 35.27 17.93 33.71 17.93 32.93 17.93 M 44.93 17.93 C 44.92 18.71 44.92 20.29 44.92 21.07 C 47.97 21.07 51.02 21.07 54.08 21.07 C 54.07 20.29 54.07 18.71 54.07 17.93 C 51.02 17.93 47.97 17.93 44.93 17.93 M 26.94 32.92 C 26.94 33.71 26.94 35.28 26.94 36.07 C 27.72 36.07 29.29 36.06 30.07 36.06 C 30.07 35.28 30.07 33.71 30.08 32.92 C 29.29 32.92 27.72 32.92 26.94 32.92 M 44.92 38.93 C 44.92 39.72 44.92 41.29 44.92 42.08 C 45.71 42.08 47.28 42.07 48.07 42.07 C 48.07 41.29 48.07 39.73 48.07 38.95 C 47.28 38.95 45.71 38.93 44.92 38.93 M 51.49 65.67 C 52.06 65.23 53.20 64.37 53.78 63.94 C 55.83 64.39 57.91 64.73 60.00 65.00 C 60.05 64.34 60.16 63.01 60.22 62.34 C 57.64 62.26 55.06 62.13 52.51 61.71 C 52.15 63.02 51.81 64.34 51.49 65.67 M 60.75 61.67 C 60.72 62.70 60.67 64.76 60.65 65.79 C 61.07 65.35 61.92 64.49 62.34 64.05 C 62.76 64.47 63.59 65.30 64.01 65.72 C 64.13 64.89 64.37 63.25 64.50 62.42 C 63.24 62.18 61.99 61.93 60.75 61.67 M 66.30 64.58 C 67.61 64.42 67.70 62.03 66.38 61.80 C 64.99 61.90 65.08 64.27 66.30 64.58 M 68.46 62.46 C 67.58 63.68 67.83 64.37 69.21 64.53 C 70.11 63.33 69.86 62.64 68.46 62.46 M 70.90 64.36 C 71.71 64.98 73.08 64.84 73.87 64.24 C 73.86 63.82 73.83 63.00 73.81 62.59 C 72.70 61.79 70.63 63.01 70.90 64.36 M 74.56 61.86 C 74.60 63.55 74.63 65.25 74.66 66.94 C 75.33 66.90 76.66 66.81 77.33 66.77 C 77.32 65.07 77.31 63.37 77.31 61.66 C 76.62 61.71 75.24 61.81 74.56 61.86 M 26.93 62.93 C 26.93 63.71 26.93 65.28 26.93 66.07 C 27.72 66.07 29.29 66.07 30.07 66.07 C 30.07 65.29 30.07 63.72 30.07 62.94 C 29.29 62.94 27.72 62.93 26.93 62.93 M 8.93 98.93 C 8.94 105.97 8.93 113.02 8.93 120.07 C 15.98 120.07 23.02 120.07 30.07 120.07 C 30.08 113.02 30.07 105.98 30.07 98.93 C 23.02 98.92 15.98 98.92 8.93 98.93 M 32.93 107.93 C 32.93 108.72 32.93 110.30 32.92 111.08 C 33.71 111.08 35.28 111.07 36.07 111.07 C 36.07 110.28 36.07 108.71 36.07 107.92 C 35.28 107.93 33.71 107.93 32.93 107.93 M 113.93 116.94 C 113.93 117.72 113.93 119.29 113.93 120.07 C 115.98 120.07 118.02 120.07 120.07 120.07 C 120.07 119.29 120.07 117.72 120.07 116.94 C 118.02 116.94 115.98 116.94 113.93 116.94 Z" />
<path fill="#ffffff" opacity="1.00" d=" M 12.06 12.06 C 17.02 12.06 21.98 12.06 26.94 12.06 C 26.94 17.02 26.94 21.98 26.93 26.93 C 21.98 26.94 17.02 26.94 12.06 26.94 C 12.06 21.98 12.06 17.02 12.06 12.06 M 14.93 14.93 C 14.93 17.98 14.93 21.02 14.93 24.06 C 17.98 24.07 21.02 24.07 24.06 24.06 C 24.06 21.02 24.06 17.98 24.06 14.93 C 21.02 14.93 17.97 14.93 14.93 14.93 Z" />
<path fill="#ffffff" opacity="1.00" d=" M 102.06 12.06 C 107.02 12.06 111.98 12.06 116.94 12.06 C 116.94 17.02 116.94 21.97 116.94 26.93 C 111.98 26.94 107.02 26.94 102.07 26.94 C 102.06 21.98 102.06 17.02 102.06 12.06 M 104.93 14.93 C 104.94 17.98 104.94 21.02 104.94 24.06 C 107.98 24.07 111.02 24.07 114.07 24.06 C 114.07 21.02 114.07 17.98 114.07 14.93 C 111.02 14.93 107.98 14.93 104.93 14.93 Z" />
<path fill="#ffffff" opacity="1.00" d=" M 66.37 15.44 C 66.91 15.42 68.00 15.40 68.54 15.39 C 68.55 15.93 68.58 17.02 68.59 17.57 C 68.04 17.58 66.96 17.59 66.41 17.60 C 66.40 17.06 66.38 15.98 66.37 15.44 Z" />
<path fill="#ffffff" opacity="1.00" d=" M 57.06 24.08 C 57.77 24.07 59.20 24.06 59.91 24.05 C 59.92 24.77 59.93 26.21 59.94 26.93 C 59.22 26.93 57.80 26.94 57.09 26.94 C 57.08 26.23 57.07 24.80 57.06 24.08 Z" />
<path fill="#ffffff" opacity="1.00" d=" M 54.35 27.47 C 54.89 27.44 55.97 27.37 56.51 27.34 C 56.54 27.88 56.62 28.96 56.66 29.50 C 56.11 29.54 55.03 29.61 54.49 29.65 C 54.45 29.10 54.38 28.02 54.35 27.47 Z" />
<path fill="#ffffff" opacity="1.00" d=" M 60.06 27.07 C 60.77 27.07 62.20 27.07 62.92 27.06 C 62.92 27.78 62.94 29.20 62.95 29.91 C 62.23 29.92 60.80 29.93 60.09 29.94 C 60.08 29.22 60.07 27.79 60.06 27.07 Z" />
<path fill="#ffffff" opacity="1.00" d=" M 54.32 33.53 C 54.86 33.48 55.95 33.39 56.49 33.34 C 56.53 33.88 56.62 34.97 56.67 35.51 C 56.13 35.55 55.05 35.64 54.51 35.69 C 54.46 35.15 54.37 34.07 54.32 33.53 Z" />
<path fill="#ffffff" opacity="1.00" d=" M 57.08 36.06 C 57.79 36.06 59.21 36.06 59.92 36.07 C 59.92 38.06 59.93 40.05 59.93 42.04 C 60.69 42.06 62.21 42.10 62.97 42.12 C 62.96 42.82 62.93 44.22 62.92 44.92 C 60.97 44.92 59.02 44.92 57.08 44.93 C 57.08 41.97 57.08 39.01 57.08 36.06 Z" />
<path fill="#ffffff" opacity="1.00" d=" M 63.05 36.09 C 63.77 36.08 65.21 36.07 65.93 36.06 C 65.93 36.78 65.93 38.22 65.93 38.94 C 65.22 38.94 63.79 38.94 63.08 38.94 C 63.07 38.23 63.05 36.80 63.05 36.09 Z" />
<path fill="#ffffff" opacity="1.00" d=" M 81.08 36.05 C 81.80 36.06 83.23 36.08 83.94 36.08 C 83.93 36.80 83.91 38.24 83.90 38.96 C 83.19 38.95 81.77 38.92 81.06 38.91 C 81.06 38.20 81.07 36.77 81.08 36.05 Z" />
<path fill="#ffffff" opacity="1.00" d=" M 15.09 42.06 C 15.80 42.06 17.22 42.08 17.93 42.09 C 17.93 42.80 17.92 44.22 17.92 44.93 C 17.20 44.93 15.77 44.91 15.05 44.90 C 15.06 44.19 15.08 42.77 15.09 42.06 Z" />
<path fill="#ffffff" opacity="1.00" d=" M 21.08 42.09 C 21.78 42.07 23.18 42.05 23.89 42.03 C 23.90 42.79 23.94 44.29 23.96 45.05 C 24.71 45.06 26.21 45.10 26.95 45.11 C 26.96 45.81 26.96 47.19 26.96 47.89 C 26.21 47.91 24.71 47.94 23.95 47.96 C 23.94 48.71 23.92 50.20 23.90 50.95 C 21.96 50.94 20.02 50.94 18.09 50.93 C 18.07 50.23 18.05 48.82 18.04 48.12 C 18.80 48.10 20.31 48.06 21.07 48.04 C 21.07 46.06 21.07 44.07 21.08 42.09 Z" />
<path fill="#ffffff" opacity="1.00" d=" M 27.39 42.44 C 27.93 42.43 29.02 42.40 29.56 42.38 C 29.58 42.92 29.61 44.01 29.62 44.55 C 29.08 44.57 28.00 44.60 27.45 44.61 C 27.44 44.07 27.40 42.98 27.39 42.44 Z" />
<path fill="#ffffff" opacity="1.00" d=" M 81.34 42.49 C 81.88 42.45 82.96 42.37 83.50 42.33 C 83.54 42.87 83.62 43.96 83.66 44.50 C 83.12 44.54 82.04 44.62 81.50 44.66 C 81.46 44.12 81.38 43.03 81.34 42.49 Z" />
<path fill="#ffffff" opacity="1.00" d=" M 51.06 45.08 C 51.78 45.08 53.21 45.08 53.93 45.07 C 53.93 45.79 53.93 47.22 53.93 47.93 C 53.21 47.93 51.78 47.93 51.07 47.93 C 51.06 47.22 51.06 45.79 51.06 45.08 Z" />
<path fill="#ffffff" opacity="1.00" d=" M 78.05 45.08 C 78.77 45.08 80.21 45.07 80.93 45.07 C 80.93 45.78 80.93 47.21 80.94 47.92 C 80.22 47.92 78.79 47.94 78.08 47.94 C 78.07 47.23 78.06 45.80 78.05 45.08 Z" />
<path fill="#ffffff" opacity="1.00" d=" M 12.07 48.06 C 12.78 48.06 14.21 48.06 14.92 48.07 C 14.93 50.06 14.93 52.06 14.94 54.06 C 15.69 54.07 17.18 54.09 17.93 54.10 C 17.93 56.08 17.93 58.06 17.93 60.05 C 18.68 60.06 20.18 60.09 20.94 60.10 C 20.93 62.04 20.93 63.98 20.92 65.92 C 20.22 65.93 18.82 65.96 18.12 65.97 C 18.10 65.22 18.07 63.71 18.05 62.96 C 17.30 62.95 15.81 62.92 15.06 62.90 C 15.06 60.91 15.07 58.92 15.07 56.94 C 14.31 56.93 12.80 56.91 12.05 56.91 C 12.06 53.96 12.06 51.01 12.07 48.06 Z" />
<path fill="#ffffff" opacity="1.00" d=" M 27.05 48.08 C 31.01 48.07 34.97 48.07 38.94 48.07 C 38.94 50.02 38.94 51.96 38.94 53.91 C 38.23 53.93 36.82 53.96 36.12 53.98 C 36.10 53.22 36.06 51.70 36.04 50.94 C 33.05 50.94 30.06 50.94 27.07 50.93 C 27.07 50.22 27.06 48.79 27.05 48.08 Z" />
<path fill="#ffffff" opacity="1.00" d=" M 45.07 48.07 C 45.78 48.07 47.21 48.07 47.92 48.07 C 47.93 48.78 47.93 50.22 47.94 50.94 C 47.22 50.94 45.80 50.94 45.08 50.94 C 45.08 50.22 45.07 48.79 45.07 48.07 Z" />
<path fill="#ffffff" opacity="1.00" d=" M 111.08 48.07 C 111.79 48.07 113.22 48.07 113.93 48.07 C 113.93 48.79 113.93 50.22 113.93 50.94 C 113.22 50.94 111.79 50.94 111.07 50.94 C 111.07 50.22 111.08 48.78 111.08 48.07 Z" />
<path fill="#ffffff" opacity="1.00" d=" M 90.06 51.07 C 90.78 51.07 92.21 51.06 92.92 51.06 C 92.93 51.77 92.93 53.21 92.93 53.92 C 92.22 53.92 90.79 53.93 90.07 53.94 C 90.07 53.22 90.06 51.79 90.06 51.07 Z" />
<path fill="#ffffff" opacity="1.00" d=" M 102.08 51.05 C 102.80 51.06 104.23 51.07 104.95 51.08 C 104.94 51.80 104.92 53.23 104.90 53.95 C 104.19 53.94 102.77 53.93 102.06 53.92 C 102.07 53.20 102.08 51.77 102.08 51.05 Z" />
<path fill="#ffffff" opacity="1.00" d=" M 108.08 51.07 C 108.78 51.06 110.18 51.04 110.88 51.03 C 110.90 51.79 110.93 53.29 110.95 54.05 C 111.71 54.07 113.22 54.10 113.98 54.12 C 113.96 54.82 113.93 56.22 113.91 56.93 C 111.96 56.92 110.02 56.92 108.07 56.93 C 108.07 54.97 108.07 53.02 108.08 51.07 Z" />
<path fill="#ffffff" opacity="1.00" d=" M 114.06 51.08 C 114.77 51.07 116.21 51.06 116.93 51.06 C 116.93 51.77 116.94 53.20 116.94 53.92 C 116.23 53.92 114.79 53.93 114.08 53.94 C 114.07 53.22 114.06 51.79 114.06 51.08 Z" />
<path fill="#ffffff" opacity="1.00" d=" M 81.09 54.05 C 81.80 54.06 83.23 54.08 83.94 54.09 C 83.93 54.80 83.92 56.23 83.91 56.94 C 83.20 56.94 81.78 56.92 81.07 56.91 C 81.07 56.19 81.08 54.77 81.09 54.05 Z" />
<path fill="#ffffff" opacity="1.00" d=" M 93.07 54.07 C 96.03 54.07 98.98 54.07 101.94 54.07 C 101.94 54.78 101.94 56.21 101.94 56.92 C 99.94 56.92 97.94 56.93 95.95 56.93 C 95.93 57.69 95.90 59.20 95.88 59.96 C 95.18 59.95 93.77 59.93 93.07 59.92 C 93.07 57.97 93.07 56.02 93.07 54.07 Z" />
<path fill="#ffffff" opacity="1.00" d=" M 36.06 57.08 C 36.78 57.07 38.21 57.07 38.93 57.07 C 38.93 59.02 38.93 60.98 38.94 62.93 C 38.22 62.94 36.79 62.94 36.08 62.95 C 36.07 60.99 36.07 59.03 36.06 57.08 Z" />
<path fill="#ffffff" opacity="1.00" d=" M 84.07 57.08 C 86.02 57.08 87.98 57.08 89.94 57.08 C 89.94 57.79 89.95 59.21 89.95 59.92 C 87.99 59.92 86.03 59.92 84.07 59.92 C 84.07 59.21 84.07 57.79 84.07 57.08 Z" />
<path fill="#ffffff" opacity="1.00" d=" M 102.06 57.07 C 104.01 57.07 105.96 57.07 107.91 57.07 C 107.93 57.78 107.95 59.18 107.97 59.88 C 107.21 59.90 105.70 59.94 104.94 59.96 C 104.94 60.73 104.93 62.27 104.93 63.04 C 105.69 63.06 107.20 63.09 107.96 63.11 C 107.95 63.82 107.93 65.23 107.92 65.93 C 103.97 65.93 100.02 65.93 96.07 65.93 C 96.07 65.21 96.07 63.79 96.07 63.08 C 98.06 63.07 100.06 63.07 102.06 63.06 C 102.06 61.07 102.06 59.07 102.06 57.07 Z" />
<path fill="#ffffff" opacity="1.00" d=" M 90.10 60.04 C 90.81 60.05 92.22 60.07 92.93 60.08 C 92.93 62.07 92.93 64.06 92.93 66.04 C 93.69 66.06 95.21 66.09 95.96 66.11 C 95.95 66.81 95.93 68.22 95.91 68.92 C 93.97 68.92 92.03 68.93 90.09 68.94 C 90.08 68.19 90.06 66.70 90.04 65.95 C 89.30 65.94 87.80 65.91 87.06 65.90 C 87.05 65.20 87.05 63.80 87.05 63.11 C 87.80 63.09 89.29 63.06 90.04 63.05 C 90.05 62.30 90.08 60.79 90.10 60.04 Z" />
<path fill="#ffffff" opacity="1.00" d=" M 108.08 66.07 C 108.78 66.07 110.19 66.05 110.89 66.04 C 110.90 66.79 110.93 68.30 110.94 69.05 C 111.69 69.07 113.20 69.09 113.95 69.11 C 113.95 69.80 113.95 71.19 113.95 71.89 C 113.20 71.91 111.70 71.94 110.95 71.95 C 110.93 72.70 110.91 74.19 110.90 74.94 C 107.95 74.93 105.00 74.93 102.06 74.92 C 102.06 74.21 102.06 72.79 102.06 72.08 C 104.06 72.08 106.07 72.07 108.07 72.06 C 108.07 70.07 108.07 68.07 108.08 66.07 Z" />
<path fill="#ffffff" opacity="1.00" d=" M 114.46 66.39 C 115.00 66.40 116.09 66.44 116.63 66.46 C 116.61 67.00 116.57 68.09 116.55 68.63 C 116.01 68.61 114.93 68.58 114.39 68.56 C 114.40 68.01 114.44 66.93 114.46 66.39 Z" />
<path fill="#ffffff" opacity="1.00" d=" M 96.07 69.08 C 96.78 69.08 98.20 69.08 98.91 69.07 C 98.92 69.79 98.93 71.21 98.94 71.92 C 98.22 71.92 96.79 71.93 96.08 71.93 C 96.08 71.22 96.07 69.79 96.07 69.08 Z" />
<path fill="#ffffff" opacity="1.00" d=" M 27.06 72.07 C 27.78 72.07 29.21 72.08 29.92 72.08 C 29.93 72.79 29.93 74.22 29.93 74.93 C 29.21 74.93 27.78 74.92 27.07 74.92 C 27.07 74.21 27.07 72.78 27.06 72.07 Z" />
<path fill="#ffffff" opacity="1.00" d=" M 87.08 72.07 C 90.03 72.07 92.97 72.07 95.91 72.07 C 95.93 72.78 95.95 74.19 95.96 74.89 C 95.20 74.91 93.68 74.94 92.92 74.95 C 92.93 76.93 92.93 78.91 92.94 80.90 C 92.19 80.91 90.69 80.93 89.94 80.94 C 89.94 81.72 89.94 83.28 89.94 84.06 C 90.69 84.07 92.19 84.09 92.94 84.10 C 92.93 87.04 92.93 89.98 92.92 92.93 C 92.21 92.93 90.78 92.93 90.07 92.93 C 90.06 90.93 90.06 88.93 90.06 86.93 C 89.28 86.93 87.73 86.93 86.95 86.92 C 86.93 87.69 86.90 89.21 86.88 89.98 C 86.18 89.96 84.78 89.94 84.08 89.92 C 84.07 87.98 84.07 86.04 84.06 84.10 C 84.81 84.09 86.32 84.06 87.07 84.05 C 87.07 82.06 87.06 80.08 87.06 78.09 C 87.81 78.08 89.31 78.05 90.06 78.04 C 90.06 77.27 90.07 75.73 90.07 74.96 C 89.31 74.94 87.79 74.90 87.03 74.88 C 87.04 74.18 87.07 72.77 87.08 72.07 Z" />
<path fill="#ffffff" opacity="1.00" d=" M 30.13 75.03 C 30.82 75.05 32.22 75.07 32.92 75.08 C 32.92 77.03 32.92 78.98 32.92 80.92 C 30.98 80.92 29.03 80.93 27.09 80.93 C 27.07 80.22 27.05 78.81 27.04 78.11 C 27.79 78.09 29.30 78.05 30.05 78.03 C 30.07 77.28 30.11 75.78 30.13 75.03 Z" />
<path fill="#ffffff" opacity="1.00" d=" M 96.06 75.08 C 96.77 75.08 98.19 75.06 98.90 75.05 C 98.91 75.77 98.94 77.20 98.95 77.92 C 98.23 77.93 96.81 77.95 96.09 77.96 C 96.08 77.24 96.07 75.80 96.06 75.08 Z" />
<path fill="#ffffff" opacity="1.00" d=" M 48.10 78.05 C 48.78 78.05 50.15 78.06 50.84 78.06 C 50.87 78.81 50.93 80.31 50.97 81.05 C 51.71 81.07 53.20 81.09 53.94 81.11 C 53.93 83.04 53.93 84.98 53.93 86.92 C 53.22 86.93 51.81 86.95 51.11 86.95 C 51.09 86.20 51.05 84.69 51.03 83.93 C 49.05 83.93 47.07 83.92 45.08 83.92 C 45.07 83.22 45.05 81.82 45.04 81.12 C 45.79 81.10 47.30 81.06 48.05 81.04 C 48.06 80.29 48.09 78.79 48.10 78.05 Z" />
<path fill="#ffffff" opacity="1.00" d=" M 99.07 78.07 C 101.02 78.07 102.97 78.06 104.92 78.06 C 104.93 78.77 104.94 80.20 104.94 80.92 C 102.98 80.92 101.03 80.92 99.07 80.92 C 99.07 80.21 99.07 78.78 99.07 78.07 Z" />
<path fill="#ffffff" opacity="1.00" d=" M 108.08 78.07 C 110.02 78.06 111.96 78.06 113.91 78.05 C 113.91 78.80 113.93 80.30 113.94 81.05 C 114.69 81.06 116.20 81.09 116.95 81.10 C 116.94 85.04 116.94 88.98 116.93 92.93 C 112.98 92.93 109.03 92.93 105.07 92.92 C 105.07 92.21 105.06 90.78 105.06 90.07 C 108.06 90.06 111.06 90.06 114.07 90.06 C 114.07 89.28 114.07 87.72 114.08 86.93 C 111.08 86.93 108.08 86.93 105.09 86.93 C 105.07 86.23 105.04 84.82 105.03 84.12 C 105.79 84.10 107.31 84.06 108.07 84.04 C 108.07 82.05 108.07 80.06 108.08 78.07 Z" />
<path fill="#ffffff" opacity="1.00" d=" M 57.08 81.09 C 57.79 81.09 59.21 81.09 59.92 81.09 C 59.92 83.04 59.92 84.98 59.92 86.93 C 59.21 86.93 57.79 86.93 57.08 86.93 C 57.08 84.99 57.08 83.04 57.08 81.09 Z" />
<path fill="#ffffff" opacity="1.00" d=" M 63.08 81.09 C 67.03 81.10 70.98 81.10 74.92 81.09 C 74.93 81.79 74.96 83.18 74.97 83.88 C 74.22 83.90 72.71 83.94 71.95 83.96 C 71.94 84.70 71.92 86.19 71.90 86.94 C 69.96 86.94 68.03 86.94 66.09 86.94 C 66.08 86.20 66.06 84.71 66.05 83.96 C 65.29 83.94 63.77 83.90 63.01 83.87 C 63.03 83.18 63.07 81.79 63.08 81.09 Z" />
<path fill="#ffffff" opacity="1.00" d=" M 93.07 81.07 C 93.79 81.07 95.21 81.07 95.92 81.07 C 95.92 81.78 95.92 83.21 95.93 83.93 C 95.21 83.93 93.78 83.92 93.06 83.92 C 93.07 83.21 93.07 81.78 93.07 81.07 Z" />
<path fill="#ffffff" opacity="1.00" d=" M 30.50 87.34 C 31.04 87.38 32.12 87.47 32.66 87.51 C 32.62 88.06 32.53 89.14 32.48 89.68 C 31.94 89.64 30.86 89.55 30.32 89.50 C 30.37 88.96 30.46 87.88 30.50 87.34 Z" />
<path fill="#ffffff" opacity="1.00" d=" M 54.07 87.08 C 54.79 87.08 56.21 87.07 56.92 87.07 C 56.92 89.02 56.92 90.97 56.92 92.93 C 56.21 92.93 54.78 92.93 54.07 92.93 C 54.07 90.98 54.07 89.03 54.07 87.08 Z" />
<path fill="#ffffff" opacity="1.00" d=" M 63.39 87.46 C 63.93 87.45 65.02 87.42 65.56 87.40 C 65.58 87.94 65.61 89.03 65.63 89.57 C 65.09 89.59 64.00 89.62 63.46 89.64 C 63.44 89.09 63.41 88.01 63.39 87.46 Z" />
<path fill="#ffffff" opacity="1.00" d=" M 72.11 87.05 C 72.80 87.05 74.20 87.06 74.90 87.06 C 74.91 87.81 74.93 89.31 74.95 90.06 C 75.72 90.06 77.27 90.07 78.04 90.07 C 78.06 89.31 78.09 87.80 78.11 87.04 C 78.81 87.05 80.22 87.08 80.93 87.09 C 80.92 89.03 80.92 90.98 80.92 92.93 C 78.93 92.93 76.94 92.93 74.95 92.93 C 74.93 93.68 74.91 95.19 74.90 95.95 C 74.20 95.95 72.80 95.94 72.10 95.94 C 72.09 95.19 72.07 93.70 72.05 92.95 C 71.31 92.94 69.81 92.91 69.06 92.90 C 69.06 92.20 69.05 90.80 69.05 90.10 C 69.80 90.09 71.30 90.05 72.05 90.04 C 72.07 89.29 72.09 87.79 72.11 87.05 Z" />
<path fill="#ffffff" opacity="1.00" d=" M 99.06 87.08 C 101.02 87.08 102.97 87.07 104.93 87.07 C 104.93 87.79 104.94 89.21 104.94 89.93 C 102.99 89.93 101.03 89.94 99.08 89.94 C 99.08 89.23 99.07 87.80 99.06 87.08 Z" />
<path fill="#ffffff" opacity="1.00" d=" M 15.36 90.46 C 15.90 90.44 16.99 90.39 17.53 90.37 C 17.56 90.91 17.60 92.00 17.62 92.54 C 17.08 92.56 16.00 92.61 15.46 92.63 C 15.43 92.09 15.38 91.01 15.36 90.46 Z" />
<path fill="#ffffff" opacity="1.00" d=" M 24.06 90.07 C 26.02 90.06 27.98 90.06 29.93 90.07 C 29.93 90.78 29.93 92.21 29.92 92.93 C 27.97 92.93 26.02 92.93 24.06 92.93 C 24.06 92.21 24.06 90.78 24.06 90.07 Z" />
<path fill="#ffffff" opacity="1.00" d=" M 60.08 90.05 C 60.79 90.05 62.22 90.06 62.93 90.06 C 62.94 92.06 62.94 94.07 62.94 96.07 C 63.72 96.07 65.26 96.07 66.04 96.07 C 66.05 95.32 66.08 93.82 66.10 93.06 C 66.80 93.06 68.19 93.05 68.89 93.04 C 68.91 93.80 68.94 95.30 68.96 96.06 C 69.70 96.06 71.18 96.08 71.92 96.08 C 71.92 96.83 71.94 98.32 71.94 99.07 C 74.94 99.07 77.94 99.08 80.93 99.08 C 80.93 99.79 80.93 101.22 80.93 101.93 C 77.93 101.93 74.94 101.93 71.94 101.94 C 71.93 102.69 71.91 104.19 71.90 104.94 C 69.96 104.94 68.02 104.93 66.09 104.93 C 66.07 104.22 66.04 102.82 66.02 102.11 C 66.79 102.10 68.31 102.06 69.07 102.04 C 69.07 101.26 69.07 99.70 69.07 98.92 C 68.29 98.93 66.73 98.93 65.95 98.93 C 65.94 99.69 65.92 101.19 65.91 101.94 C 63.96 101.94 62.02 101.93 60.07 101.93 C 60.07 97.97 60.07 94.01 60.08 90.05 Z" />
<path fill="#ffffff" opacity="1.00" d=" M 81.08 93.07 C 84.02 93.07 86.97 93.07 89.92 93.07 C 89.94 93.77 89.96 95.18 89.98 95.88 C 89.22 95.90 87.70 95.94 86.94 95.96 C 86.93 96.73 86.93 98.28 86.93 99.05 C 87.68 99.07 89.20 99.10 89.96 99.11 C 89.96 99.81 89.95 101.21 89.95 101.91 C 89.20 101.92 87.70 101.94 86.94 101.95 C 86.93 102.70 86.91 104.20 86.90 104.94 C 84.96 104.94 83.02 104.93 81.08 104.93 C 81.07 104.22 81.05 102.81 81.04 102.11 C 81.80 102.09 83.32 102.05 84.07 102.03 C 84.07 101.26 84.07 99.72 84.07 98.95 C 83.32 98.94 81.81 98.91 81.05 98.90 C 81.06 96.95 81.07 95.01 81.08 93.07 Z" />
<path fill="#ffffff" opacity="1.00" d=" M 90.06 96.08 C 90.77 96.08 92.21 96.07 92.93 96.07 C 92.93 96.78 92.93 98.20 92.93 98.91 C 92.22 98.92 90.79 98.93 90.07 98.94 C 90.07 98.22 90.06 96.79 90.06 96.08 Z" />
<path fill="#ffffff" opacity="1.00" d=" M 96.07 96.07 C 99.03 96.07 101.98 96.07 104.94 96.08 C 104.94 99.03 104.93 101.98 104.93 104.93 C 101.98 104.93 99.03 104.93 96.08 104.93 C 96.07 101.98 96.07 99.03 96.07 96.07 M 98.93 98.93 C 98.93 99.71 98.93 101.28 98.93 102.07 C 99.71 102.07 101.28 102.07 102.07 102.07 C 102.07 101.28 102.07 99.71 102.07 98.93 C 101.28 98.93 99.71 98.93 98.93 98.93 Z" />
<path fill="#ffffff" opacity="1.00" d=" M 108.07 96.07 C 110.02 96.07 111.97 96.07 113.92 96.08 C 113.93 96.78 113.96 98.18 113.97 98.88 C 113.21 98.90 111.69 98.93 110.93 98.95 C 110.92 100.95 110.92 102.95 110.91 104.95 C 110.20 104.94 108.79 104.94 108.08 104.93 C 108.07 101.98 108.07 99.03 108.07 96.07 Z" />
<path fill="#ffffff" opacity="1.00" d=" M 12.06 102.06 C 17.02 102.06 21.98 102.06 26.93 102.07 C 26.94 107.02 26.94 111.98 26.93 116.94 C 21.97 116.94 17.02 116.94 12.06 116.94 C 12.06 111.98 12.06 107.02 12.06 102.06 M 14.93 104.93 C 14.93 107.98 14.93 111.02 14.93 114.07 C 17.98 114.07 21.02 114.07 24.06 114.07 C 24.06 111.02 24.06 107.98 24.06 104.93 C 21.02 104.93 17.97 104.93 14.93 104.93 Z" />
<path fill="#ffffff" opacity="1.00" d=" M 57.45 102.38 C 57.99 102.39 59.07 102.42 59.61 102.44 C 59.60 102.98 59.57 104.07 59.56 104.61 C 59.01 104.60 57.93 104.57 57.39 104.56 C 57.40 104.01 57.43 102.92 57.45 102.38 Z" />
<path fill="#ffffff" opacity="1.00" d=" M 60.08 105.07 C 62.03 105.07 63.98 105.07 65.94 105.07 C 65.94 105.78 65.94 107.21 65.94 107.92 C 63.98 107.92 62.02 107.92 60.06 107.92 C 60.07 107.20 60.07 105.78 60.08 105.07 Z" />
<path fill="#ffffff" opacity="1.00" d=" M 111.33 105.51 C 111.87 105.47 112.96 105.37 113.50 105.33 C 113.54 105.87 113.64 106.95 113.68 107.49 C 113.14 107.53 112.06 107.63 111.52 107.68 C 111.47 107.14 111.38 106.05 111.33 105.51 Z" />
<path fill="#ffffff" opacity="1.00" d=" M 108.08 108.07 C 108.79 108.07 110.21 108.07 110.92 108.07 C 110.92 110.02 110.92 111.98 110.92 113.94 C 110.21 113.94 108.79 113.94 108.08 113.94 C 108.08 111.98 108.08 110.03 108.08 108.07 Z" />
<path fill="#ffffff" opacity="1.00" d=" M 60.08 111.07 C 62.03 111.07 63.98 111.08 65.94 111.08 C 65.94 111.79 65.94 113.22 65.94 113.93 C 63.98 113.93 62.02 113.93 60.06 113.92 C 60.07 113.21 60.07 111.79 60.08 111.07 Z" />
</g>
<g id="#4e6fa4ff">
<path fill="#4e6fa4" opacity="1.00" d=" M 8.93 8.93 C 15.98 8.92 23.03 8.92 30.07 8.93 C 30.08 15.98 30.08 23.02 30.07 30.07 C 23.02 30.08 15.98 30.08 8.93 30.07 C 8.93 23.02 8.93 15.98 8.93 8.93 M 12.06 12.06 C 12.06 17.02 12.06 21.98 12.06 26.94 C 17.02 26.94 21.98 26.94 26.93 26.93 C 26.94 21.98 26.94 17.02 26.94 12.06 C 21.98 12.06 17.02 12.06 12.06 12.06 Z" />
<path fill="#4e6fa4" opacity="1.00" d=" M 32.93 8.93 C 34.97 8.93 37.02 8.92 39.06 8.92 C 39.06 10.97 39.06 13.02 39.06 15.07 C 37.02 15.07 34.97 15.07 32.93 15.07 C 32.93 13.02 32.93 10.98 32.93 8.93 Z" />
<path fill="#4e6fa4" opacity="1.00" d=" M 41.92 8.92 C 42.71 8.92 44.29 8.92 45.07 8.92 C 45.07 10.97 45.07 13.02 45.07 15.07 C 44.29 15.07 42.72 15.07 41.93 15.07 C 41.93 13.02 41.93 10.97 41.92 8.92 Z" />
<path fill="#4e6fa4" opacity="1.00" d=" M 47.93 8.94 C 48.72 8.93 50.28 8.92 51.06 8.91 C 51.06 10.97 51.06 13.02 51.06 15.08 C 50.28 15.07 48.71 15.07 47.93 15.06 C 47.93 13.02 47.93 10.98 47.93 8.94 Z" />
<path fill="#4e6fa4" opacity="1.00" d=" M 56.92 8.92 C 57.71 8.93 59.28 8.93 60.06 8.93 C 60.07 9.68 60.08 11.18 60.08 11.93 C 60.82 11.94 62.29 11.95 63.03 11.95 C 63.05 12.71 63.09 14.22 63.11 14.97 C 63.82 14.96 65.23 14.93 65.93 14.92 C 65.93 12.92 65.93 10.92 65.93 8.93 C 68.98 8.93 72.02 8.93 75.07 8.93 C 75.07 10.97 75.07 13.01 75.07 15.05 C 74.31 15.06 72.80 15.09 72.04 15.11 C 72.05 15.81 72.07 17.22 72.08 17.92 C 74.07 17.92 76.06 17.93 78.05 17.93 C 78.06 18.68 78.08 20.18 78.09 20.93 C 81.08 20.93 84.06 20.92 87.05 20.92 C 87.06 21.68 87.09 23.20 87.10 23.96 C 87.81 23.95 89.23 23.94 89.93 23.93 C 89.94 21.99 89.94 20.04 89.95 18.10 C 89.19 18.09 87.68 18.07 86.93 18.06 C 86.93 17.28 86.93 15.73 86.93 14.96 C 87.68 14.94 89.20 14.91 89.96 14.89 C 89.96 14.20 89.95 12.80 89.95 12.10 C 89.20 12.08 87.69 12.05 86.94 12.04 C 86.93 11.26 86.93 9.70 86.92 8.92 C 88.97 8.92 91.02 8.92 93.07 8.92 C 93.07 10.91 93.06 12.91 93.06 14.90 C 93.81 14.92 95.32 14.95 96.07 14.96 C 96.08 20.00 96.08 25.03 96.07 30.07 C 95.29 30.07 93.73 30.07 92.95 30.08 C 92.94 29.32 92.91 27.81 92.90 27.05 C 92.20 27.05 90.80 27.05 90.09 27.05 C 90.08 27.81 90.06 29.32 90.04 30.07 C 89.26 30.07 87.71 30.07 86.93 30.07 C 86.93 28.07 86.93 26.07 86.93 24.07 C 83.97 24.07 81.02 24.07 78.06 24.07 C 78.06 26.02 78.06 27.96 78.06 29.91 C 78.77 29.92 80.18 29.95 80.88 29.96 C 80.90 29.20 80.93 27.69 80.95 26.93 C 81.73 26.93 83.29 26.94 84.08 26.94 C 84.07 28.93 84.07 30.92 84.07 32.91 C 84.81 32.91 86.31 32.93 87.05 32.93 C 87.06 33.69 87.09 35.19 87.10 35.94 C 87.80 35.95 89.20 35.95 89.90 35.96 C 89.92 35.20 89.95 33.68 89.96 32.92 C 90.74 32.92 92.30 32.92 93.08 32.92 C 93.07 33.71 93.07 35.27 93.06 36.06 C 92.31 36.06 90.82 36.07 90.07 36.07 C 90.06 36.82 90.05 38.31 90.05 39.06 C 88.06 39.06 86.07 39.06 84.08 39.06 C 84.07 39.77 84.05 41.18 84.04 41.88 C 84.80 41.90 86.31 41.93 87.07 41.95 C 87.07 44.94 87.07 47.94 87.08 50.94 C 87.79 50.94 89.22 50.94 89.93 50.94 C 89.94 47.94 89.94 44.94 89.94 41.93 C 90.69 41.93 92.17 41.93 92.92 41.93 C 92.92 41.18 92.93 39.69 92.94 38.94 C 93.72 38.94 95.29 38.94 96.07 38.95 C 96.07 39.72 96.07 41.27 96.07 42.04 C 95.32 42.06 93.80 42.10 93.04 42.11 C 93.05 42.81 93.06 44.20 93.07 44.89 C 93.82 44.91 95.32 44.93 96.07 44.95 C 96.07 45.72 96.07 47.27 96.07 48.04 C 95.31 48.06 93.79 48.10 93.03 48.12 C 93.04 48.82 93.07 50.23 93.08 50.94 C 95.03 50.94 96.97 50.94 98.92 50.94 C 98.92 48.93 98.92 46.93 98.93 44.92 C 99.71 44.92 101.27 44.92 102.05 44.92 C 102.05 45.67 102.06 47.17 102.07 47.92 C 102.81 47.93 104.30 47.94 105.05 47.95 C 105.06 48.70 105.08 50.19 105.10 50.94 C 105.79 50.95 107.19 50.96 107.88 50.97 C 107.90 50.21 107.93 48.70 107.95 47.94 C 108.69 47.94 110.18 47.93 110.92 47.93 C 110.92 47.17 110.93 45.67 110.94 44.92 C 111.71 44.92 113.27 44.92 114.04 44.92 C 114.06 45.68 114.09 47.20 114.11 47.96 C 114.82 47.95 116.23 47.93 116.94 47.92 C 116.94 44.97 116.94 42.03 116.94 39.08 C 116.23 39.07 114.82 39.05 114.11 39.03 C 114.09 39.80 114.06 41.32 114.05 42.08 C 112.06 42.07 110.08 42.07 108.10 42.07 C 108.09 42.82 108.07 44.32 108.05 45.07 C 107.27 45.07 105.71 45.07 104.93 45.08 C 104.93 43.03 104.93 40.99 104.93 38.95 C 106.93 38.94 108.93 38.93 110.93 38.93 C 110.93 38.21 110.93 36.79 110.93 36.07 C 107.97 36.07 105.02 36.07 102.06 36.07 C 102.06 38.07 102.06 40.07 102.07 42.07 C 101.28 42.07 99.71 42.07 98.93 42.07 C 98.92 40.03 98.93 37.99 98.93 35.95 C 99.68 35.94 101.18 35.93 101.93 35.92 C 101.93 35.17 101.94 33.68 101.94 32.93 C 104.98 32.93 108.01 32.92 111.05 32.92 C 111.07 33.68 111.10 35.20 111.11 35.96 C 111.81 35.95 113.21 35.94 113.90 35.94 C 113.92 35.18 113.94 33.68 113.95 32.93 C 115.99 32.93 118.03 32.93 120.07 32.93 C 120.07 39.97 120.07 47.01 120.07 54.06 C 119.32 54.06 117.82 54.07 117.07 54.07 C 117.07 54.82 117.06 56.31 117.06 57.06 C 116.31 57.07 114.81 57.09 114.06 57.10 C 114.06 59.04 114.07 60.98 114.07 62.92 C 114.78 62.93 116.19 62.95 116.89 62.96 C 116.91 62.21 116.95 60.69 116.97 59.93 C 117.74 59.93 119.29 59.93 120.07 59.93 C 120.07 62.97 120.07 66.01 120.07 69.05 C 119.31 69.06 117.81 69.09 117.05 69.10 C 117.06 71.04 117.06 72.97 117.06 74.90 C 117.81 74.92 119.31 74.94 120.07 74.95 C 120.07 75.73 120.07 77.27 120.07 78.04 C 119.32 78.05 117.81 78.08 117.06 78.09 C 117.05 78.79 117.04 80.18 117.04 80.88 C 117.79 80.90 119.31 80.94 120.07 80.96 C 120.07 84.99 120.07 89.02 120.07 93.05 C 119.31 93.06 117.80 93.09 117.05 93.10 C 117.05 93.80 117.05 95.20 117.05 95.90 C 117.81 95.91 119.31 95.93 120.07 95.95 C 120.07 97.98 120.07 100.02 120.07 102.06 C 118.07 102.06 116.07 102.06 114.08 102.07 C 114.07 102.78 114.05 104.18 114.04 104.89 C 114.79 104.91 116.30 104.94 117.06 104.96 C 117.06 105.69 117.06 107.17 117.07 107.91 C 117.82 107.92 119.32 107.93 120.07 107.94 C 120.07 109.98 120.07 112.02 120.07 114.07 C 119.29 114.07 117.73 114.07 116.95 114.07 C 116.94 113.31 116.91 111.81 116.90 111.05 C 116.20 111.06 114.80 111.06 114.10 111.06 C 114.09 111.81 114.06 113.31 114.05 114.06 C 113.31 114.06 111.83 114.07 111.09 114.08 C 111.08 114.82 111.07 116.31 111.06 117.06 C 110.32 117.06 108.83 117.06 108.08 117.06 C 108.08 117.81 108.07 119.32 108.06 120.07 C 107.28 120.07 105.72 120.07 104.94 120.07 C 104.94 119.29 104.93 117.73 104.93 116.95 C 105.69 116.94 107.19 116.92 107.94 116.91 C 107.94 116.21 107.94 114.80 107.94 114.10 C 107.19 114.09 105.69 114.06 104.94 114.05 C 104.94 113.31 104.93 111.83 104.93 111.09 C 104.19 111.08 102.70 111.07 101.96 111.07 C 101.94 110.31 101.91 108.81 101.90 108.06 C 101.20 108.06 99.80 108.06 99.11 108.06 C 99.09 108.81 99.07 110.32 99.05 111.08 C 97.01 111.07 94.97 111.07 92.93 111.08 C 92.93 108.08 92.93 105.08 92.93 102.08 C 92.23 102.07 90.81 102.04 90.11 102.02 C 90.09 102.78 90.06 104.29 90.04 105.05 C 89.30 105.06 87.80 105.08 87.06 105.09 C 87.07 109.03 87.07 112.98 87.07 116.92 C 87.78 116.93 89.19 116.96 89.90 116.97 C 89.91 116.21 89.95 114.69 89.96 113.93 C 91.99 113.93 94.02 113.93 96.05 113.93 C 96.07 114.69 96.09 116.19 96.10 116.95 C 98.09 116.94 100.07 116.94 102.06 116.94 C 102.06 117.72 102.06 119.28 102.06 120.07 C 99.02 120.07 95.99 120.07 92.96 120.07 C 92.94 119.31 92.91 117.81 92.90 117.06 C 92.20 117.05 90.80 117.05 90.10 117.04 C 90.08 117.80 90.05 119.31 90.04 120.07 C 88.01 120.07 85.98 120.07 83.95 120.07 C 83.94 119.31 83.91 117.81 83.89 117.05 C 81.91 117.06 79.92 117.06 77.93 117.06 C 77.93 116.28 77.94 114.72 77.94 113.93 C 79.93 113.93 81.93 113.93 83.93 113.93 C 83.92 111.98 83.92 110.03 83.92 108.09 C 83.22 108.07 81.81 108.05 81.11 108.04 C 81.09 108.80 81.06 110.32 81.05 111.08 C 80.27 111.08 78.72 111.08 77.94 111.08 C 77.94 110.30 77.94 108.73 77.94 107.95 C 78.70 107.93 80.21 107.90 80.97 107.88 C 80.96 107.18 80.93 105.77 80.92 105.07 C 77.98 105.07 75.03 105.07 72.09 105.07 C 72.08 105.77 72.05 107.17 72.03 107.88 C 72.79 107.90 74.31 107.93 75.07 107.95 C 75.07 111.99 75.07 116.03 75.07 120.07 C 73.02 120.07 70.97 120.07 68.93 120.07 C 68.93 119.29 68.93 117.73 68.93 116.95 C 69.68 116.94 71.18 116.92 71.93 116.92 C 71.93 113.97 71.92 111.02 71.92 108.07 C 71.21 108.07 69.79 108.07 69.08 108.07 C 69.08 110.06 69.07 112.06 69.07 114.06 C 68.32 114.06 66.82 114.07 66.07 114.08 C 66.07 114.82 66.06 116.30 66.06 117.04 C 65.31 117.05 63.81 117.07 63.07 117.08 C 63.06 117.83 63.05 119.32 63.05 120.07 C 62.28 120.07 60.73 120.07 59.96 120.07 C 59.94 119.31 59.90 117.79 59.88 117.04 C 59.19 117.04 57.80 117.05 57.11 117.05 C 57.09 117.81 57.07 119.31 57.05 120.07 C 55.01 120.07 52.98 120.07 50.94 120.07 C 50.94 118.02 50.94 115.97 50.93 113.93 C 51.71 113.93 53.27 113.93 54.05 113.93 C 54.07 114.69 54.10 116.21 54.11 116.97 C 54.82 116.96 56.22 116.93 56.92 116.92 C 56.92 114.93 56.92 112.94 56.92 110.94 C 57.68 110.93 59.18 110.91 59.94 110.90 C 59.94 110.20 59.95 108.81 59.95 108.11 C 59.20 108.09 57.69 108.06 56.94 108.04 C 56.93 107.30 56.92 105.81 56.92 105.07 C 56.17 105.07 54.67 105.06 53.92 105.06 C 53.93 104.28 53.93 102.73 53.93 101.95 C 54.68 101.94 56.19 101.92 56.94 101.90 C 56.93 99.97 56.93 98.03 56.93 96.09 C 56.18 96.08 54.69 96.07 53.94 96.06 C 53.94 95.31 53.93 93.82 53.93 93.08 C 53.19 93.07 51.70 93.07 50.96 93.07 C 50.94 92.31 50.91 90.79 50.90 90.03 C 50.19 90.04 48.78 90.06 48.07 90.07 C 48.07 92.01 48.06 93.95 48.06 95.90 C 48.81 95.91 50.31 95.93 51.06 95.95 C 51.06 97.98 51.06 100.01 51.06 102.04 C 50.31 102.06 48.80 102.09 48.04 102.10 C 48.05 102.80 48.06 104.21 48.06 104.91 C 48.81 104.92 50.31 104.94 51.06 104.95 C 51.06 105.72 51.06 107.27 51.06 108.05 C 50.31 108.06 48.81 108.09 48.06 108.10 C 48.07 112.09 48.07 116.08 48.07 120.07 C 47.28 120.07 45.71 120.07 44.93 120.07 C 44.93 118.07 44.92 116.07 44.92 114.07 C 44.21 114.06 42.79 114.06 42.08 114.06 C 42.08 116.06 42.07 118.06 42.07 120.07 C 40.02 120.07 37.98 120.07 35.93 120.07 C 35.93 118.03 35.93 115.99 35.93 113.95 C 36.68 113.94 38.18 113.93 38.93 113.92 C 38.94 113.17 38.94 111.68 38.94 110.93 C 40.94 110.92 42.93 110.92 44.93 110.91 C 44.93 110.21 44.93 108.79 44.93 108.08 C 42.93 108.08 40.94 108.07 38.94 108.07 C 38.94 107.28 38.94 105.72 38.94 104.94 C 39.69 104.94 41.18 104.92 41.93 104.92 C 41.93 104.17 41.93 102.68 41.93 101.94 C 43.93 101.93 45.93 101.93 47.92 101.93 C 47.94 101.22 47.96 99.82 47.97 99.11 C 47.21 99.10 45.70 99.07 44.95 99.06 C 44.93 98.31 44.90 96.80 44.89 96.05 C 44.19 96.05 42.80 96.06 42.10 96.06 C 42.09 96.81 42.06 98.31 42.04 99.06 C 41.30 99.07 39.81 99.08 39.07 99.09 C 39.07 99.83 39.06 101.32 39.05 102.07 C 38.27 102.07 36.72 102.06 35.94 102.06 C 35.94 101.31 35.93 99.82 35.93 99.08 C 35.18 99.08 33.68 99.07 32.93 99.06 C 32.93 98.28 32.93 96.71 32.93 95.93 C 35.92 95.92 38.91 95.92 41.91 95.93 C 41.92 95.19 41.93 93.70 41.94 92.95 C 42.69 92.94 44.19 92.91 44.94 92.90 C 44.93 90.96 44.92 89.02 44.92 87.08 C 44.22 87.07 42.81 87.06 42.11 87.05 C 42.10 87.80 42.07 89.31 42.05 90.06 C 41.27 90.06 39.72 90.07 38.94 90.07 C 38.94 89.29 38.94 87.72 38.93 86.94 C 39.68 86.93 41.18 86.92 41.93 86.91 C 41.93 83.92 41.92 80.93 41.92 77.94 C 43.93 77.94 45.94 77.94 47.94 77.93 C 47.94 77.22 47.93 75.79 47.93 75.08 C 45.93 75.07 43.93 75.07 41.93 75.06 C 41.93 74.28 41.93 72.72 41.93 71.93 C 44.51 71.93 47.10 71.92 49.68 71.91 C 50.00 74.32 49.70 77.53 52.38 78.69 C 54.99 79.41 57.73 79.05 60.40 79.12 C 60.34 79.55 60.21 80.40 60.15 80.83 C 60.86 80.80 62.27 80.75 62.98 80.72 C 62.87 80.31 62.65 79.49 62.53 79.08 C 66.82 79.12 71.11 79.12 75.40 79.08 C 75.33 79.52 75.18 80.40 75.11 80.84 C 78.04 80.88 80.98 80.92 83.91 80.94 C 83.92 80.23 83.94 78.81 83.95 78.10 C 83.19 78.09 81.68 78.06 80.92 78.04 C 80.92 76.01 80.91 73.97 80.91 71.93 C 82.92 71.93 84.93 71.92 86.94 71.92 C 86.93 69.97 86.93 68.03 86.93 66.08 C 86.22 66.07 84.82 66.04 84.12 66.03 C 84.10 66.79 84.07 68.30 84.05 69.05 C 82.40 69.07 80.75 69.10 79.10 69.13 C 79.10 68.32 79.09 66.69 79.09 65.88 C 80.69 65.91 82.30 65.93 83.91 65.95 C 83.92 65.24 83.95 63.81 83.96 63.10 C 83.20 63.09 81.68 63.07 80.92 63.06 C 80.91 62.49 80.90 61.35 80.90 60.78 C 80.52 60.46 79.77 59.82 79.40 59.50 C 78.95 55.66 78.63 51.81 77.72 48.04 C 77.02 48.04 75.63 48.05 74.93 48.06 C 74.93 46.02 74.93 43.99 74.93 41.95 C 75.69 41.93 77.21 41.90 77.97 41.89 C 77.96 41.18 77.93 39.77 77.92 39.06 C 75.98 39.06 74.04 39.06 72.10 39.05 C 72.09 39.81 72.07 41.31 72.06 42.07 C 71.28 42.07 69.73 42.07 68.95 42.08 C 68.93 41.31 68.89 39.79 68.87 39.02 C 68.17 39.04 66.77 39.07 66.06 39.09 C 66.07 42.03 66.07 44.97 66.07 47.91 C 66.77 47.93 68.18 47.95 68.89 47.96 C 68.90 47.20 68.93 45.68 68.95 44.92 C 69.73 44.92 71.30 44.93 72.08 44.93 C 72.08 45.61 72.06 46.96 72.05 47.63 C 70.59 48.02 69.18 48.56 68.27 49.85 C 65.73 49.91 63.19 49.90 60.64 49.88 C 59.96 47.58 57.29 47.47 56.41 49.68 C 53.60 50.17 50.83 50.82 48.03 51.29 C 48.05 53.22 48.07 55.14 48.08 57.07 C 47.29 57.07 45.72 57.07 44.93 57.08 C 44.92 55.07 44.92 53.07 44.91 51.06 C 44.21 51.06 42.79 51.06 42.08 51.06 C 42.07 54.00 42.07 56.95 42.05 59.90 C 42.80 59.91 44.30 59.94 45.04 59.95 C 45.06 60.70 45.10 62.21 45.11 62.96 C 46.71 62.94 48.31 62.92 49.90 62.91 C 49.90 64.97 49.90 67.04 49.90 69.11 C 49.41 69.10 48.43 69.07 47.95 69.06 C 47.94 68.31 47.93 66.82 47.93 66.07 C 47.18 66.07 45.69 66.06 44.95 66.06 C 44.93 65.31 44.90 63.80 44.89 63.05 C 44.19 63.05 42.80 63.06 42.10 63.06 C 42.09 63.81 42.07 65.31 42.06 66.06 C 41.31 66.06 39.82 66.07 39.07 66.07 C 39.07 66.82 39.06 68.33 39.06 69.08 C 38.27 69.07 36.71 69.07 35.93 69.07 C 35.93 67.07 35.94 65.08 35.94 63.08 C 35.19 63.08 33.68 63.06 32.93 63.06 C 32.93 61.02 32.93 58.98 32.93 56.94 C 33.69 56.93 35.21 56.90 35.98 56.88 C 35.96 56.18 35.93 54.77 35.91 54.07 C 32.97 54.07 30.03 54.07 27.09 54.07 C 27.07 54.77 27.05 56.18 27.04 56.88 C 27.80 56.90 29.32 56.93 30.07 56.95 C 30.07 57.73 30.07 59.29 30.07 60.07 C 29.30 60.07 27.74 60.07 26.97 60.07 C 26.95 59.31 26.91 57.80 26.89 57.04 C 26.18 57.05 24.77 57.07 24.06 57.09 C 24.06 60.07 24.06 63.05 24.06 66.04 C 23.31 66.06 21.80 66.09 21.05 66.11 C 21.05 66.80 21.07 68.20 21.07 68.89 C 21.81 68.91 23.30 68.94 24.04 68.95 C 24.05 69.70 24.08 71.20 24.10 71.95 C 24.80 71.95 26.21 71.94 26.92 71.94 C 26.92 71.18 26.94 69.68 26.95 68.92 C 28.99 68.92 31.03 68.92 33.07 68.92 C 33.07 70.92 33.07 72.91 33.08 74.91 C 33.78 74.93 35.18 74.96 35.88 74.98 C 35.90 74.22 35.94 72.69 35.96 71.93 C 36.73 71.93 38.28 71.93 39.06 71.93 C 39.06 72.71 39.07 74.28 39.07 75.06 C 38.32 75.07 36.81 75.08 36.06 75.08 C 36.07 78.07 36.07 81.06 36.07 84.05 C 35.31 84.07 33.81 84.09 33.06 84.11 C 33.06 84.80 33.06 86.20 33.06 86.89 C 33.81 86.91 35.31 86.94 36.07 86.96 C 36.07 88.99 36.07 91.03 36.07 93.07 C 34.08 93.07 32.09 93.06 30.10 93.06 C 30.09 93.81 30.07 95.32 30.06 96.07 C 28.02 96.07 25.98 96.07 23.95 96.07 C 23.94 95.32 23.92 93.81 23.91 93.06 C 21.97 93.06 20.03 93.06 18.09 93.06 C 18.09 93.81 18.07 95.32 18.06 96.07 C 15.02 96.07 11.98 96.07 8.94 96.07 C 8.93 95.29 8.93 93.73 8.92 92.94 C 9.68 92.93 11.19 92.92 11.94 92.91 C 11.95 92.20 11.96 90.80 11.97 90.10 C 11.21 90.08 9.68 90.05 8.92 90.04 C 8.92 89.26 8.92 87.70 8.92 86.92 C 9.70 86.93 11.26 86.93 12.04 86.94 C 12.05 87.69 12.08 89.21 12.10 89.96 C 12.80 89.96 14.20 89.95 14.91 89.95 C 14.92 89.20 14.93 87.68 14.94 86.93 C 16.93 86.93 18.92 86.93 20.90 86.94 C 20.91 86.18 20.93 84.68 20.94 83.93 C 21.72 83.93 23.27 83.93 24.04 83.93 C 24.05 84.68 24.08 86.19 24.09 86.94 C 26.03 86.93 27.97 86.93 29.91 86.93 C 29.92 86.23 29.95 84.83 29.97 84.13 C 29.22 84.11 27.71 84.07 26.96 84.04 C 26.95 83.30 26.92 81.81 26.91 81.06 C 23.92 81.07 20.92 81.07 17.92 81.07 C 17.92 79.03 17.93 76.98 17.93 74.94 C 18.71 74.93 20.27 74.93 21.05 74.93 C 21.07 75.69 21.10 77.21 21.12 77.97 C 21.82 77.96 23.23 77.94 23.93 77.93 C 23.93 75.98 23.93 74.03 23.93 72.08 C 21.94 72.07 19.94 72.07 17.94 72.07 C 17.93 71.32 17.91 69.82 17.90 69.06 C 15.96 69.07 14.01 69.07 12.06 69.08 C 12.06 71.02 12.06 72.97 12.05 74.91 C 12.81 74.92 14.32 74.93 15.07 74.94 C 15.07 75.72 15.07 77.27 15.07 78.05 C 14.32 78.06 12.81 78.07 12.06 78.08 C 12.06 80.08 12.06 82.07 12.06 84.07 C 11.28 84.07 9.72 84.07 8.93 84.07 C 8.93 79.03 8.93 73.98 8.93 68.94 C 9.68 68.93 11.19 68.92 11.94 68.91 C 11.94 66.97 11.94 65.03 11.94 63.09 C 11.19 63.08 9.68 63.07 8.93 63.06 C 8.93 62.28 8.93 60.73 8.94 59.96 C 9.69 59.94 11.20 59.91 11.96 59.89 C 11.96 59.19 11.96 57.80 11.96 57.11 C 11.20 57.09 9.68 57.07 8.93 57.05 C 8.93 51.02 8.93 44.98 8.93 38.95 C 9.68 38.95 11.18 38.94 11.93 38.94 C 11.93 38.19 11.94 36.68 11.95 35.93 C 13.93 35.93 15.92 35.94 17.90 35.94 C 17.91 35.19 17.93 33.68 17.94 32.92 C 18.73 32.92 20.29 32.92 21.07 32.92 C 21.07 33.70 21.07 35.26 21.07 36.04 C 20.32 36.06 18.80 36.09 18.04 36.11 C 18.05 36.82 18.07 38.23 18.08 38.94 C 22.08 38.94 26.07 38.94 30.06 38.94 C 30.07 39.69 30.09 41.19 30.10 41.95 C 30.80 41.94 32.19 41.94 32.89 41.94 C 32.90 41.19 32.93 39.69 32.94 38.94 C 34.93 38.94 36.92 38.94 38.91 38.95 C 38.92 38.19 38.95 36.69 38.96 35.93 C 39.74 35.93 41.30 35.93 42.07 35.93 C 42.07 39.93 42.07 43.92 42.07 47.92 C 42.77 47.93 44.18 47.95 44.88 47.96 C 44.90 47.20 44.93 45.68 44.95 44.92 C 46.94 44.92 48.92 44.93 50.91 44.94 C 50.92 44.19 50.94 42.69 50.95 41.94 C 51.70 41.93 53.19 41.91 53.94 41.91 C 53.94 39.97 53.94 38.03 53.94 36.09 C 53.19 36.08 51.69 36.06 50.94 36.05 C 50.94 33.02 50.94 29.98 50.94 26.94 C 51.68 26.94 53.18 26.93 53.92 26.93 C 53.93 26.18 53.94 24.69 53.94 23.95 C 54.69 23.94 56.18 23.93 56.92 23.92 C 56.93 23.17 56.93 21.68 56.93 20.93 C 58.97 20.93 61.01 20.92 63.05 20.92 C 63.06 21.67 63.07 23.18 63.08 23.94 C 65.07 23.94 67.07 23.93 69.06 23.94 C 69.07 24.68 69.08 26.18 69.08 26.93 C 69.83 26.93 71.33 26.95 72.07 26.95 C 72.07 27.73 72.07 29.29 72.07 30.07 C 71.29 30.07 69.73 30.07 68.95 30.08 C 68.93 29.32 68.90 27.80 68.88 27.04 C 68.18 27.05 66.78 27.06 66.08 27.07 C 66.07 29.01 66.07 30.96 66.06 32.91 C 66.81 32.91 68.31 32.93 69.06 32.93 C 69.07 33.68 69.09 35.19 69.10 35.94 C 73.04 35.93 76.99 35.93 80.94 35.92 C 80.94 35.21 80.93 33.79 80.93 33.08 C 78.93 33.08 76.93 33.07 74.93 33.07 C 74.93 29.07 74.93 25.08 74.93 21.08 C 71.93 21.08 68.94 21.07 65.94 21.07 C 65.94 20.32 65.93 18.83 65.93 18.08 C 65.18 18.08 63.70 18.07 62.95 18.06 C 62.94 17.31 62.92 15.81 62.90 15.06 C 62.21 15.05 60.81 15.05 60.11 15.04 C 60.10 15.80 60.07 17.32 60.05 18.07 C 59.27 18.07 57.71 18.07 56.93 18.07 C 56.92 17.29 56.92 15.73 56.92 14.95 C 57.67 14.94 59.18 14.92 59.94 14.90 C 59.94 14.20 59.95 12.80 59.95 12.10 C 59.20 12.08 57.68 12.05 56.93 12.04 C 56.93 11.26 56.93 9.70 56.92 8.92 M 66.37 15.44 C 66.38 15.98 66.40 17.06 66.41 17.60 C 66.96 17.59 68.04 17.58 68.59 17.57 C 68.58 17.02 68.55 15.93 68.54 15.39 C 68.00 15.40 66.91 15.42 66.37 15.44 M 57.06 24.08 C 57.07 24.80 57.08 26.23 57.09 26.94 C 57.80 26.94 59.22 26.93 59.94 26.93 C 59.93 26.21 59.92 24.77 59.91 24.05 C 59.20 24.06 57.77 24.07 57.06 24.08 M 54.35 27.47 C 54.38 28.02 54.45 29.10 54.49 29.65 C 55.03 29.61 56.11 29.54 56.66 29.50 C 56.62 28.96 56.54 27.88 56.51 27.34 C 55.97 27.37 54.89 27.44 54.35 27.47 M 60.06 27.07 C 60.07 27.79 60.08 29.22 60.09 29.94 C 60.80 29.93 62.23 29.92 62.95 29.91 C 62.94 29.20 62.92 27.78 62.92 27.06 C 62.20 27.07 60.77 27.07 60.06 27.07 M 54.32 33.53 C 54.37 34.07 54.46 35.15 54.51 35.69 C 55.05 35.64 56.13 35.55 56.67 35.51 C 56.62 34.97 56.53 33.88 56.49 33.34 C 55.95 33.39 54.86 33.48 54.32 33.53 M 57.08 36.06 C 57.08 39.01 57.08 41.97 57.08 44.93 C 59.02 44.92 60.97 44.92 62.92 44.92 C 62.93 44.22 62.96 42.82 62.97 42.12 C 62.21 42.10 60.69 42.06 59.93 42.04 C 59.93 40.05 59.92 38.06 59.92 36.07 C 59.21 36.06 57.79 36.06 57.08 36.06 M 63.05 36.09 C 63.05 36.80 63.07 38.23 63.08 38.94 C 63.79 38.94 65.22 38.94 65.93 38.94 C 65.93 38.22 65.93 36.78 65.93 36.06 C 65.21 36.07 63.77 36.08 63.05 36.09 M 81.08 36.05 C 81.07 36.77 81.06 38.20 81.06 38.91 C 81.77 38.92 83.19 38.95 83.90 38.96 C 83.91 38.24 83.93 36.80 83.94 36.08 C 83.23 36.08 81.80 36.06 81.08 36.05 M 15.09 42.06 C 15.08 42.77 15.06 44.19 15.05 44.90 C 15.77 44.91 17.20 44.93 17.92 44.93 C 17.92 44.22 17.93 42.80 17.93 42.09 C 17.22 42.08 15.80 42.06 15.09 42.06 M 21.08 42.09 C 21.07 44.07 21.07 46.06 21.07 48.04 C 20.31 48.06 18.80 48.10 18.04 48.12 C 18.05 48.82 18.07 50.23 18.09 50.93 C 20.02 50.94 21.96 50.94 23.90 50.95 C 23.92 50.20 23.94 48.71 23.95 47.96 C 24.71 47.94 26.21 47.91 26.96 47.89 C 26.96 47.19 26.96 45.81 26.95 45.11 C 26.21 45.10 24.71 45.06 23.96 45.05 C 23.94 44.29 23.90 42.79 23.89 42.03 C 23.18 42.05 21.78 42.07 21.08 42.09 M 27.39 42.44 C 27.40 42.98 27.44 44.07 27.45 44.61 C 28.00 44.60 29.08 44.57 29.62 44.55 C 29.61 44.01 29.58 42.92 29.56 42.38 C 29.02 42.40 27.93 42.43 27.39 42.44 M 81.34 42.49 C 81.38 43.03 81.46 44.12 81.50 44.66 C 82.04 44.62 83.12 44.54 83.66 44.50 C 83.62 43.96 83.54 42.87 83.50 42.33 C 82.96 42.37 81.88 42.45 81.34 42.49 M 51.06 45.08 C 51.06 45.79 51.06 47.22 51.07 47.93 C 51.78 47.93 53.21 47.93 53.93 47.93 C 53.93 47.22 53.93 45.79 53.93 45.07 C 53.21 45.08 51.78 45.08 51.06 45.08 M 78.05 45.08 C 78.06 45.80 78.07 47.23 78.08 47.94 C 78.79 47.94 80.22 47.92 80.94 47.92 C 80.93 47.21 80.93 45.78 80.93 45.07 C 80.21 45.07 78.77 45.08 78.05 45.08 M 12.07 48.06 C 12.06 51.01 12.06 53.96 12.05 56.91 C 12.80 56.91 14.31 56.93 15.07 56.94 C 15.07 58.92 15.06 60.91 15.06 62.90 C 15.81 62.92 17.30 62.95 18.05 62.96 C 18.07 63.71 18.10 65.22 18.12 65.97 C 18.82 65.96 20.22 65.93 20.92 65.92 C 20.93 63.98 20.93 62.04 20.94 60.10 C 20.18 60.09 18.68 60.06 17.93 60.05 C 17.93 58.06 17.93 56.08 17.93 54.10 C 17.18 54.09 15.69 54.07 14.94 54.06 C 14.93 52.06 14.93 50.06 14.92 48.07 C 14.21 48.06 12.78 48.06 12.07 48.06 M 27.05 48.08 C 27.06 48.79 27.07 50.22 27.07 50.93 C 30.06 50.94 33.05 50.94 36.04 50.94 C 36.06 51.70 36.10 53.22 36.12 53.98 C 36.82 53.96 38.23 53.93 38.94 53.91 C 38.94 51.96 38.94 50.02 38.94 48.07 C 34.97 48.07 31.01 48.07 27.05 48.08 M 45.07 48.07 C 45.07 48.79 45.08 50.22 45.08 50.94 C 45.80 50.94 47.22 50.94 47.94 50.94 C 47.93 50.22 47.93 48.78 47.92 48.07 C 47.21 48.07 45.78 48.07 45.07 48.07 M 111.08 48.07 C 111.08 48.78 111.07 50.22 111.07 50.94 C 111.79 50.94 113.22 50.94 113.93 50.94 C 113.93 50.22 113.93 48.79 113.93 48.07 C 113.22 48.07 111.79 48.07 111.08 48.07 M 90.06 51.07 C 90.06 51.79 90.07 53.22 90.07 53.94 C 90.79 53.93 92.22 53.92 92.93 53.92 C 92.93 53.21 92.93 51.77 92.92 51.06 C 92.21 51.06 90.78 51.07 90.06 51.07 M 102.08 51.05 C 102.08 51.77 102.07 53.20 102.06 53.92 C 102.77 53.93 104.19 53.94 104.90 53.95 C 104.92 53.23 104.94 51.80 104.95 51.08 C 104.23 51.07 102.80 51.06 102.08 51.05 M 108.08 51.07 C 108.07 53.02 108.07 54.97 108.07 56.93 C 110.02 56.92 111.96 56.92 113.91 56.93 C 113.93 56.22 113.96 54.82 113.98 54.12 C 113.22 54.10 111.71 54.07 110.95 54.05 C 110.93 53.29 110.90 51.79 110.88 51.03 C 110.18 51.04 108.78 51.06 108.08 51.07 M 114.06 51.08 C 114.06 51.79 114.07 53.22 114.08 53.94 C 114.79 53.93 116.23 53.92 116.94 53.92 C 116.94 53.20 116.93 51.77 116.93 51.06 C 116.21 51.06 114.77 51.07 114.06 51.08 M 81.09 54.05 C 81.08 54.77 81.07 56.19 81.07 56.91 C 81.78 56.92 83.20 56.94 83.91 56.94 C 83.92 56.23 83.93 54.80 83.94 54.09 C 83.23 54.08 81.80 54.06 81.09 54.05 M 93.07 54.07 C 93.07 56.02 93.07 57.97 93.07 59.92 C 93.77 59.93 95.18 59.95 95.88 59.96 C 95.90 59.20 95.93 57.69 95.95 56.93 C 97.94 56.93 99.94 56.92 101.94 56.92 C 101.94 56.21 101.94 54.78 101.94 54.07 C 98.98 54.07 96.03 54.07 93.07 54.07 M 36.06 57.08 C 36.07 59.03 36.07 60.99 36.08 62.95 C 36.79 62.94 38.22 62.94 38.94 62.93 C 38.93 60.98 38.93 59.02 38.93 57.07 C 38.21 57.07 36.78 57.07 36.06 57.08 M 84.07 57.08 C 84.07 57.79 84.07 59.21 84.07 59.92 C 86.03 59.92 87.99 59.92 89.95 59.92 C 89.95 59.21 89.94 57.79 89.94 57.08 C 87.98 57.08 86.02 57.08 84.07 57.08 M 102.06 57.07 C 102.06 59.07 102.06 61.07 102.06 63.06 C 100.06 63.07 98.06 63.07 96.07 63.08 C 96.07 63.79 96.07 65.21 96.07 65.93 C 100.02 65.93 103.97 65.93 107.92 65.93 C 107.93 65.23 107.95 63.82 107.96 63.11 C 107.20 63.09 105.69 63.06 104.93 63.04 C 104.93 62.27 104.94 60.73 104.94 59.96 C 105.70 59.94 107.21 59.90 107.97 59.88 C 107.95 59.18 107.93 57.78 107.91 57.07 C 105.96 57.07 104.01 57.07 102.06 57.07 M 90.10 60.04 C 90.08 60.79 90.05 62.30 90.04 63.05 C 89.29 63.06 87.80 63.09 87.05 63.11 C 87.05 63.80 87.05 65.20 87.06 65.90 C 87.80 65.91 89.30 65.94 90.04 65.95 C 90.06 66.70 90.08 68.19 90.09 68.94 C 92.03 68.93 93.97 68.92 95.91 68.92 C 95.93 68.22 95.95 66.81 95.96 66.11 C 95.21 66.09 93.69 66.06 92.93 66.04 C 92.93 64.06 92.93 62.07 92.93 60.08 C 92.22 60.07 90.81 60.05 90.10 60.04 M 108.08 66.07 C 108.07 68.07 108.07 70.07 108.07 72.06 C 106.07 72.07 104.06 72.08 102.06 72.08 C 102.06 72.79 102.06 74.21 102.06 74.92 C 105.00 74.93 107.95 74.93 110.90 74.94 C 110.91 74.19 110.93 72.70 110.95 71.95 C 111.70 71.94 113.20 71.91 113.95 71.89 C 113.95 71.19 113.95 69.80 113.95 69.11 C 113.20 69.09 111.69 69.07 110.94 69.05 C 110.93 68.30 110.90 66.79 110.89 66.04 C 110.19 66.05 108.78 66.07 108.08 66.07 M 114.46 66.39 C 114.44 66.93 114.40 68.01 114.39 68.56 C 114.93 68.58 116.01 68.61 116.55 68.63 C 116.57 68.09 116.61 67.00 116.63 66.46 C 116.09 66.44 115.00 66.40 114.46 66.39 M 96.07 69.08 C 96.07 69.79 96.08 71.22 96.08 71.93 C 96.79 71.93 98.22 71.92 98.94 71.92 C 98.93 71.21 98.92 69.79 98.91 69.07 C 98.20 69.08 96.78 69.08 96.07 69.08 M 27.06 72.07 C 27.07 72.78 27.07 74.21 27.07 74.92 C 27.78 74.92 29.21 74.93 29.93 74.93 C 29.93 74.22 29.93 72.79 29.92 72.08 C 29.21 72.08 27.78 72.07 27.06 72.07 M 87.08 72.07 C 87.07 72.77 87.04 74.18 87.03 74.88 C 87.79 74.90 89.31 74.94 90.07 74.96 C 90.07 75.73 90.06 77.27 90.06 78.04 C 89.31 78.05 87.81 78.08 87.06 78.09 C 87.06 80.08 87.07 82.06 87.07 84.05 C 86.32 84.06 84.81 84.09 84.06 84.10 C 84.07 86.04 84.07 87.98 84.08 89.92 C 84.78 89.94 86.18 89.96 86.88 89.98 C 86.90 89.21 86.93 87.69 86.95 86.92 C 87.73 86.93 89.28 86.93 90.06 86.93 C 90.06 88.93 90.06 90.93 90.07 92.93 C 90.78 92.93 92.21 92.93 92.92 92.93 C 92.93 89.98 92.93 87.04 92.94 84.10 C 92.19 84.09 90.69 84.07 89.94 84.06 C 89.94 83.28 89.94 81.72 89.94 80.94 C 90.69 80.93 92.19 80.91 92.94 80.90 C 92.93 78.91 92.93 76.93 92.92 74.95 C 93.68 74.94 95.20 74.91 95.96 74.89 C 95.95 74.19 95.93 72.78 95.91 72.07 C 92.97 72.07 90.03 72.07 87.08 72.07 M 30.13 75.03 C 30.11 75.78 30.07 77.28 30.05 78.03 C 29.30 78.05 27.79 78.09 27.04 78.11 C 27.05 78.81 27.07 80.22 27.09 80.93 C 29.03 80.93 30.98 80.92 32.92 80.92 C 32.92 78.98 32.92 77.03 32.92 75.08 C 32.22 75.07 30.82 75.05 30.13 75.03 M 96.06 75.08 C 96.07 75.80 96.08 77.24 96.09 77.96 C 96.81 77.95 98.23 77.93 98.95 77.92 C 98.94 77.20 98.91 75.77 98.90 75.05 C 98.19 75.06 96.77 75.08 96.06 75.08 M 48.10 78.05 C 48.09 78.79 48.06 80.29 48.05 81.04 C 47.30 81.06 45.79 81.10 45.04 81.12 C 45.05 81.82 45.07 83.22 45.08 83.92 C 47.07 83.92 49.05 83.93 51.03 83.93 C 51.05 84.69 51.09 86.20 51.11 86.95 C 51.81 86.95 53.22 86.93 53.93 86.92 C 53.93 84.98 53.93 83.04 53.94 81.11 C 53.20 81.09 51.71 81.07 50.97 81.05 C 50.93 80.31 50.87 78.81 50.84 78.06 C 50.15 78.06 48.78 78.05 48.10 78.05 M 99.07 78.07 C 99.07 78.78 99.07 80.21 99.07 80.92 C 101.03 80.92 102.98 80.92 104.94 80.92 C 104.94 80.20 104.93 78.77 104.92 78.06 C 102.97 78.06 101.02 78.07 99.07 78.07 M 108.08 78.07 C 108.07 80.06 108.07 82.05 108.07 84.04 C 107.31 84.06 105.79 84.10 105.03 84.12 C 105.04 84.82 105.07 86.23 105.09 86.93 C 108.08 86.93 111.08 86.93 114.08 86.93 C 114.07 87.72 114.07 89.28 114.07 90.06 C 111.06 90.06 108.06 90.06 105.06 90.07 C 105.06 90.78 105.07 92.21 105.07 92.92 C 109.03 92.93 112.98 92.93 116.93 92.93 C 116.94 88.98 116.94 85.04 116.95 81.10 C 116.20 81.09 114.69 81.06 113.94 81.05 C 113.93 80.30 113.91 78.80 113.91 78.05 C 111.96 78.06 110.02 78.06 108.08 78.07 M 57.08 81.09 C 57.08 83.04 57.08 84.99 57.08 86.93 C 57.79 86.93 59.21 86.93 59.92 86.93 C 59.92 84.98 59.92 83.04 59.92 81.09 C 59.21 81.09 57.79 81.09 57.08 81.09 M 63.08 81.09 C 63.07 81.79 63.03 83.18 63.01 83.87 C 63.77 83.90 65.29 83.94 66.05 83.96 C 66.06 84.71 66.08 86.20 66.09 86.94 C 68.03 86.94 69.96 86.94 71.90 86.94 C 71.92 86.19 71.94 84.70 71.95 83.96 C 72.71 83.94 74.22 83.90 74.97 83.88 C 74.96 83.18 74.93 81.79 74.92 81.09 C 70.98 81.10 67.03 81.10 63.08 81.09 M 93.07 81.07 C 93.07 81.78 93.07 83.21 93.06 83.92 C 93.78 83.92 95.21 83.93 95.93 83.93 C 95.92 83.21 95.92 81.78 95.92 81.07 C 95.21 81.07 93.79 81.07 93.07 81.07 M 30.50 87.34 C 30.46 87.88 30.37 88.96 30.32 89.50 C 30.86 89.55 31.94 89.64 32.48 89.68 C 32.53 89.14 32.62 88.06 32.66 87.51 C 32.12 87.47 31.04 87.38 30.50 87.34 M 54.07 87.08 C 54.07 89.03 54.07 90.98 54.07 92.93 C 54.78 92.93 56.21 92.93 56.92 92.93 C 56.92 90.97 56.92 89.02 56.92 87.07 C 56.21 87.07 54.79 87.08 54.07 87.08 M 63.39 87.46 C 63.41 88.01 63.44 89.09 63.46 89.64 C 64.00 89.62 65.09 89.59 65.63 89.57 C 65.61 89.03 65.58 87.94 65.56 87.40 C 65.02 87.42 63.93 87.45 63.39 87.46 M 72.11 87.05 C 72.09 87.79 72.07 89.29 72.05 90.04 C 71.30 90.05 69.80 90.09 69.05 90.10 C 69.05 90.80 69.06 92.20 69.06 92.90 C 69.81 92.91 71.31 92.94 72.05 92.95 C 72.07 93.70 72.09 95.19 72.10 95.94 C 72.80 95.94 74.20 95.95 74.90 95.95 C 74.91 95.19 74.93 93.68 74.95 92.93 C 76.94 92.93 78.93 92.93 80.92 92.93 C 80.92 90.98 80.92 89.03 80.93 87.09 C 80.22 87.08 78.81 87.05 78.11 87.04 C 78.09 87.80 78.06 89.31 78.04 90.07 C 77.27 90.07 75.72 90.06 74.95 90.06 C 74.93 89.31 74.91 87.81 74.90 87.06 C 74.20 87.06 72.80 87.05 72.11 87.05 M 99.06 87.08 C 99.07 87.80 99.08 89.23 99.08 89.94 C 101.03 89.94 102.99 89.93 104.94 89.93 C 104.94 89.21 104.93 87.79 104.93 87.07 C 102.97 87.07 101.02 87.08 99.06 87.08 M 15.36 90.46 C 15.38 91.01 15.43 92.09 15.46 92.63 C 16.00 92.61 17.08 92.56 17.62 92.54 C 17.60 92.00 17.56 90.91 17.53 90.37 C 16.99 90.39 15.90 90.44 15.36 90.46 M 24.06 90.07 C 24.06 90.78 24.06 92.21 24.06 92.93 C 26.02 92.93 27.97 92.93 29.92 92.93 C 29.93 92.21 29.93 90.78 29.93 90.07 C 27.98 90.06 26.02 90.06 24.06 90.07 M 60.08 90.05 C 60.07 94.01 60.07 97.97 60.07 101.93 C 62.02 101.93 63.96 101.94 65.91 101.94 C 65.92 101.19 65.94 99.69 65.95 98.93 C 66.73 98.93 68.29 98.93 69.07 98.92 C 69.07 99.70 69.07 101.26 69.07 102.04 C 68.31 102.06 66.79 102.10 66.02 102.11 C 66.04 102.82 66.07 104.22 66.09 104.93 C 68.02 104.93 69.96 104.94 71.90 104.94 C 71.91 104.19 71.93 102.69 71.94 101.94 C 74.94 101.93 77.93 101.93 80.93 101.93 C 80.93 101.22 80.93 99.79 80.93 99.08 C 77.94 99.08 74.94 99.07 71.94 99.07 C 71.94 98.32 71.92 96.83 71.92 96.08 C 71.18 96.08 69.70 96.06 68.96 96.06 C 68.94 95.30 68.91 93.80 68.89 93.04 C 68.19 93.05 66.80 93.06 66.10 93.06 C 66.08 93.82 66.05 95.32 66.04 96.07 C 65.26 96.07 63.72 96.07 62.94 96.07 C 62.94 94.07 62.94 92.06 62.93 90.06 C 62.22 90.06 60.79 90.05 60.08 90.05 M 81.08 93.07 C 81.07 95.01 81.06 96.95 81.05 98.90 C 81.81 98.91 83.32 98.94 84.07 98.95 C 84.07 99.72 84.07 101.26 84.07 102.03 C 83.32 102.05 81.80 102.09 81.04 102.11 C 81.05 102.81 81.07 104.22 81.08 104.93 C 83.02 104.93 84.96 104.94 86.90 104.94 C 86.91 104.20 86.93 102.70 86.94 101.95 C 87.70 101.94 89.20 101.92 89.95 101.91 C 89.95 101.21 89.96 99.81 89.96 99.11 C 89.20 99.10 87.68 99.07 86.93 99.05 C 86.93 98.28 86.93 96.73 86.94 95.96 C 87.70 95.94 89.22 95.90 89.98 95.88 C 89.96 95.18 89.94 93.77 89.92 93.07 C 86.97 93.07 84.02 93.07 81.08 93.07 M 90.06 96.08 C 90.06 96.79 90.07 98.22 90.07 98.94 C 90.79 98.93 92.22 98.92 92.93 98.91 C 92.93 98.20 92.93 96.78 92.93 96.07 C 92.21 96.07 90.77 96.08 90.06 96.08 M 96.07 96.07 C 96.07 99.03 96.07 101.98 96.08 104.93 C 99.03 104.93 101.98 104.93 104.93 104.93 C 104.93 101.98 104.94 99.03 104.94 96.08 C 101.98 96.07 99.03 96.07 96.07 96.07 M 108.07 96.07 C 108.07 99.03 108.07 101.98 108.08 104.93 C 108.79 104.94 110.20 104.94 110.91 104.95 C 110.92 102.95 110.92 100.95 110.93 98.95 C 111.69 98.93 113.21 98.90 113.97 98.88 C 113.96 98.18 113.93 96.78 113.92 96.08 C 111.97 96.07 110.02 96.07 108.07 96.07 M 57.45 102.38 C 57.43 102.92 57.40 104.01 57.39 104.56 C 57.93 104.57 59.01 104.60 59.56 104.61 C 59.57 104.07 59.60 102.98 59.61 102.44 C 59.07 102.42 57.99 102.39 57.45 102.38 M 60.08 105.07 C 60.07 105.78 60.07 107.20 60.06 107.92 C 62.02 107.92 63.98 107.92 65.94 107.92 C 65.94 107.21 65.94 105.78 65.94 105.07 C 63.98 105.07 62.03 105.07 60.08 105.07 M 111.33 105.51 C 111.38 106.05 111.47 107.14 111.52 107.68 C 112.06 107.63 113.14 107.53 113.68 107.49 C 113.64 106.95 113.54 105.87 113.50 105.33 C 112.96 105.37 111.87 105.47 111.33 105.51 M 108.08 108.07 C 108.08 110.03 108.08 111.98 108.08 113.94 C 108.79 113.94 110.21 113.94 110.92 113.94 C 110.92 111.98 110.92 110.02 110.92 108.07 C 110.21 108.07 108.79 108.07 108.08 108.07 M 60.08 111.07 C 60.07 111.79 60.07 113.21 60.06 113.92 C 62.02 113.93 63.98 113.93 65.94 113.93 C 65.94 113.22 65.94 111.79 65.94 111.08 C 63.98 111.08 62.03 111.07 60.08 111.07 Z" />
<path fill="#4e6fa4" opacity="1.00" d=" M 98.93 8.92 C 105.97 8.93 113.02 8.92 120.07 8.93 C 120.07 15.98 120.07 23.02 120.07 30.07 C 113.02 30.08 105.97 30.08 98.93 30.07 C 98.92 23.02 98.92 15.97 98.93 8.92 M 102.06 12.06 C 102.06 17.02 102.06 21.98 102.07 26.94 C 107.02 26.94 111.98 26.94 116.94 26.93 C 116.94 21.97 116.94 17.02 116.94 12.06 C 111.98 12.06 107.02 12.06 102.06 12.06 Z" />
<path fill="#4e6fa4" opacity="1.00" d=" M 77.94 11.94 C 79.98 11.94 82.03 11.94 84.07 11.94 C 84.07 12.72 84.07 14.29 84.07 15.07 C 82.03 15.07 79.98 15.07 77.94 15.07 C 77.94 14.29 77.94 12.72 77.94 11.94 Z" />
<path fill="#4e6fa4" opacity="1.00" d=" M 14.93 14.93 C 17.97 14.93 21.02 14.93 24.06 14.93 C 24.06 17.98 24.06 21.02 24.06 24.06 C 21.02 24.07 17.98 24.07 14.93 24.06 C 14.93 21.02 14.93 17.98 14.93 14.93 Z" />
<path fill="#4e6fa4" opacity="1.00" d=" M 104.93 14.93 C 107.98 14.93 111.02 14.93 114.07 14.93 C 114.07 17.98 114.07 21.02 114.07 24.06 C 111.02 24.07 107.98 24.07 104.94 24.06 C 104.94 21.02 104.94 17.98 104.93 14.93 Z" />
<path fill="#4e6fa4" opacity="1.00" d=" M 32.93 17.93 C 33.71 17.93 35.27 17.93 36.05 17.93 C 36.06 18.68 36.08 20.18 36.09 20.93 C 38.09 20.93 40.08 20.93 42.07 20.92 C 42.07 21.70 42.07 23.26 42.07 24.04 C 41.31 24.05 39.80 24.08 39.05 24.10 C 39.05 24.80 39.04 26.20 39.04 26.90 C 39.79 26.91 41.30 26.94 42.05 26.96 C 42.07 27.71 42.10 29.21 42.12 29.96 C 42.82 29.95 44.22 29.92 44.92 29.91 C 44.92 27.92 44.93 25.93 44.93 23.94 C 45.71 23.94 47.28 23.93 48.07 23.93 C 48.07 27.98 48.07 32.02 48.07 36.07 C 47.29 36.07 45.73 36.06 44.95 36.06 C 44.94 35.31 44.91 33.81 44.89 33.07 C 42.91 33.07 40.92 33.07 38.94 33.08 C 38.94 31.08 38.94 29.08 38.94 27.08 C 38.23 27.07 36.82 27.04 36.11 27.03 C 36.10 27.79 36.06 29.31 36.04 30.07 C 35.26 30.07 33.71 30.07 32.93 30.08 C 32.92 26.03 32.92 21.98 32.93 17.93 Z" />
<path fill="#4e6fa4" opacity="1.00" d=" M 44.93 17.93 C 47.97 17.93 51.02 17.93 54.07 17.93 C 54.07 18.71 54.07 20.29 54.08 21.07 C 51.02 21.07 47.97 21.07 44.92 21.07 C 44.92 20.29 44.92 18.71 44.93 17.93 Z" />
<path fill="#4e6fa4" opacity="1.00" d=" M 26.94 32.92 C 27.72 32.92 29.29 32.92 30.08 32.92 C 30.07 33.71 30.07 35.28 30.07 36.06 C 29.29 36.06 27.72 36.07 26.94 36.07 C 26.94 35.28 26.94 33.71 26.94 32.92 Z" />
<path fill="#4e6fa4" opacity="1.00" d=" M 44.92 38.93 C 45.71 38.93 47.28 38.95 48.07 38.95 C 48.07 39.73 48.07 41.29 48.07 42.07 C 47.28 42.07 45.71 42.08 44.92 42.08 C 44.92 41.29 44.92 39.72 44.92 38.93 Z" />
<path fill="#4e6fa4" opacity="1.00" d=" M 51.49 65.67 C 51.81 64.34 52.15 63.02 52.51 61.71 C 55.06 62.13 57.64 62.26 60.22 62.34 C 60.16 63.01 60.05 64.34 60.00 65.00 C 57.91 64.73 55.83 64.39 53.78 63.94 C 53.20 64.37 52.06 65.23 51.49 65.67 Z" />
<path fill="#4e6fa4" opacity="1.00" d=" M 60.75 61.67 C 61.99 61.93 63.24 62.18 64.50 62.42 C 64.37 63.25 64.13 64.89 64.01 65.72 C 63.59 65.30 62.76 64.47 62.34 64.05 C 61.92 64.49 61.07 65.35 60.65 65.79 C 60.67 64.76 60.72 62.70 60.75 61.67 Z" />
<path fill="#4e6fa4" opacity="1.00" d=" M 66.30 64.58 C 65.08 64.27 64.99 61.90 66.38 61.80 C 67.70 62.03 67.61 64.42 66.30 64.58 Z" />
<path fill="#4e6fa4" opacity="1.00" d=" M 68.46 62.46 C 69.86 62.64 70.11 63.33 69.21 64.53 C 67.83 64.37 67.58 63.68 68.46 62.46 Z" />
<path fill="#4e6fa4" opacity="1.00" d=" M 70.90 64.36 C 70.63 63.01 72.70 61.79 73.81 62.59 C 73.83 63.00 73.86 63.82 73.87 64.24 C 73.08 64.84 71.71 64.98 70.90 64.36 Z" />
<path fill="#4e6fa4" opacity="1.00" d=" M 74.56 61.86 C 75.24 61.81 76.62 61.71 77.31 61.66 C 77.31 63.37 77.32 65.07 77.33 66.77 C 76.66 66.81 75.33 66.90 74.66 66.94 C 74.63 65.25 74.60 63.55 74.56 61.86 Z" />
<path fill="#4e6fa4" opacity="1.00" d=" M 26.93 62.93 C 27.72 62.93 29.29 62.94 30.07 62.94 C 30.07 63.72 30.07 65.29 30.07 66.07 C 29.29 66.07 27.72 66.07 26.93 66.07 C 26.93 65.28 26.93 63.71 26.93 62.93 Z" />
<path fill="#4e6fa4" opacity="1.00" d=" M 8.93 98.93 C 15.98 98.92 23.02 98.92 30.07 98.93 C 30.07 105.98 30.08 113.02 30.07 120.07 C 23.02 120.07 15.98 120.07 8.93 120.07 C 8.93 113.02 8.94 105.97 8.93 98.93 M 12.06 102.06 C 12.06 107.02 12.06 111.98 12.06 116.94 C 17.02 116.94 21.97 116.94 26.93 116.94 C 26.94 111.98 26.94 107.02 26.93 102.07 C 21.98 102.06 17.02 102.06 12.06 102.06 Z" />
<path fill="#4e6fa4" opacity="1.00" d=" M 98.93 98.93 C 99.71 98.93 101.28 98.93 102.07 98.93 C 102.07 99.71 102.07 101.28 102.07 102.07 C 101.28 102.07 99.71 102.07 98.93 102.07 C 98.93 101.28 98.93 99.71 98.93 98.93 Z" />
<path fill="#4e6fa4" opacity="1.00" d=" M 14.93 104.93 C 17.97 104.93 21.02 104.93 24.06 104.93 C 24.06 107.98 24.06 111.02 24.06 114.07 C 21.02 114.07 17.98 114.07 14.93 114.07 C 14.93 111.02 14.93 107.98 14.93 104.93 Z" />
<path fill="#4e6fa4" opacity="1.00" d=" M 32.93 107.93 C 33.71 107.93 35.28 107.93 36.07 107.92 C 36.07 108.71 36.07 110.28 36.07 111.07 C 35.28 111.07 33.71 111.08 32.92 111.08 C 32.93 110.30 32.93 108.72 32.93 107.93 Z" />
<path fill="#4e6fa4" opacity="1.00" d=" M 113.93 116.94 C 115.98 116.94 118.02 116.94 120.07 116.94 C 120.07 117.72 120.07 119.29 120.07 120.07 C 118.02 120.07 115.98 120.07 113.93 120.07 C 113.93 119.29 113.93 117.72 113.93 116.94 Z" />
</g>
</svg>
