<?xml version="1.0" encoding="UTF-8" ?>
<!DOCTYPE svg PUBLIC "-//W3C//DTD SVG 1.1//EN" "http://www.w3.org/Graphics/SVG/1.1/DTD/svg11.dtd">
<svg width="86pt" height="86pt" viewBox="0 0 86 86" version="1.1" xmlns="http://www.w3.org/2000/svg">
<g id="#ffffffff">
<path fill="#ffffff" opacity="1.00" d=" M 0.00 0.00 L 86.00 0.00 L 86.00 86.00 L 0.00 86.00 L 0.00 0.00 M 5.95 5.95 C 5.96 10.65 5.95 15.35 5.95 20.05 C 10.65 20.05 15.35 20.05 20.05 20.05 C 20.05 15.35 20.04 10.65 20.05 5.95 C 15.35 5.95 10.65 5.95 5.95 5.95 M 21.95 5.95 C 21.95 7.32 21.95 8.68 21.95 10.05 C 23.31 10.05 24.68 10.05 26.04 10.05 C 26.04 8.68 26.04 7.31 26.04 5.95 C 24.68 5.95 23.32 5.95 21.95 5.95 M 27.95 5.95 C 27.95 7.31 27.95 8.68 27.95 10.05 C 28.48 10.05 29.52 10.05 30.05 10.06 C 30.05 8.68 30.05 7.31 30.05 5.94 C 29.52 5.94 28.48 5.95 27.95 5.95 M 31.95 5.96 C 31.95 7.32 31.95 8.68 31.95 10.05 C 32.47 10.05 33.52 10.05 34.04 10.05 C 34.04 8.68 34.04 7.31 34.04 5.94 C 33.52 5.94 32.47 5.95 31.95 5.96 M 37.94 5.94 C 37.95 6.45 37.95 7.47 37.96 7.98 C 38.47 8.02 39.49 8.10 40.00 8.14 C 40.00 8.57 40.00 9.43 40.00 9.86 C 39.48 9.90 38.45 9.97 37.94 10.01 C 37.94 10.52 37.94 11.54 37.95 12.05 C 38.45 12.05 39.47 12.05 39.98 12.06 C 40.02 11.54 40.11 10.49 40.16 9.97 C 40.43 10.00 40.98 10.04 41.25 10.07 C 42.10 10.97 42.98 11.86 43.87 12.73 C 43.91 13.06 43.99 13.71 44.03 14.04 C 46.00 14.05 47.98 14.05 49.95 14.05 C 49.94 16.71 49.96 19.38 49.95 22.04 C 51.29 22.05 52.63 22.06 53.97 22.07 C 53.98 22.54 54.00 23.47 54.01 23.93 C 51.60 23.95 49.19 23.96 46.78 23.94 C 45.89 23.02 44.98 22.11 44.06 21.23 C 44.06 20.15 44.07 19.08 44.07 18.01 C 44.52 18.00 45.40 18.00 45.84 18.00 C 45.88 18.51 45.97 19.53 46.01 20.05 C 46.52 20.05 47.54 20.05 48.05 20.05 C 48.05 19.54 48.05 18.51 48.05 18.00 C 47.55 17.98 46.56 17.95 46.07 17.93 C 46.05 17.44 46.02 16.44 46.01 15.94 C 44.72 15.96 43.43 15.98 42.14 16.00 C 42.10 15.49 42.02 14.46 41.99 13.95 C 40.65 13.94 39.32 13.94 37.99 13.94 C 37.98 14.43 37.97 15.41 37.96 15.91 C 37.47 15.93 36.48 15.98 35.99 16.00 C 35.97 16.49 35.93 17.47 35.91 17.96 C 35.42 17.97 34.44 17.99 33.95 18.00 C 33.96 19.99 33.96 21.99 33.96 23.99 C 34.47 24.03 35.50 24.10 36.01 24.14 C 35.98 25.17 35.95 26.20 35.92 27.23 C 35.00 28.11 34.11 29.01 33.23 29.93 C 32.16 29.94 31.09 29.94 30.02 29.95 C 29.98 30.46 29.89 31.49 29.84 32.01 C 29.40 32.00 28.51 31.99 28.06 31.98 C 28.07 29.31 28.04 26.63 28.04 23.95 C 27.53 23.95 26.52 23.95 26.01 23.95 C 25.98 24.46 25.91 25.49 25.87 26.00 C 24.59 25.98 23.30 25.96 22.01 25.94 C 21.97 26.46 21.89 27.49 21.84 28.00 C 21.42 28.00 20.57 28.00 20.14 28.00 C 20.11 27.49 20.03 26.47 20.00 25.97 C 17.34 25.96 14.69 25.94 12.03 25.95 C 12.02 25.50 12.00 24.60 11.99 24.14 C 12.51 24.10 13.53 24.02 14.05 23.98 C 14.05 23.47 14.05 22.45 14.05 21.93 C 13.54 21.94 12.52 21.94 12.01 21.94 C 11.98 22.46 11.91 23.48 11.88 23.99 C 10.59 23.97 9.29 23.95 8.00 23.94 C 7.99 24.44 7.95 25.43 7.94 25.93 C 7.44 25.95 6.44 25.98 5.95 26.00 C 5.96 30.00 5.96 33.99 5.95 37.99 C 6.46 38.03 7.49 38.10 8.00 38.14 C 8.00 38.57 8.00 39.43 8.00 39.86 C 7.49 39.90 6.46 39.97 5.95 40.01 C 5.95 40.50 5.95 41.49 5.94 41.98 C 6.46 42.02 7.48 42.10 7.99 42.14 C 7.99 43.38 7.99 44.62 7.99 45.86 C 7.48 45.90 6.46 45.97 5.95 46.01 C 5.96 49.35 5.96 52.70 5.95 56.05 C 6.48 56.05 7.53 56.05 8.06 56.05 C 8.04 54.74 8.02 53.43 8.00 52.12 C 8.51 52.09 9.54 52.02 10.05 51.99 C 10.06 51.50 10.06 50.51 10.06 50.02 C 9.55 49.98 8.52 49.90 8.00 49.86 C 8.02 48.59 8.04 47.33 8.06 46.06 C 9.32 46.04 10.58 46.02 11.85 46.00 C 11.89 46.51 11.98 47.53 12.02 48.05 C 13.33 48.05 14.65 48.05 15.96 48.05 C 15.96 49.36 15.95 50.67 15.94 51.97 C 15.49 51.98 14.59 52.00 14.15 52.01 C 14.11 51.49 14.03 50.46 13.99 49.95 C 13.48 49.95 12.46 49.95 11.94 49.95 C 11.94 51.32 11.94 52.68 11.94 54.04 C 13.70 54.05 15.45 54.05 17.20 54.07 C 18.30 55.22 19.47 56.30 20.70 57.31 C 19.22 57.92 17.63 58.07 16.06 58.27 C 16.05 57.69 16.02 56.53 16.01 55.95 C 15.51 55.95 14.52 55.95 14.02 55.95 C 13.98 56.46 13.89 57.49 13.85 58.00 C 12.57 57.98 11.29 57.95 10.01 57.94 C 9.97 58.45 9.90 59.48 9.86 60.00 C 9.43 60.00 8.56 60.00 8.13 60.00 C 8.09 59.49 8.02 58.46 7.99 57.95 C 7.47 57.95 6.45 57.95 5.93 57.95 C 5.94 58.46 5.94 59.48 5.95 59.98 C 6.46 60.02 7.49 60.09 8.00 60.13 C 8.00 60.56 8.00 61.42 8.00 61.86 C 7.49 61.90 6.46 61.97 5.95 62.01 C 5.95 62.52 5.95 63.54 5.96 64.05 C 7.96 64.05 9.97 64.05 11.98 64.05 C 12.02 63.54 12.10 62.52 12.15 62.01 C 13.39 62.02 14.63 62.02 15.87 62.02 C 15.91 62.52 15.97 63.54 16.01 64.05 C 17.34 64.05 18.66 64.05 19.99 64.05 C 20.03 63.54 20.10 62.52 20.13 62.01 C 21.44 62.03 22.74 62.04 24.05 62.06 C 24.05 60.71 24.05 59.36 24.05 58.01 C 23.54 57.97 22.51 57.89 22.00 57.86 C 22.00 57.43 22.00 56.57 22.00 56.15 C 22.51 56.11 23.55 56.03 24.06 55.99 C 24.05 54.04 24.03 52.08 24.01 50.13 C 24.52 50.09 25.53 50.02 26.04 49.99 C 26.04 49.48 26.04 48.46 26.04 47.95 C 25.53 47.95 24.52 47.95 24.01 47.95 C 23.97 48.47 23.90 49.49 23.86 50.01 C 23.42 50.00 22.53 49.99 22.08 49.98 C 22.06 48.64 22.05 47.29 22.03 45.95 C 20.69 45.95 19.35 45.94 18.02 45.94 C 17.98 46.47 17.90 47.51 17.86 48.03 C 17.58 48.01 17.03 47.96 16.75 47.93 C 15.88 47.01 14.99 46.10 14.08 45.22 C 14.05 44.95 13.99 44.41 13.97 44.14 C 14.48 44.10 15.52 44.03 16.03 43.99 C 16.04 42.00 16.05 40.02 16.06 38.03 C 16.51 38.02 17.41 38.00 17.86 37.99 C 17.90 38.51 17.98 39.53 18.02 40.05 C 18.52 40.05 19.54 40.05 20.05 40.05 C 20.05 39.54 20.05 38.53 20.05 38.02 C 19.54 37.97 18.51 37.88 18.00 37.84 C 18.00 37.37 18.02 36.45 18.02 35.99 C 19.93 36.48 23.19 35.02 24.16 37.07 C 23.62 37.46 22.53 38.25 21.99 38.64 C 21.97 39.76 21.95 40.88 21.93 42.00 C 22.45 42.03 23.48 42.09 23.99 42.12 C 23.97 43.43 23.95 44.73 23.94 46.04 C 24.45 46.05 25.47 46.05 25.98 46.05 C 26.01 45.72 26.09 45.07 26.13 44.74 C 27.02 43.86 27.89 42.97 28.75 42.06 C 28.88 42.06 29.13 42.06 29.25 42.06 C 30.11 42.97 30.98 43.87 31.88 44.74 C 31.92 45.08 32.00 45.74 32.03 46.07 L 33.27 46.06 C 33.26 44.69 33.26 43.31 33.26 41.94 C 32.63 41.94 31.38 41.94 30.76 41.94 C 29.88 41.01 28.98 40.10 28.06 39.22 C 28.05 37.49 28.05 35.77 28.05 34.04 C 28.52 34.03 29.45 34.00 29.92 33.99 C 29.93 35.34 29.95 36.69 29.96 38.05 C 30.49 38.05 31.55 38.05 32.08 38.05 C 32.05 36.77 32.02 35.49 31.98 34.21 C 33.79 33.86 35.59 33.53 37.41 33.23 C 37.82 32.80 38.63 31.95 39.04 31.53 C 39.44 32.01 40.24 32.98 40.64 33.46 C 43.20 33.18 46.08 33.36 48.17 31.58 C 48.14 31.17 48.07 30.36 48.03 29.95 C 47.53 29.95 46.52 29.94 46.02 29.94 C 45.98 30.45 45.89 31.48 45.85 32.00 C 45.40 31.99 44.51 31.98 44.06 31.98 C 44.05 30.00 44.05 28.02 44.05 26.04 C 44.50 26.03 45.40 26.00 45.85 25.99 C 45.89 26.50 45.97 27.53 46.01 28.05 C 46.50 28.05 47.49 28.05 47.99 28.05 C 48.02 27.54 48.10 26.51 48.14 26.00 C 49.42 26.02 50.70 26.05 51.98 26.07 C 51.98 26.52 52.00 27.41 52.01 27.86 C 51.49 27.89 50.46 27.97 49.94 28.01 C 49.95 29.14 49.97 30.27 49.99 31.40 C 54.74 33.51 50.54 41.12 56.05 42.60 C 56.03 42.94 56.00 43.60 55.99 43.94 C 55.17 43.93 53.55 43.91 52.73 43.90 C 52.74 44.46 52.75 45.56 52.75 46.11 C 53.56 46.09 55.18 46.05 55.99 46.03 C 56.02 45.52 56.10 44.50 56.14 44.00 C 56.58 44.00 57.48 44.01 57.92 44.02 C 57.94 45.32 57.96 46.63 57.98 47.93 C 56.62 47.94 55.26 47.95 53.91 47.96 C 53.91 49.30 53.92 50.64 53.92 51.98 C 54.45 52.02 55.49 52.10 56.01 52.14 C 55.99 52.64 55.96 53.64 55.94 54.13 C 53.61 53.95 51.22 53.84 49.05 52.90 C 46.36 52.50 43.59 52.63 41.01 53.50 C 38.53 52.79 35.51 53.09 33.57 51.13 C 33.34 50.04 33.13 48.95 32.94 47.85 C 31.28 47.90 29.61 47.95 27.95 48.00 C 27.95 48.50 27.95 49.52 27.95 50.03 C 29.30 50.05 30.65 50.07 32.01 50.09 C 32.00 50.55 31.98 51.47 31.98 51.93 C 30.63 51.94 29.29 51.96 27.94 51.97 C 27.95 53.94 27.96 55.91 27.98 57.88 C 27.47 57.91 26.46 57.97 25.96 58.00 C 25.96 58.51 25.96 59.54 25.96 60.05 C 26.46 60.05 27.48 60.05 27.99 60.05 C 28.03 59.54 28.11 58.51 28.16 57.99 C 28.60 58.01 29.50 58.03 29.94 58.05 C 29.94 59.10 29.94 60.16 29.94 61.22 C 29.02 62.10 28.12 63.01 27.24 63.94 C 25.48 63.95 23.71 63.95 21.95 63.95 C 21.95 64.47 21.95 65.49 21.95 66.00 C 22.44 66.03 23.44 66.07 23.94 66.09 C 23.95 66.58 23.98 67.56 23.99 68.05 C 24.49 68.05 25.48 68.05 25.97 68.05 C 26.01 67.72 26.09 67.08 26.14 66.75 C 27.02 65.87 27.89 64.98 28.73 64.06 C 28.86 64.06 29.11 64.06 29.23 64.07 C 30.11 64.99 31.01 65.90 31.93 66.77 C 31.95 67.06 31.99 67.64 32.01 67.93 C 30.67 67.94 29.33 67.95 27.99 67.96 C 27.97 68.45 27.94 69.44 27.93 69.93 C 27.43 69.94 26.45 69.98 25.95 69.99 C 25.95 70.50 25.96 71.52 25.96 72.03 C 27.30 72.05 28.64 72.06 29.99 72.08 C 29.99 72.54 30.00 73.45 30.00 73.90 C 28.67 73.93 27.33 73.95 25.99 73.97 C 25.98 74.46 25.95 75.43 25.94 75.92 C 25.44 75.94 24.45 75.98 23.95 76.00 C 23.95 77.35 23.95 78.70 23.95 80.05 C 25.31 80.05 26.67 80.05 28.03 80.05 C 28.05 78.71 28.06 77.36 28.08 76.02 C 28.54 76.02 29.45 76.00 29.91 75.99 C 29.93 77.35 29.95 78.70 29.97 80.05 C 30.49 80.05 31.54 80.05 32.06 80.05 C 32.03 77.41 32.03 74.77 32.03 72.14 C 32.53 72.10 33.54 72.03 34.04 71.99 C 34.04 71.50 34.05 70.51 34.05 70.01 C 33.54 69.97 32.51 69.89 32.00 69.85 C 32.00 69.42 32.00 68.56 32.00 68.13 C 32.51 68.10 33.53 68.03 34.04 68.00 C 34.04 66.67 34.04 65.34 34.04 64.02 C 33.53 63.97 32.51 63.89 31.99 63.85 C 32.03 62.57 32.06 61.29 32.09 60.01 C 32.53 60.01 33.42 60.00 33.87 59.99 C 33.90 60.49 33.97 61.49 34.01 61.99 C 34.33 62.02 34.97 62.09 35.29 62.12 C 36.14 63.02 37.02 63.91 37.92 64.77 C 37.95 65.80 37.98 66.83 38.01 67.86 C 37.50 67.90 36.46 67.97 35.95 68.01 C 35.95 68.50 35.95 69.49 35.95 69.98 C 36.28 70.01 36.94 70.08 37.27 70.11 C 38.14 71.01 39.02 71.89 39.93 72.76 C 39.95 73.03 40.01 73.57 40.03 73.85 C 39.51 73.89 38.47 73.97 37.95 74.02 C 37.95 75.34 37.94 76.66 37.93 77.98 C 37.48 77.99 36.60 78.00 36.15 78.01 C 36.11 77.49 36.03 76.46 35.98 75.95 C 35.48 75.95 34.46 75.95 33.96 75.96 C 33.96 77.32 33.96 78.68 33.96 80.05 C 35.30 80.05 36.65 80.05 37.99 80.05 C 38.03 79.53 38.10 78.51 38.13 78.00 C 38.56 78.00 39.42 78.00 39.85 78.00 C 39.89 78.51 39.98 79.54 40.02 80.05 C 40.51 80.05 41.51 80.05 42.00 80.05 C 42.02 79.56 42.04 78.58 42.06 78.08 C 42.55 78.06 43.53 78.02 44.02 78.00 C 44.03 77.51 44.06 76.54 44.07 76.06 C 44.56 76.04 45.54 76.02 46.03 76.00 C 46.05 74.67 46.07 73.33 46.09 72.00 C 46.55 72.00 47.46 72.02 47.92 72.02 C 47.94 73.97 47.97 75.92 48.00 77.87 C 47.49 77.90 46.46 77.97 45.95 78.01 C 45.95 78.52 45.95 79.54 45.95 80.05 C 47.32 80.05 48.69 80.05 50.05 80.05 C 50.04 77.37 50.04 74.69 50.05 72.01 C 49.54 71.97 48.51 71.89 47.99 71.85 C 48.00 71.40 48.03 70.50 48.04 70.05 C 50.01 70.05 51.99 70.05 53.97 70.06 C 53.98 70.50 54.00 71.40 54.01 71.85 C 53.49 71.89 52.47 71.97 51.96 72.02 C 51.96 72.53 51.95 73.55 51.95 74.06 C 52.46 74.06 53.47 74.06 53.98 74.06 C 54.02 73.54 54.11 72.51 54.15 72.00 C 54.59 72.00 55.47 72.01 55.91 72.01 C 55.94 73.32 55.96 74.63 55.98 75.93 C 54.64 75.94 53.29 75.95 51.95 75.96 C 51.95 76.49 51.95 77.53 51.95 78.06 C 53.25 78.04 54.56 78.02 55.86 78.00 C 55.90 78.51 55.98 79.54 56.02 80.05 C 57.34 80.05 58.67 80.05 59.99 80.05 C 60.02 79.53 60.09 78.51 60.13 78.00 C 60.56 78.00 61.43 78.00 61.86 78.00 C 61.90 78.51 61.97 79.54 62.01 80.05 C 64.02 80.05 66.03 80.05 68.04 80.05 C 68.04 79.52 68.04 78.46 68.04 77.94 C 66.74 77.96 65.44 77.98 64.14 78.01 C 64.10 77.49 64.02 76.45 63.98 75.93 C 62.86 75.95 61.74 75.98 60.62 76.01 C 59.83 76.92 59.03 77.81 58.20 78.69 C 58.04 76.05 58.01 73.40 58.06 70.76 C 58.98 69.89 59.88 68.99 60.76 68.08 C 61.06 68.06 61.65 68.03 61.94 68.01 C 61.95 70.03 61.95 72.04 61.96 74.05 C 63.30 74.05 64.64 74.05 65.99 74.06 C 66.03 73.53 66.11 72.49 66.15 71.97 C 66.43 71.99 66.98 72.04 67.26 72.07 C 68.11 72.98 68.98 73.87 69.87 74.74 C 69.90 75.05 69.98 75.68 70.01 75.99 C 70.51 76.03 71.50 76.10 72.00 76.13 C 72.00 76.57 72.00 77.43 72.00 77.86 C 71.49 77.90 70.46 77.97 69.95 78.01 C 69.95 78.52 69.96 79.53 69.96 80.04 C 70.47 80.05 71.49 80.05 72.00 80.06 C 72.01 79.57 72.04 78.58 72.05 78.09 C 72.55 78.07 73.54 78.02 74.03 77.99 C 74.05 77.51 74.07 76.53 74.08 76.05 C 74.56 76.04 75.52 76.02 76.00 76.02 C 76.03 75.51 76.10 74.50 76.14 74.00 C 76.57 74.00 77.42 74.00 77.85 74.00 C 77.89 74.51 77.97 75.54 78.01 76.05 C 78.52 76.05 79.54 76.05 80.05 76.05 C 80.05 74.71 80.05 73.37 80.05 72.03 C 79.72 71.99 79.06 71.91 78.74 71.87 C 77.87 70.97 76.98 70.10 76.07 69.25 C 76.05 68.95 76.02 68.36 76.00 68.07 C 77.35 68.05 78.70 68.04 80.05 68.03 C 80.05 66.69 80.05 65.35 80.05 64.01 C 79.54 63.98 78.51 63.90 78.00 63.86 C 78.00 63.43 78.00 62.57 78.00 62.14 C 78.51 62.10 79.54 62.03 80.05 61.99 C 80.04 59.33 80.04 56.66 80.05 54.00 C 79.54 53.97 78.51 53.90 78.00 53.87 C 78.00 53.44 78.00 52.57 78.00 52.14 C 78.51 52.10 79.54 52.02 80.05 51.98 C 80.05 51.49 80.05 50.50 80.05 50.01 C 79.54 49.97 78.52 49.90 78.01 49.87 C 78.01 48.62 78.01 47.38 78.01 46.14 C 78.52 46.10 79.54 46.02 80.05 45.98 C 80.05 43.97 80.05 41.96 80.05 39.96 C 79.54 39.95 78.53 39.95 78.02 39.95 C 77.98 40.46 77.90 41.49 77.86 42.00 C 77.41 42.00 76.52 42.00 76.07 42.00 C 76.07 40.92 76.06 39.84 76.06 38.76 C 76.97 37.91 77.86 37.03 78.73 36.14 C 79.06 36.10 79.72 36.01 80.05 35.96 C 80.05 31.29 80.04 26.62 80.05 21.95 C 78.70 21.95 77.36 21.95 76.02 21.95 C 75.98 22.46 75.90 23.49 75.86 24.00 C 75.43 24.00 74.57 24.00 74.14 24.00 C 74.10 23.49 74.03 22.46 73.99 21.95 C 71.99 21.95 70.00 21.95 68.00 21.95 C 67.99 22.44 67.96 23.42 67.94 23.92 C 67.44 23.94 66.45 23.98 65.95 24.00 C 65.95 25.35 65.95 26.70 65.95 28.06 C 66.48 28.06 67.52 28.05 68.05 28.05 C 68.04 26.71 68.04 25.37 68.04 24.03 C 70.02 24.04 71.99 24.05 73.97 24.06 C 73.98 24.53 74.00 25.45 74.01 25.92 C 72.65 25.94 71.30 25.96 69.95 25.98 C 69.95 27.33 69.95 28.69 69.95 30.05 C 70.46 30.05 71.48 30.05 71.98 30.05 C 72.02 29.54 72.11 28.51 72.15 28.00 C 73.42 28.02 74.70 28.05 75.98 28.07 C 76.02 27.55 76.10 26.51 76.14 25.99 C 76.59 26.00 77.50 26.01 77.95 26.02 C 77.95 28.01 77.95 30.00 77.94 31.98 C 77.49 31.99 76.58 32.00 76.13 32.01 C 76.10 31.49 76.03 30.46 75.99 29.94 C 75.50 29.94 74.52 29.94 74.02 29.94 C 73.99 30.27 73.91 30.93 73.87 31.26 C 72.98 32.13 72.11 33.03 71.26 33.94 C 71.13 33.94 70.87 33.94 70.74 33.94 C 69.89 33.02 69.02 32.13 68.13 31.26 C 68.09 30.93 68.01 30.27 67.97 29.94 C 67.46 29.94 66.45 29.95 65.94 29.95 C 65.96 31.26 65.97 32.58 66.00 33.89 C 64.36 33.97 62.73 34.06 61.10 34.14 C 62.15 33.08 63.26 32.11 64.45 31.21 C 63.66 30.55 62.85 29.92 62.02 29.33 C 62.01 29.03 61.99 28.45 61.98 28.15 C 62.50 28.11 63.53 28.02 64.05 27.98 C 64.05 27.48 64.05 26.47 64.05 25.96 C 63.54 25.96 62.51 25.95 61.99 25.95 C 61.98 26.45 61.94 27.44 61.93 27.93 C 61.42 27.94 60.40 27.97 59.89 27.98 C 59.97 30.27 60.08 32.55 60.13 34.84 C 57.43 33.80 58.06 30.90 57.94 28.63 L 56.47 27.53 C 54.48 25.82 59.00 26.06 60.01 25.82 C 60.02 25.38 60.05 24.50 60.06 24.06 C 60.56 24.05 61.55 24.02 62.05 24.00 C 62.05 23.49 62.05 22.45 62.05 21.94 C 61.54 21.94 60.52 21.94 60.02 21.94 C 59.98 22.47 59.91 23.51 59.87 24.03 C 59.60 24.01 59.05 23.95 58.77 23.93 C 57.89 23.01 56.98 22.11 56.06 21.23 C 56.05 20.14 56.05 19.05 56.04 17.96 C 55.54 17.96 54.52 17.96 54.01 17.95 C 53.97 18.47 53.89 19.49 53.85 20.00 C 53.41 20.00 52.52 19.99 52.08 19.99 C 52.05 18.68 52.03 17.36 52.02 16.05 C 53.99 16.05 55.97 16.04 57.95 16.04 C 57.95 17.38 57.95 18.71 57.95 20.05 C 58.46 20.06 59.48 20.06 59.98 20.06 C 60.02 19.54 60.10 18.51 60.14 18.00 C 60.57 18.00 61.43 18.00 61.86 18.00 C 61.89 18.51 61.97 19.54 62.01 20.06 C 62.52 20.05 63.54 20.05 64.05 20.04 C 64.04 16.70 64.04 13.36 64.05 10.02 C 63.54 9.98 62.51 9.90 62.00 9.86 C 62.02 8.55 62.04 7.25 62.06 5.94 C 60.69 5.95 59.32 5.95 57.95 5.95 C 57.95 6.46 57.95 7.48 57.95 7.98 C 58.46 8.02 59.49 8.10 60.00 8.13 C 60.00 8.57 60.00 9.43 60.00 9.87 C 59.49 9.90 58.46 9.97 57.95 10.01 C 57.95 10.51 57.95 11.50 57.95 11.99 C 58.46 12.03 59.49 12.11 60.00 12.15 C 59.98 13.42 59.95 14.70 59.93 15.97 C 59.48 15.98 58.59 16.00 58.14 16.01 C 58.10 15.49 58.03 14.45 57.99 13.93 C 56.04 13.95 54.08 13.96 52.13 13.99 C 52.09 13.48 52.02 12.47 51.99 11.96 C 50.66 11.95 49.34 11.94 48.01 11.92 C 48.01 11.48 48.00 10.59 47.99 10.15 C 48.51 10.11 49.54 10.03 50.05 9.98 C 50.05 8.64 50.05 7.29 50.05 5.95 C 48.02 5.95 45.99 5.95 43.96 5.95 C 43.95 7.30 43.94 8.66 43.93 10.01 C 43.64 9.99 43.05 9.95 42.76 9.93 C 41.90 9.02 41.02 8.14 40.12 7.27 C 40.09 6.94 40.01 6.28 39.97 5.95 C 39.46 5.95 38.45 5.94 37.94 5.94 M 65.95 5.95 C 65.95 10.65 65.95 15.35 65.95 20.05 C 70.65 20.05 75.35 20.04 80.05 20.05 C 80.05 15.35 80.05 10.65 80.05 5.95 C 75.35 5.96 70.65 5.95 65.95 5.95 M 51.96 7.96 C 51.96 8.48 51.96 9.53 51.96 10.05 C 53.32 10.05 54.68 10.05 56.05 10.05 C 56.05 9.53 56.05 8.48 56.05 7.96 C 54.69 7.96 53.32 7.96 51.96 7.96 M 21.95 11.95 C 21.96 14.65 21.96 17.35 21.95 20.05 C 22.46 20.05 23.47 20.05 23.98 20.05 C 24.03 19.54 24.11 18.51 24.15 17.99 C 24.60 18.00 25.49 18.01 25.93 18.02 C 25.95 19.37 25.96 20.71 25.97 22.06 C 27.27 22.04 28.57 22.03 29.86 22.00 C 29.90 22.51 29.97 23.54 30.01 24.05 C 30.52 24.04 31.54 24.04 32.05 24.04 C 32.04 21.34 32.04 18.65 32.05 15.96 C 31.53 15.96 30.49 15.96 29.97 15.96 C 29.95 17.31 29.93 18.66 29.91 20.02 C 29.63 20.00 29.06 19.95 28.78 19.93 C 27.89 19.02 26.99 18.13 26.06 17.26 C 26.04 16.98 25.99 16.42 25.97 16.14 C 26.49 16.10 27.53 16.02 28.06 15.98 C 28.05 15.47 28.05 14.44 28.04 13.93 C 26.74 13.95 25.44 13.97 24.14 14.00 C 24.10 13.48 24.02 12.46 23.99 11.95 C 23.48 11.95 22.46 11.95 21.95 11.95 M 29.95 11.95 C 29.95 12.48 29.94 13.53 29.93 14.05 C 31.98 14.05 34.02 14.05 36.06 14.05 C 36.06 13.52 36.05 12.47 36.04 11.94 C 34.01 11.95 31.98 11.95 29.95 11.95 M 18.16 22.17 C 17.65 23.80 18.20 24.35 19.83 23.83 C 20.35 22.20 19.79 21.64 18.16 22.17 M 30.17 26.17 C 29.65 27.80 30.20 28.35 31.83 27.83 C 32.35 26.20 31.80 25.65 30.17 26.17 M 33.30 42.06 C 36.11 43.19 39.14 43.20 42.11 43.46 C 42.54 43.06 43.40 42.28 43.83 41.88 C 44.29 42.31 45.23 43.18 45.69 43.61 C 46.79 43.45 47.89 43.29 48.99 43.12 C 49.91 43.79 50.73 44.56 51.45 45.45 C 51.50 44.07 51.57 42.69 51.64 41.31 C 45.54 41.81 39.31 40.65 33.30 42.06 M 18.18 42.15 C 17.63 43.77 18.18 44.34 19.82 43.85 C 20.37 42.23 19.82 41.66 18.18 42.15 M 5.95 65.95 C 5.95 70.65 5.95 75.35 5.95 80.05 C 10.65 80.05 15.35 80.05 20.05 80.05 C 20.05 75.35 20.05 70.65 20.05 65.95 C 15.35 65.95 10.65 65.95 5.95 65.95 M 22.16 72.18 C 21.66 73.81 22.22 74.36 23.84 73.83 C 24.35 72.19 23.78 71.64 22.16 72.18 M 75.95 77.95 C 75.95 78.48 75.95 79.52 75.95 80.05 C 77.32 80.05 78.68 80.05 80.05 80.05 C 80.05 79.53 80.05 78.48 80.05 77.96 C 78.68 77.96 77.32 77.95 75.95 77.95 Z" />
<path fill="#ffffff" opacity="1.00" d=" M 8.04 8.04 C 11.35 8.04 14.66 8.04 17.96 8.04 C 17.96 11.35 17.96 14.66 17.96 17.96 C 14.65 17.96 11.34 17.96 8.04 17.96 C 8.04 14.65 8.04 11.34 8.04 8.04 M 9.95 9.95 C 9.95 11.98 9.95 14.01 9.95 16.04 C 11.98 16.04 14.01 16.04 16.04 16.04 C 16.04 14.01 16.04 11.98 16.04 9.96 C 14.01 9.95 11.98 9.95 9.95 9.95 Z" />
<path fill="#ffffff" opacity="1.00" d=" M 68.04 8.04 C 71.35 8.04 74.66 8.04 77.96 8.04 C 77.95 11.35 77.95 14.65 77.96 17.96 C 74.65 17.96 71.34 17.95 68.04 17.96 C 68.04 14.65 68.05 11.34 68.04 8.04 M 69.95 9.95 C 69.95 11.98 69.96 14.01 69.96 16.04 C 71.99 16.04 74.02 16.04 76.05 16.04 C 76.05 14.01 76.05 11.98 76.05 9.96 C 74.01 9.95 71.98 9.95 69.95 9.95 Z" />
<path fill="#ffffff" opacity="1.00" d=" M 44.56 10.28 C 47.99 10.38 43.02 13.31 44.56 10.28 Z" />
<path fill="#ffffff" opacity="1.00" d=" M 38.27 16.28 C 39.68 15.82 40.16 16.30 39.72 17.71 C 38.32 18.17 37.83 17.70 38.27 16.28 Z" />
<path fill="#ffffff" opacity="1.00" d=" M 40.18 18.16 C 41.81 17.65 42.36 18.21 41.83 19.84 C 40.20 20.34 39.65 19.79 40.18 18.16 Z" />
<path fill="#ffffff" opacity="1.00" d=" M 36.27 18.59 C 39.24 16.95 36.47 22.01 36.27 18.59 Z" />
<path fill="#ffffff" opacity="1.00" d=" M 36.29 22.27 C 37.71 21.85 38.18 22.34 37.70 23.74 C 36.28 24.16 35.81 23.67 36.29 22.27 Z" />
<path fill="#ffffff" opacity="1.00" d=" M 38.06 24.02 C 38.53 24.02 39.46 24.01 39.92 24.01 C 39.94 25.33 39.95 26.66 39.97 27.98 C 40.48 28.02 41.50 28.11 42.01 28.15 C 42.00 28.59 41.99 29.48 41.98 29.92 C 40.67 29.94 39.36 29.95 38.05 29.96 C 38.05 27.98 38.05 26.00 38.06 24.02 Z" />
<path fill="#ffffff" opacity="1.00" d=" M 42.17 24.17 C 43.79 23.65 44.35 24.20 43.83 25.83 C 42.20 26.35 41.65 25.80 42.17 24.17 Z" />
<path fill="#ffffff" opacity="1.00" d=" M 54.99 23.99 C 56.31 24.65 56.32 25.33 55.01 26.02 C 53.69 25.35 53.68 24.67 54.99 23.99 Z" />
<path fill="#ffffff" opacity="1.00" d=" M 10.17 28.17 C 11.80 27.65 12.35 28.21 11.83 29.84 C 10.20 30.35 9.65 29.79 10.17 28.17 Z" />
<path fill="#ffffff" opacity="1.00" d=" M 14.08 27.99 C 14.37 28.01 14.95 28.05 15.24 28.07 C 16.12 28.98 17.01 29.87 17.93 30.74 C 17.94 30.88 17.94 31.14 17.94 31.27 C 17.01 32.14 16.11 33.03 15.23 33.94 C 14.16 33.94 13.09 33.94 12.02 33.94 C 12.01 33.50 12.00 32.60 11.99 32.16 C 12.50 32.11 13.52 32.03 14.03 31.99 C 14.05 30.65 14.06 29.32 14.08 27.99 Z" />
<path fill="#ffffff" opacity="1.00" d=" M 18.27 28.29 C 19.67 27.82 20.16 28.29 19.73 29.71 C 18.32 30.17 17.84 29.70 18.27 28.29 Z" />
<path fill="#ffffff" opacity="1.00" d=" M 54.17 28.17 C 55.79 27.65 56.35 28.21 55.83 29.84 C 54.20 30.35 53.64 29.80 54.17 28.17 Z" />
<path fill="#ffffff" opacity="1.00" d=" M 34.16 30.18 C 35.78 29.64 36.34 30.19 35.84 31.82 C 34.22 32.36 33.66 31.82 34.16 30.18 Z" />
<path fill="#ffffff" opacity="1.00" d=" M 52.29 30.27 C 53.71 29.84 54.18 30.33 53.70 31.73 C 52.29 32.16 51.82 31.67 52.29 30.27 Z" />
<path fill="#ffffff" opacity="1.00" d=" M 8.07 32.03 C 8.53 32.02 9.45 32.01 9.91 32.00 C 9.93 33.33 9.95 34.67 9.97 36.00 C 10.47 36.03 11.49 36.10 11.99 36.13 C 11.97 37.41 11.95 38.69 11.93 39.97 C 12.45 40.02 13.49 40.11 14.01 40.16 C 13.97 41.44 13.94 42.72 13.91 44.00 C 13.63 43.99 13.06 43.95 12.77 43.93 C 11.89 43.01 10.98 42.11 10.06 41.24 C 10.05 40.16 10.05 39.09 10.04 38.01 C 9.53 37.97 8.51 37.90 8.00 37.86 C 8.03 35.92 8.05 33.97 8.07 32.03 Z" />
<path fill="#ffffff" opacity="1.00" d=" M 18.05 32.04 C 20.69 32.05 23.33 32.06 25.97 32.05 C 25.96 33.35 25.95 34.66 25.94 35.97 C 25.49 35.98 24.59 35.99 24.14 36.00 C 24.10 35.50 24.03 34.48 24.00 33.97 C 22.00 33.96 20.00 33.95 18.00 33.93 C 18.01 33.46 18.04 32.51 18.05 32.04 Z" />
<path fill="#ffffff" opacity="1.00" d=" M 30.30 32.27 C 31.71 31.85 32.18 32.34 31.70 33.74 C 30.29 34.16 29.82 33.66 30.30 32.27 Z" />
<path fill="#ffffff" opacity="1.00" d=" M 75.01 31.99 C 76.32 32.67 76.31 33.35 74.99 34.02 C 73.68 33.33 73.69 32.66 75.01 31.99 Z" />
<path fill="#ffffff" opacity="1.00" d=" M 68.27 34.29 C 69.67 33.82 70.16 34.30 69.73 35.71 C 68.32 36.18 67.84 35.70 68.27 34.29 Z" />
<path fill="#ffffff" opacity="1.00" d=" M 76.56 34.29 C 79.99 34.33 75.06 37.34 76.56 34.29 Z" />
<path fill="#ffffff" opacity="1.00" d=" M 61.23 35.26 C 60.72 34.76 60.72 34.76 61.23 35.26 Z" />
<path fill="#ffffff" opacity="1.00" d=" M 71.82 37.95 C 71.72 35.72 72.73 31.58 74.62 35.92 C 74.97 35.99 75.66 36.13 76.00 36.20 C 75.99 36.63 75.97 37.50 75.96 37.93 C 74.58 37.94 73.20 37.94 71.82 37.95 Z" />
<path fill="#ffffff" opacity="1.00" d=" M 54.16 36.18 C 55.78 35.63 56.34 36.18 55.84 37.82 C 54.22 38.36 53.66 37.81 54.16 36.18 Z" />
<path fill="#ffffff" opacity="1.00" d=" M 62.03 35.98 C 63.74 36.55 68.94 34.66 67.71 37.75 C 66.79 37.86 64.93 38.07 64.01 38.17 C 63.97 38.63 63.89 39.55 63.85 40.00 C 63.40 40.00 62.52 39.99 62.08 39.99 C 62.06 38.65 62.04 37.31 62.03 35.98 Z" />
<path fill="#ffffff" opacity="1.00" d=" M 24.36 38.35 C 26.41 37.13 26.94 41.63 25.04 41.97 C 23.52 41.64 23.56 39.35 24.36 38.35 Z" />
<path fill="#ffffff" opacity="1.00" d=" M 57.06 37.96 C 58.08 37.46 60.73 38.12 59.68 39.63 C 58.45 41.30 54.26 39.21 57.06 37.96 Z" />
<path fill="#ffffff" opacity="1.00" d=" M 68.06 38.02 C 69.36 38.04 70.67 38.06 71.98 38.08 C 71.99 38.52 72.00 39.41 72.01 39.85 C 71.50 39.89 70.47 39.97 69.96 40.01 C 69.96 40.51 69.95 41.49 69.94 41.99 C 70.46 42.03 71.49 42.11 72.01 42.15 C 72.00 42.60 71.98 43.50 71.97 43.95 C 69.33 43.94 66.69 43.95 64.06 43.96 C 64.04 43.50 64.01 42.56 63.99 42.09 C 65.34 42.07 66.69 42.05 68.03 42.03 C 68.04 40.69 68.05 39.36 68.06 38.02 Z" />
<path fill="#ffffff" opacity="1.00" d=" M 59.38 41.95 C 61.15 37.54 62.35 41.78 62.19 44.00 C 62.64 44.04 63.55 44.11 64.00 44.14 C 64.00 44.59 63.99 45.48 63.99 45.92 C 62.91 45.93 61.84 45.93 60.77 45.94 C 59.90 45.01 59.01 44.11 58.09 43.24 C 58.06 42.97 58.00 42.45 57.97 42.19 C 58.32 42.13 59.03 42.01 59.38 41.95 Z" />
<path fill="#ffffff" opacity="1.00" d=" M 72.07 44.01 C 72.38 44.00 73.00 43.99 73.31 43.98 C 74.37 45.05 75.01 46.68 76.51 47.23 C 75.23 47.92 74.13 48.83 73.21 49.94 C 71.47 49.95 69.74 49.94 68.01 49.93 C 68.01 49.47 68.01 48.54 68.01 48.08 C 69.35 48.06 70.69 48.05 72.04 48.03 C 72.05 46.69 72.06 45.35 72.07 44.01 Z" />
<path fill="#ffffff" opacity="1.00" d=" M 76.28 44.27 C 77.69 43.83 78.17 44.31 77.72 45.72 C 76.30 46.16 75.83 45.68 76.28 44.27 Z" />
<path fill="#ffffff" opacity="1.00" d=" M 65.03 45.99 C 66.32 46.70 66.30 47.38 64.97 48.01 C 63.68 47.29 63.70 46.62 65.03 45.99 Z" />
<path fill="#ffffff" opacity="1.00" d=" M 19.01 47.99 C 20.32 48.67 20.31 49.35 18.99 50.01 C 17.68 49.33 17.69 48.65 19.01 47.99 Z" />
<path fill="#ffffff" opacity="1.00" d=" M 58.02 48.06 C 60.00 48.06 61.98 48.05 63.95 48.05 C 63.97 48.50 63.99 49.40 64.01 49.86 C 63.49 49.90 62.45 49.97 61.93 50.01 C 61.95 51.29 61.97 52.58 62.00 53.86 C 61.49 53.89 60.47 53.96 59.96 53.99 C 59.96 54.50 59.95 55.50 59.95 56.00 C 60.46 56.03 61.47 56.08 61.98 56.10 C 61.96 58.07 61.94 60.03 61.91 61.99 C 61.45 61.99 60.53 61.98 60.07 61.98 C 60.05 60.64 60.04 59.29 60.03 57.95 C 59.53 57.95 58.52 57.95 58.02 57.95 C 57.98 58.46 57.89 59.49 57.85 60.01 C 57.41 60.00 56.53 59.99 56.08 59.98 C 56.05 58.70 56.03 57.42 56.00 56.14 C 56.51 56.11 57.55 56.03 58.06 55.99 C 58.05 54.70 58.02 53.42 58.00 52.13 C 58.51 52.10 59.54 52.03 60.05 52.00 C 60.05 51.50 60.05 50.51 60.05 50.01 C 59.54 49.97 58.51 49.89 58.00 49.85 C 58.00 49.41 58.02 48.51 58.02 48.06 Z" />
<path fill="#ffffff" opacity="1.00" d=" M 64.99 49.99 C 66.31 50.65 66.32 51.32 65.01 52.02 C 63.69 51.36 63.68 50.68 64.99 49.99 Z" />
<path fill="#ffffff" opacity="1.00" d=" M 19.38 51.92 C 21.23 47.60 22.30 51.73 22.17 53.96 C 20.79 53.95 19.41 53.94 18.03 53.92 C 18.02 53.49 18.00 52.63 17.99 52.19 C 18.34 52.13 19.03 51.99 19.38 51.92 Z" />
<path fill="#ffffff" opacity="1.00" d=" M 32.71 52.06 C 32.84 52.06 33.11 52.07 33.25 52.08 C 34.12 53.01 35.01 53.91 35.94 54.78 C 35.94 55.85 35.93 56.92 35.93 57.99 C 35.48 57.99 34.59 58.00 34.15 58.00 C 34.10 57.49 34.02 56.47 33.98 55.97 C 32.65 55.95 31.32 55.94 29.98 55.92 C 30.01 55.63 30.05 55.07 30.08 54.78 C 30.98 53.90 31.85 52.99 32.71 52.06 Z" />
<path fill="#ffffff" opacity="1.00" d=" M 67.00 51.98 C 68.01 51.47 70.66 52.03 69.71 53.58 C 68.56 55.27 64.28 53.31 67.00 51.98 Z" />
<path fill="#ffffff" opacity="1.00" d=" M 72.06 52.02 C 73.11 52.03 74.17 52.05 75.23 52.06 C 76.10 52.99 77.01 53.89 77.94 54.76 C 77.97 57.16 77.97 59.56 77.95 61.96 C 75.32 61.94 72.69 61.94 70.06 61.95 C 70.04 61.48 70.01 60.53 70.00 60.06 C 72.02 60.05 74.03 60.04 76.05 60.03 C 76.05 59.51 76.05 58.48 76.05 57.96 C 74.04 57.95 72.03 57.94 70.02 57.93 C 70.01 57.49 70.00 56.60 70.00 56.16 C 70.51 56.11 71.53 56.02 72.04 55.98 C 72.05 54.66 72.05 53.34 72.06 52.02 Z" />
<path fill="#ffffff" opacity="1.00" d=" M 38.06 54.06 C 38.52 54.04 39.44 54.02 39.91 54.00 C 39.93 55.31 39.96 56.61 39.98 57.92 C 39.50 57.93 38.54 57.97 38.06 57.99 C 38.06 56.68 38.06 55.37 38.06 54.06 Z" />
<path fill="#ffffff" opacity="1.00" d=" M 42.00 54.06 C 44.67 54.08 47.34 54.08 50.01 54.06 C 49.99 54.35 49.95 54.94 49.93 55.23 C 49.01 56.11 48.11 57.01 47.24 57.94 C 46.41 57.94 45.59 57.94 44.76 57.94 C 43.89 57.02 42.99 56.11 42.07 55.23 C 42.05 54.94 42.02 54.35 42.00 54.06 Z" />
<path fill="#ffffff" opacity="1.00" d=" M 62.17 54.18 C 63.78 53.64 64.35 54.18 63.85 55.82 C 62.23 56.36 61.67 55.82 62.17 54.18 Z" />
<path fill="#ffffff" opacity="1.00" d=" M 42.31 58.25 C 43.74 57.87 44.20 58.37 43.69 59.75 C 42.26 60.14 41.80 59.64 42.31 58.25 Z" />
<path fill="#ffffff" opacity="1.00" d=" M 48.76 58.07 C 49.03 58.05 49.58 58.00 49.85 57.97 C 49.89 58.49 49.97 59.53 50.01 60.06 C 50.50 60.05 51.49 60.05 51.99 60.05 C 52.03 59.53 52.11 58.50 52.15 57.99 C 52.59 58.00 53.48 58.02 53.92 58.04 C 53.94 59.33 53.96 60.63 53.98 61.93 C 52.66 61.94 51.33 61.95 50.01 61.96 C 49.97 62.48 49.89 63.51 49.85 64.03 C 49.58 64.01 49.03 63.95 48.76 63.93 C 47.88 63.01 46.98 62.12 46.07 61.25 C 46.07 61.12 46.07 60.87 46.07 60.74 C 46.98 59.87 47.88 58.98 48.76 58.07 Z" />
<path fill="#ffffff" opacity="1.00" d=" M 66.54 58.30 C 67.45 57.15 70.53 58.11 69.30 59.69 C 68.40 60.87 65.23 59.87 66.54 58.30 Z" />
<path fill="#ffffff" opacity="1.00" d=" M 21.26 59.26 C 21.52 59.52 21.52 59.52 21.26 59.26 Z" />
<path fill="#ffffff" opacity="1.00" d=" M 36.41 58.79 C 37.88 57.71 38.61 60.60 37.60 61.41 C 36.14 62.56 35.36 59.58 36.41 58.79 Z" />
<path fill="#ffffff" opacity="1.00" d=" M 11.03 59.98 C 12.32 60.70 12.30 61.37 10.97 62.01 C 9.68 61.30 9.70 60.62 11.03 59.98 Z" />
<path fill="#ffffff" opacity="1.00" d=" M 16.36 60.46 C 17.33 59.73 19.43 59.62 19.89 60.98 C 19.61 62.68 15.40 62.36 16.36 60.46 Z" />
<path fill="#ffffff" opacity="1.00" d=" M 40.06 60.01 C 40.53 60.01 41.47 60.02 41.94 60.02 C 41.95 61.36 41.96 62.70 41.97 64.04 C 42.47 64.05 43.48 64.05 43.98 64.05 C 44.02 63.53 44.10 62.49 44.14 61.97 C 44.42 62.00 44.98 62.04 45.25 62.07 C 46.10 62.98 46.97 63.87 47.86 64.74 C 47.90 65.05 47.98 65.67 48.02 65.97 C 49.91 66.56 54.69 64.59 53.85 67.86 C 51.90 67.99 49.95 68.01 48.00 68.03 C 47.97 68.53 47.90 69.51 47.86 70.00 C 46.58 69.97 45.30 69.94 44.01 69.91 C 44.01 69.47 44.00 68.58 44.00 68.14 C 44.51 68.10 45.53 68.03 46.04 67.99 C 46.05 67.48 46.06 66.46 46.06 65.95 C 45.55 65.95 44.53 65.95 44.01 65.95 C 43.97 66.46 43.90 67.49 43.86 68.00 C 42.58 67.98 41.31 67.96 40.03 67.94 C 40.05 65.30 40.07 62.65 40.06 60.01 Z" />
<path fill="#ffffff" opacity="1.00" d=" M 54.06 62.03 C 56.04 62.04 58.02 62.05 60.01 62.07 C 60.00 62.39 59.98 63.03 59.97 63.35 C 58.28 63.91 56.61 65.64 59.74 66.72 L 60.03 67.37 C 59.53 67.67 58.51 68.27 58.01 68.57 C 57.97 68.92 57.90 69.63 57.87 69.99 C 56.59 69.97 55.31 69.94 54.04 69.92 C 54.03 69.48 54.00 68.58 53.99 68.14 C 54.50 68.10 55.53 68.02 56.05 67.99 C 56.05 67.49 56.05 66.50 56.05 66.00 C 55.54 65.97 54.52 65.91 54.01 65.88 C 54.03 64.60 54.04 63.32 54.06 62.03 Z" />
<path fill="#ffffff" opacity="1.00" d=" M 60.17 64.17 C 61.79 63.64 62.35 64.20 61.84 65.83 C 60.21 66.35 59.66 65.80 60.17 64.17 Z" />
<path fill="#ffffff" opacity="1.00" d=" M 64.05 64.05 C 66.01 64.05 67.98 64.04 69.95 64.04 C 69.95 66.01 69.96 67.98 69.96 69.95 C 67.99 69.95 66.02 69.95 64.05 69.95 C 64.05 67.99 64.05 66.02 64.05 64.05 M 66.16 66.18 C 65.66 67.81 66.22 68.36 67.84 67.82 C 68.34 66.18 67.78 65.64 66.16 66.18 Z" />
<path fill="#ffffff" opacity="1.00" d=" M 72.04 64.04 C 73.35 64.05 74.65 64.05 75.96 64.06 C 75.97 64.51 76.00 65.40 76.01 65.84 C 75.50 65.89 74.47 65.97 73.96 66.02 C 73.95 67.34 73.93 68.67 73.92 69.99 C 73.46 69.99 72.53 69.99 72.07 69.98 C 72.06 68.00 72.05 66.02 72.04 64.04 Z" />
<path fill="#ffffff" opacity="1.00" d=" M 8.04 68.04 C 11.35 68.04 14.65 68.04 17.96 68.04 C 17.95 71.35 17.95 74.65 17.96 77.96 C 14.65 77.95 11.34 77.95 8.03 77.96 C 8.04 74.65 8.04 71.34 8.04 68.04 M 9.95 69.95 C 9.95 71.98 9.95 74.01 9.95 76.05 C 11.98 76.05 14.01 76.04 16.04 76.04 C 16.04 74.01 16.04 71.98 16.04 69.95 C 14.01 69.95 11.98 69.95 9.95 69.95 Z" />
<path fill="#ffffff" opacity="1.00" d=" M 38.27 68.59 C 41.24 66.94 38.48 72.01 38.27 68.59 Z" />
<path fill="#ffffff" opacity="1.00" d=" M 40.37 70.45 C 41.35 69.73 43.46 69.62 43.90 71.00 C 43.57 72.68 39.38 72.33 40.37 70.45 Z" />
<path fill="#ffffff" opacity="1.00" d=" M 74.25 70.31 C 75.63 69.80 76.13 70.25 75.75 71.68 C 74.36 72.20 73.86 71.74 74.25 70.31 Z" />
<path fill="#ffffff" opacity="1.00" d=" M 72.37 72.33 C 74.42 71.17 74.91 75.65 73.02 75.97 C 71.51 75.62 71.54 73.33 72.37 72.33 Z" />
<path fill="#ffffff" opacity="1.00" d=" M 40.29 74.41 C 41.27 73.53 43.54 73.49 43.97 74.97 C 43.72 76.88 39.27 76.48 40.29 74.41 Z" />
</g>
<g id="#4e6fa3ff">
<path fill="#4e6fa3" opacity="1.00" d=" M 5.95 5.95 C 10.65 5.95 15.35 5.95 20.05 5.95 C 20.04 10.65 20.05 15.35 20.05 20.05 C 15.35 20.05 10.65 20.05 5.95 20.05 C 5.95 15.35 5.96 10.65 5.95 5.95 M 8.04 8.04 C 8.04 11.34 8.04 14.65 8.04 17.96 C 11.34 17.96 14.65 17.96 17.96 17.96 C 17.96 14.66 17.96 11.35 17.96 8.04 C 14.66 8.04 11.35 8.04 8.04 8.04 Z" />
<path fill="#4e6fa3" opacity="1.00" d=" M 21.95 5.95 C 23.32 5.95 24.68 5.95 26.04 5.95 C 26.04 7.31 26.04 8.68 26.04 10.05 C 24.68 10.05 23.31 10.05 21.95 10.05 C 21.95 8.68 21.95 7.32 21.95 5.95 Z" />
<path fill="#4e6fa3" opacity="1.00" d=" M 27.95 5.95 C 28.48 5.95 29.52 5.94 30.05 5.94 C 30.05 7.31 30.05 8.68 30.05 10.06 C 29.52 10.05 28.48 10.05 27.95 10.05 C 27.95 8.68 27.95 7.31 27.95 5.95 Z" />
<path fill="#4e6fa3" opacity="1.00" d=" M 31.95 5.96 C 32.47 5.95 33.52 5.94 34.04 5.94 C 34.04 7.31 34.04 8.68 34.04 10.05 C 33.52 10.05 32.47 10.05 31.95 10.05 C 31.95 8.68 31.95 7.32 31.95 5.96 Z" />
<path fill="#4e6fa3" opacity="1.00" d=" M 37.94 5.94 C 38.45 5.94 39.46 5.95 39.97 5.95 C 40.01 6.28 40.09 6.94 40.12 7.27 C 41.02 8.14 41.90 9.02 42.76 9.93 C 43.05 9.95 43.64 9.99 43.93 10.01 C 43.94 8.66 43.95 7.30 43.96 5.95 C 45.99 5.95 48.02 5.95 50.05 5.95 C 50.05 7.29 50.05 8.64 50.05 9.98 C 49.54 10.03 48.51 10.11 47.99 10.15 C 48.00 10.59 48.01 11.48 48.01 11.92 C 49.34 11.94 50.66 11.95 51.99 11.96 C 52.02 12.47 52.09 13.48 52.13 13.99 C 54.08 13.96 56.04 13.95 57.99 13.93 C 58.03 14.45 58.10 15.49 58.14 16.01 C 58.59 16.00 59.48 15.98 59.93 15.97 C 59.95 14.70 59.98 13.42 60.00 12.15 C 59.49 12.11 58.46 12.03 57.95 11.99 C 57.95 11.50 57.95 10.51 57.95 10.01 C 58.46 9.97 59.49 9.90 60.00 9.87 C 60.00 9.43 60.00 8.57 60.00 8.13 C 59.49 8.10 58.46 8.02 57.95 7.98 C 57.95 7.48 57.95 6.46 57.95 5.95 C 59.32 5.95 60.69 5.95 62.06 5.94 C 62.04 7.25 62.02 8.55 62.00 9.86 C 62.51 9.90 63.54 9.98 64.05 10.02 C 64.04 13.36 64.04 16.70 64.05 20.04 C 63.54 20.05 62.52 20.05 62.01 20.06 C 61.97 19.54 61.89 18.51 61.86 18.00 C 61.43 18.00 60.57 18.00 60.14 18.00 C 60.10 18.51 60.02 19.54 59.98 20.06 C 59.48 20.06 58.46 20.06 57.95 20.05 C 57.95 18.71 57.95 17.38 57.95 16.04 C 55.97 16.04 53.99 16.05 52.02 16.05 C 52.03 17.36 52.05 18.68 52.08 19.99 C 52.52 19.99 53.41 20.00 53.85 20.00 C 53.89 19.49 53.97 18.47 54.01 17.95 C 54.52 17.96 55.54 17.96 56.04 17.96 C 56.05 19.05 56.05 20.14 56.06 21.23 C 56.98 22.11 57.89 23.01 58.77 23.93 C 59.05 23.95 59.60 24.01 59.87 24.03 C 59.91 23.51 59.98 22.47 60.02 21.94 C 60.52 21.94 61.54 21.94 62.05 21.94 C 62.05 22.45 62.05 23.49 62.05 24.00 C 61.55 24.02 60.56 24.05 60.06 24.06 C 60.05 24.50 60.02 25.38 60.01 25.82 C 59.00 26.06 54.48 25.82 56.47 27.53 L 57.94 28.63 C 58.06 30.90 57.43 33.80 60.13 34.84 C 60.08 32.55 59.97 30.27 59.89 27.98 C 60.40 27.97 61.42 27.94 61.93 27.93 C 61.94 27.44 61.98 26.45 61.99 25.95 C 62.51 25.95 63.54 25.96 64.05 25.96 C 64.05 26.47 64.05 27.48 64.05 27.98 C 63.53 28.02 62.50 28.11 61.98 28.15 C 61.99 28.45 62.01 29.03 62.02 29.33 C 62.85 29.92 63.66 30.55 64.45 31.21 C 63.26 32.11 62.15 33.08 61.10 34.14 C 62.73 34.06 64.36 33.97 66.00 33.89 C 65.97 32.58 65.96 31.26 65.94 29.95 C 66.45 29.95 67.46 29.94 67.97 29.94 C 68.01 30.27 68.09 30.93 68.13 31.26 C 69.02 32.13 69.89 33.02 70.74 33.94 C 70.87 33.94 71.13 33.94 71.26 33.94 C 72.11 33.03 72.98 32.13 73.87 31.26 C 73.91 30.93 73.99 30.27 74.02 29.94 C 74.52 29.94 75.50 29.94 75.99 29.94 C 76.03 30.46 76.10 31.49 76.13 32.01 C 76.58 32.00 77.49 31.99 77.94 31.98 C 77.95 30.00 77.95 28.01 77.95 26.02 C 77.50 26.01 76.59 26.00 76.14 25.99 C 76.10 26.51 76.02 27.55 75.98 28.07 C 74.70 28.05 73.42 28.02 72.15 28.00 C 72.11 28.51 72.02 29.54 71.98 30.05 C 71.48 30.05 70.46 30.05 69.95 30.05 C 69.95 28.69 69.95 27.33 69.95 25.98 C 71.30 25.96 72.65 25.94 74.01 25.92 C 74.00 25.45 73.98 24.53 73.97 24.06 C 71.99 24.05 70.02 24.04 68.04 24.03 C 68.04 25.37 68.04 26.71 68.05 28.05 C 67.52 28.05 66.48 28.06 65.95 28.06 C 65.95 26.70 65.95 25.35 65.95 24.00 C 66.45 23.98 67.44 23.94 67.94 23.92 C 67.96 23.42 67.99 22.44 68.00 21.95 C 70.00 21.95 71.99 21.95 73.99 21.95 C 74.03 22.46 74.10 23.49 74.14 24.00 C 74.57 24.00 75.43 24.00 75.86 24.00 C 75.90 23.49 75.98 22.46 76.02 21.95 C 77.36 21.95 78.70 21.95 80.05 21.95 C 80.04 26.62 80.05 31.29 80.05 35.96 C 79.72 36.01 79.06 36.10 78.73 36.14 C 77.86 37.03 76.97 37.91 76.06 38.76 C 76.06 39.84 76.07 40.92 76.07 42.00 C 76.52 42.00 77.41 42.00 77.86 42.00 C 77.90 41.49 77.98 40.46 78.02 39.95 C 78.53 39.95 79.54 39.95 80.05 39.96 C 80.05 41.96 80.05 43.97 80.05 45.98 C 79.54 46.02 78.52 46.10 78.01 46.14 C 78.01 47.38 78.01 48.62 78.01 49.87 C 78.52 49.90 79.54 49.97 80.05 50.01 C 80.05 50.50 80.05 51.49 80.05 51.98 C 79.54 52.02 78.51 52.10 78.00 52.14 C 78.00 52.57 78.00 53.44 78.00 53.87 C 78.51 53.90 79.54 53.97 80.05 54.00 C 80.04 56.66 80.04 59.33 80.05 61.99 C 79.54 62.03 78.51 62.10 78.00 62.14 C 78.00 62.57 78.00 63.43 78.00 63.86 C 78.51 63.90 79.54 63.98 80.05 64.01 C 80.05 65.35 80.05 66.69 80.05 68.03 C 78.70 68.04 77.35 68.05 76.00 68.07 C 76.02 68.36 76.05 68.95 76.07 69.25 C 76.98 70.10 77.87 70.97 78.74 71.87 C 79.06 71.91 79.72 71.99 80.05 72.03 C 80.05 73.37 80.05 74.71 80.05 76.05 C 79.54 76.05 78.52 76.05 78.01 76.05 C 77.97 75.54 77.89 74.51 77.85 74.00 C 77.42 74.00 76.57 74.00 76.14 74.00 C 76.10 74.50 76.03 75.51 76.00 76.02 C 75.52 76.02 74.56 76.04 74.08 76.05 C 74.07 76.53 74.05 77.51 74.03 77.99 C 73.54 78.02 72.55 78.07 72.05 78.09 C 72.04 78.58 72.01 79.57 72.00 80.06 C 71.49 80.05 70.47 80.05 69.96 80.04 C 69.96 79.53 69.95 78.52 69.95 78.01 C 70.46 77.97 71.49 77.90 72.00 77.86 C 72.00 77.43 72.00 76.57 72.00 76.13 C 71.50 76.10 70.51 76.03 70.01 75.99 C 69.98 75.68 69.90 75.05 69.87 74.74 C 68.98 73.87 68.11 72.98 67.26 72.07 C 66.98 72.04 66.43 71.99 66.15 71.97 C 66.11 72.49 66.03 73.53 65.99 74.06 C 64.64 74.05 63.30 74.05 61.96 74.05 C 61.95 72.04 61.95 70.03 61.94 68.01 C 61.65 68.03 61.06 68.06 60.76 68.08 C 59.88 68.99 58.98 69.89 58.06 70.76 C 58.01 73.40 58.04 76.05 58.20 78.69 C 59.03 77.81 59.83 76.92 60.62 76.01 C 61.74 75.98 62.86 75.95 63.98 75.93 C 64.02 76.45 64.10 77.49 64.14 78.01 C 65.44 77.98 66.74 77.96 68.04 77.94 C 68.04 78.46 68.04 79.52 68.04 80.05 C 66.03 80.05 64.02 80.05 62.01 80.05 C 61.97 79.54 61.90 78.51 61.86 78.00 C 61.43 78.00 60.56 78.00 60.13 78.00 C 60.09 78.51 60.02 79.53 59.99 80.05 C 58.67 80.05 57.34 80.05 56.02 80.05 C 55.98 79.54 55.90 78.51 55.86 78.00 C 54.56 78.02 53.25 78.04 51.95 78.06 C 51.95 77.53 51.95 76.49 51.95 75.96 C 53.29 75.95 54.64 75.94 55.98 75.93 C 55.96 74.63 55.94 73.32 55.91 72.01 C 55.47 72.01 54.59 72.00 54.15 72.00 C 54.11 72.51 54.02 73.54 53.98 74.06 C 53.47 74.06 52.46 74.06 51.95 74.06 C 51.95 73.55 51.96 72.53 51.96 72.02 C 52.47 71.97 53.49 71.89 54.01 71.85 C 54.00 71.40 53.98 70.50 53.97 70.06 C 51.99 70.05 50.01 70.05 48.04 70.05 C 48.03 70.50 48.00 71.40 47.99 71.85 C 48.51 71.89 49.54 71.97 50.05 72.01 C 50.04 74.69 50.04 77.37 50.05 80.05 C 48.69 80.05 47.32 80.05 45.95 80.05 C 45.95 79.54 45.95 78.52 45.95 78.01 C 46.46 77.97 47.49 77.90 48.00 77.87 C 47.97 75.92 47.94 73.97 47.92 72.02 C 47.46 72.02 46.55 72.00 46.09 72.00 C 46.07 73.33 46.05 74.67 46.03 76.00 C 45.54 76.02 44.56 76.04 44.07 76.06 C 44.06 76.54 44.03 77.51 44.02 78.00 C 43.53 78.02 42.55 78.06 42.06 78.08 C 42.04 78.58 42.02 79.56 42.00 80.05 C 41.51 80.05 40.51 80.05 40.02 80.05 C 39.98 79.54 39.89 78.51 39.85 78.00 C 39.42 78.00 38.56 78.00 38.13 78.00 C 38.10 78.51 38.03 79.53 37.99 80.05 C 36.65 80.05 35.30 80.05 33.96 80.05 C 33.96 78.68 33.96 77.32 33.96 75.96 C 34.46 75.95 35.48 75.95 35.98 75.95 C 36.03 76.46 36.11 77.49 36.15 78.01 C 36.60 78.00 37.48 77.99 37.93 77.98 C 37.94 76.66 37.95 75.34 37.95 74.02 C 38.47 73.97 39.51 73.89 40.03 73.85 C 40.01 73.57 39.95 73.03 39.93 72.76 C 39.02 71.89 38.14 71.01 37.27 70.11 C 36.94 70.08 36.28 70.01 35.95 69.98 C 35.95 69.49 35.95 68.50 35.95 68.01 C 36.46 67.97 37.50 67.90 38.01 67.86 C 37.98 66.83 37.95 65.80 37.92 64.77 C 37.02 63.91 36.14 63.02 35.29 62.12 C 34.97 62.09 34.33 62.02 34.01 61.99 C 33.97 61.49 33.90 60.49 33.87 59.99 C 33.42 60.00 32.53 60.01 32.09 60.01 C 32.06 61.29 32.03 62.57 31.99 63.85 C 32.51 63.89 33.53 63.97 34.04 64.02 C 34.04 65.34 34.04 66.67 34.04 68.00 C 33.53 68.03 32.51 68.10 32.00 68.13 C 32.00 68.56 32.00 69.42 32.00 69.85 C 32.51 69.89 33.54 69.97 34.05 70.01 C 34.05 70.51 34.04 71.50 34.04 71.99 C 33.54 72.03 32.53 72.10 32.03 72.14 C 32.03 74.77 32.03 77.41 32.06 80.05 C 31.54 80.05 30.49 80.05 29.97 80.05 C 29.95 78.70 29.93 77.35 29.91 75.99 C 29.45 76.00 28.54 76.02 28.08 76.02 C 28.06 77.36 28.05 78.71 28.03 80.05 C 26.67 80.05 25.31 80.05 23.95 80.05 C 23.95 78.70 23.95 77.35 23.95 76.00 C 24.45 75.98 25.44 75.94 25.94 75.92 C 25.95 75.43 25.98 74.46 25.99 73.97 C 27.33 73.95 28.67 73.93 30.00 73.90 C 30.00 73.45 29.99 72.54 29.99 72.08 C 28.64 72.06 27.30 72.05 25.96 72.03 C 25.96 71.52 25.95 70.50 25.95 69.99 C 26.45 69.98 27.43 69.94 27.93 69.93 C 27.94 69.44 27.97 68.45 27.99 67.96 C 29.33 67.95 30.67 67.94 32.01 67.93 C 31.99 67.64 31.95 67.06 31.93 66.77 C 31.01 65.90 30.11 64.99 29.23 64.07 C 29.11 64.06 28.86 64.06 28.73 64.06 C 27.89 64.98 27.02 65.87 26.14 66.75 C 26.09 67.08 26.01 67.72 25.97 68.05 C 25.48 68.05 24.49 68.05 23.99 68.05 C 23.98 67.56 23.95 66.58 23.94 66.09 C 23.44 66.07 22.44 66.03 21.95 66.00 C 21.95 65.49 21.95 64.47 21.95 63.95 C 23.71 63.95 25.48 63.95 27.24 63.94 C 28.12 63.01 29.02 62.10 29.94 61.22 C 29.94 60.16 29.94 59.10 29.94 58.05 C 29.50 58.03 28.60 58.01 28.16 57.99 C 28.11 58.51 28.03 59.54 27.99 60.05 C 27.48 60.05 26.46 60.05 25.96 60.05 C 25.96 59.54 25.96 58.51 25.96 58.00 C 26.46 57.97 27.47 57.91 27.98 57.88 C 27.96 55.91 27.95 53.94 27.94 51.97 C 29.29 51.96 30.63 51.94 31.98 51.93 C 31.98 51.47 32.00 50.55 32.01 50.09 C 30.65 50.07 29.30 50.05 27.95 50.03 C 27.95 49.52 27.95 48.50 27.95 48.00 C 29.61 47.95 31.28 47.90 32.94 47.85 C 33.13 48.95 33.34 50.04 33.57 51.13 C 35.51 53.09 38.53 52.79 41.01 53.50 C 43.59 52.63 46.36 52.50 49.05 52.90 C 51.22 53.84 53.61 53.95 55.94 54.13 C 55.96 53.64 55.99 52.64 56.01 52.14 C 55.49 52.10 54.45 52.02 53.92 51.98 C 53.92 50.64 53.91 49.30 53.91 47.96 C 55.26 47.95 56.62 47.94 57.98 47.93 C 57.96 46.63 57.94 45.32 57.92 44.02 C 57.48 44.01 56.58 44.00 56.14 44.00 C 56.10 44.50 56.02 45.52 55.99 46.03 C 55.18 46.05 53.56 46.09 52.75 46.11 C 52.75 45.56 52.74 44.46 52.73 43.90 C 53.55 43.91 55.17 43.93 55.99 43.94 C 56.00 43.60 56.03 42.94 56.05 42.60 C 50.54 41.12 54.74 33.51 49.99 31.40 C 49.97 30.27 49.95 29.14 49.94 28.01 C 50.46 27.97 51.49 27.89 52.01 27.86 C 52.00 27.41 51.98 26.52 51.98 26.07 C 50.70 26.05 49.42 26.02 48.14 26.00 C 48.10 26.51 48.02 27.54 47.99 28.05 C 47.49 28.05 46.50 28.05 46.01 28.05 C 45.97 27.53 45.89 26.50 45.85 25.99 C 45.40 26.00 44.50 26.03 44.05 26.04 C 44.05 28.02 44.05 30.00 44.06 31.98 C 44.51 31.98 45.40 31.99 45.85 32.00 C 45.89 31.48 45.98 30.45 46.02 29.94 C 46.52 29.94 47.53 29.95 48.03 29.95 C 48.07 30.36 48.14 31.17 48.17 31.58 C 46.08 33.36 43.20 33.18 40.64 33.46 C 40.24 32.98 39.44 32.01 39.04 31.53 C 38.63 31.95 37.82 32.80 37.41 33.23 C 35.59 33.53 33.79 33.86 31.98 34.21 C 32.02 35.49 32.05 36.77 32.08 38.05 C 31.55 38.05 30.49 38.05 29.96 38.05 C 29.95 36.69 29.93 35.34 29.92 33.99 C 29.45 34.00 28.52 34.03 28.05 34.04 C 28.05 35.77 28.05 37.49 28.06 39.22 C 28.98 40.10 29.88 41.01 30.76 41.94 C 31.38 41.94 32.63 41.94 33.26 41.94 C 33.26 43.31 33.26 44.69 33.27 46.06 L 32.03 46.07 C 32.00 45.74 31.92 45.08 31.88 44.74 C 30.98 43.87 30.11 42.97 29.25 42.06 C 29.13 42.06 28.88 42.06 28.75 42.06 C 27.89 42.97 27.02 43.86 26.13 44.74 C 26.09 45.07 26.01 45.72 25.98 46.05 C 25.47 46.05 24.45 46.05 23.94 46.04 C 23.95 44.73 23.97 43.43 23.99 42.12 C 23.48 42.09 22.45 42.03 21.93 42.00 C 21.95 40.88 21.97 39.76 21.99 38.64 C 22.53 38.25 23.62 37.46 24.16 37.07 C 23.19 35.02 19.93 36.48 18.02 35.99 C 18.02 36.45 18.00 37.37 18.00 37.84 C 18.51 37.88 19.54 37.97 20.05 38.02 C 20.05 38.53 20.05 39.54 20.05 40.05 C 19.54 40.05 18.52 40.05 18.02 40.05 C 17.98 39.53 17.90 38.51 17.86 37.99 C 17.41 38.00 16.51 38.02 16.06 38.03 C 16.05 40.02 16.04 42.00 16.03 43.99 C 15.52 44.03 14.48 44.10 13.97 44.14 C 13.99 44.41 14.05 44.95 14.08 45.22 C 14.99 46.10 15.88 47.01 16.75 47.93 C 17.03 47.96 17.58 48.01 17.86 48.03 C 17.90 47.51 17.98 46.47 18.02 45.94 C 19.35 45.94 20.69 45.95 22.03 45.95 C 22.05 47.29 22.06 48.64 22.08 49.98 C 22.53 49.99 23.42 50.00 23.86 50.01 C 23.90 49.49 23.97 48.47 24.01 47.95 C 24.52 47.95 25.53 47.95 26.04 47.95 C 26.04 48.46 26.04 49.48 26.04 49.99 C 25.53 50.02 24.52 50.09 24.01 50.13 C 24.03 52.08 24.05 54.04 24.06 55.99 C 23.55 56.03 22.51 56.11 22.00 56.15 C 22.00 56.57 22.00 57.43 22.00 57.86 C 22.51 57.89 23.54 57.97 24.05 58.01 C 24.05 59.36 24.05 60.71 24.05 62.06 C 22.74 62.04 21.44 62.03 20.13 62.01 C 20.10 62.52 20.03 63.54 19.99 64.05 C 18.66 64.05 17.34 64.05 16.01 64.05 C 15.97 63.54 15.91 62.52 15.87 62.02 C 14.63 62.02 13.39 62.02 12.15 62.01 C 12.10 62.52 12.02 63.54 11.98 64.05 C 9.97 64.05 7.96 64.05 5.96 64.05 C 5.95 63.54 5.95 62.52 5.95 62.01 C 6.46 61.97 7.49 61.90 8.00 61.86 C 8.00 61.42 8.00 60.56 8.00 60.13 C 7.49 60.09 6.46 60.02 5.95 59.98 C 5.94 59.48 5.94 58.46 5.93 57.95 C 6.45 57.95 7.47 57.95 7.99 57.95 C 8.02 58.46 8.09 59.49 8.13 60.00 C 8.56 60.00 9.43 60.00 9.86 60.00 C 9.90 59.48 9.97 58.45 10.01 57.94 C 11.29 57.95 12.57 57.98 13.85 58.00 C 13.89 57.49 13.98 56.46 14.02 55.95 C 14.52 55.95 15.51 55.95 16.01 55.95 C 16.02 56.53 16.05 57.69 16.06 58.27 C 17.63 58.07 19.22 57.92 20.70 57.31 C 19.47 56.30 18.30 55.22 17.20 54.07 C 15.45 54.05 13.70 54.05 11.94 54.04 C 11.94 52.68 11.94 51.32 11.94 49.95 C 12.46 49.95 13.48 49.95 13.99 49.95 C 14.03 50.46 14.11 51.49 14.15 52.01 C 14.59 52.00 15.49 51.98 15.94 51.97 C 15.95 50.67 15.96 49.36 15.96 48.05 C 14.65 48.05 13.33 48.05 12.02 48.05 C 11.98 47.53 11.89 46.51 11.85 46.00 C 10.58 46.02 9.32 46.04 8.06 46.06 C 8.04 47.33 8.02 48.59 8.00 49.86 C 8.52 49.90 9.55 49.98 10.06 50.02 C 10.06 50.51 10.06 51.50 10.05 51.99 C 9.54 52.02 8.51 52.09 8.00 52.12 C 8.02 53.43 8.04 54.74 8.06 56.05 C 7.53 56.05 6.48 56.05 5.95 56.05 C 5.96 52.70 5.96 49.35 5.95 46.01 C 6.46 45.97 7.48 45.90 7.99 45.86 C 7.99 44.62 7.99 43.38 7.99 42.14 C 7.48 42.10 6.46 42.02 5.94 41.98 C 5.95 41.49 5.95 40.50 5.95 40.01 C 6.46 39.97 7.49 39.90 8.00 39.86 C 8.00 39.43 8.00 38.57 8.00 38.14 C 7.49 38.10 6.46 38.03 5.95 37.99 C 5.96 33.99 5.96 30.00 5.95 26.00 C 6.44 25.98 7.44 25.95 7.94 25.93 C 7.95 25.43 7.99 24.44 8.00 23.94 C 9.29 23.95 10.59 23.97 11.88 23.99 C 11.91 23.48 11.98 22.46 12.01 21.94 C 12.52 21.94 13.54 21.94 14.05 21.93 C 14.05 22.45 14.05 23.47 14.05 23.98 C 13.53 24.02 12.51 24.10 11.99 24.14 C 12.00 24.60 12.02 25.50 12.03 25.95 C 14.69 25.94 17.34 25.96 20.00 25.97 C 20.03 26.47 20.11 27.49 20.14 28.00 C 20.57 28.00 21.42 28.00 21.84 28.00 C 21.89 27.49 21.97 26.46 22.01 25.94 C 23.30 25.96 24.59 25.98 25.87 26.00 C 25.91 25.49 25.98 24.46 26.01 23.95 C 26.52 23.95 27.53 23.95 28.04 23.95 C 28.04 26.63 28.07 29.31 28.06 31.98 C 28.51 31.99 29.40 32.00 29.84 32.01 C 29.89 31.49 29.98 30.46 30.02 29.95 C 31.09 29.94 32.16 29.94 33.23 29.93 C 34.11 29.01 35.00 28.11 35.92 27.23 C 35.95 26.20 35.98 25.17 36.01 24.14 C 35.50 24.10 34.47 24.03 33.96 23.99 C 33.96 21.99 33.96 19.99 33.95 18.00 C 34.44 17.99 35.42 17.97 35.91 17.96 C 35.93 17.47 35.97 16.49 35.99 16.00 C 36.48 15.98 37.47 15.93 37.96 15.91 C 37.97 15.41 37.98 14.43 37.99 13.94 C 39.32 13.94 40.65 13.94 41.99 13.95 C 42.02 14.46 42.10 15.49 42.14 16.00 C 43.43 15.98 44.72 15.96 46.01 15.94 C 46.02 16.44 46.05 17.44 46.07 17.93 C 46.56 17.95 47.55 17.98 48.05 18.00 C 48.05 18.51 48.05 19.54 48.05 20.05 C 47.54 20.05 46.52 20.05 46.01 20.05 C 45.97 19.53 45.88 18.51 45.84 18.00 C 45.40 18.00 44.52 18.00 44.07 18.01 C 44.07 19.08 44.06 20.15 44.06 21.23 C 44.98 22.11 45.89 23.02 46.78 23.94 C 49.19 23.96 51.60 23.95 54.01 23.93 C 54.00 23.47 53.98 22.54 53.97 22.07 C 52.63 22.06 51.29 22.05 49.95 22.04 C 49.96 19.38 49.94 16.71 49.95 14.05 C 47.98 14.05 46.00 14.05 44.03 14.04 C 43.99 13.71 43.91 13.06 43.87 12.73 C 42.98 11.86 42.10 10.97 41.25 10.07 C 40.98 10.04 40.43 10.00 40.16 9.97 C 40.11 10.49 40.02 11.54 39.98 12.06 C 39.47 12.05 38.45 12.05 37.95 12.05 C 37.94 11.54 37.94 10.52 37.94 10.01 C 38.45 9.97 39.48 9.90 40.00 9.86 C 40.00 9.43 40.00 8.57 40.00 8.14 C 39.49 8.10 38.47 8.02 37.96 7.98 C 37.95 7.47 37.95 6.45 37.94 5.94 M 44.56 10.28 C 43.02 13.31 47.99 10.38 44.56 10.28 M 38.27 16.28 C 37.83 17.70 38.32 18.17 39.72 17.71 C 40.16 16.30 39.68 15.82 38.27 16.28 M 40.18 18.16 C 39.65 19.79 40.20 20.34 41.83 19.84 C 42.36 18.21 41.81 17.65 40.18 18.16 M 36.27 18.59 C 36.47 22.01 39.24 16.95 36.27 18.59 M 36.29 22.27 C 35.81 23.67 36.28 24.16 37.70 23.74 C 38.18 22.34 37.71 21.85 36.29 22.27 M 38.06 24.02 C 38.05 26.00 38.05 27.98 38.05 29.96 C 39.36 29.95 40.67 29.94 41.98 29.92 C 41.99 29.48 42.00 28.59 42.01 28.15 C 41.50 28.11 40.48 28.02 39.97 27.98 C 39.95 26.66 39.94 25.33 39.92 24.01 C 39.46 24.01 38.53 24.02 38.06 24.02 M 42.17 24.17 C 41.65 25.80 42.20 26.35 43.83 25.83 C 44.35 24.20 43.79 23.65 42.17 24.17 M 54.99 23.99 C 53.68 24.67 53.69 25.35 55.01 26.02 C 56.32 25.33 56.31 24.65 54.99 23.99 M 10.17 28.17 C 9.65 29.79 10.20 30.35 11.83 29.84 C 12.35 28.21 11.80 27.65 10.17 28.17 M 14.08 27.99 C 14.06 29.32 14.05 30.65 14.03 31.99 C 13.52 32.03 12.50 32.11 11.99 32.16 C 12.00 32.60 12.01 33.50 12.02 33.94 C 13.09 33.94 14.16 33.94 15.23 33.94 C 16.11 33.03 17.01 32.14 17.94 31.27 C 17.94 31.14 17.94 30.88 17.93 30.74 C 17.01 29.87 16.12 28.98 15.24 28.07 C 14.95 28.05 14.37 28.01 14.08 27.99 M 18.27 28.29 C 17.84 29.70 18.32 30.17 19.73 29.71 C 20.16 28.29 19.67 27.82 18.27 28.29 M 54.17 28.17 C 53.64 29.80 54.20 30.35 55.83 29.84 C 56.35 28.21 55.79 27.65 54.17 28.17 M 34.16 30.18 C 33.66 31.82 34.22 32.36 35.84 31.82 C 36.34 30.19 35.78 29.64 34.16 30.18 M 52.29 30.27 C 51.82 31.67 52.29 32.16 53.70 31.73 C 54.18 30.33 53.71 29.84 52.29 30.27 M 8.07 32.03 C 8.05 33.97 8.03 35.92 8.00 37.86 C 8.51 37.90 9.53 37.97 10.04 38.01 C 10.05 39.09 10.05 40.16 10.06 41.24 C 10.98 42.11 11.89 43.01 12.77 43.93 C 13.06 43.95 13.63 43.99 13.91 44.00 C 13.94 42.72 13.97 41.44 14.01 40.16 C 13.49 40.11 12.45 40.02 11.93 39.97 C 11.95 38.69 11.97 37.41 11.99 36.13 C 11.49 36.10 10.47 36.03 9.97 36.00 C 9.95 34.67 9.93 33.33 9.91 32.00 C 9.45 32.01 8.53 32.02 8.07 32.03 M 18.05 32.04 C 18.04 32.51 18.01 33.46 18.00 33.93 C 20.00 33.95 22.00 33.96 24.00 33.97 C 24.03 34.48 24.10 35.50 24.14 36.00 C 24.59 35.99 25.49 35.98 25.94 35.97 C 25.95 34.66 25.96 33.35 25.97 32.05 C 23.33 32.06 20.69 32.05 18.05 32.04 M 30.30 32.27 C 29.82 33.66 30.29 34.16 31.70 33.74 C 32.18 32.34 31.71 31.85 30.30 32.27 M 75.01 31.99 C 73.69 32.66 73.68 33.33 74.99 34.02 C 76.31 33.35 76.32 32.67 75.01 31.99 M 68.27 34.29 C 67.84 35.70 68.32 36.18 69.73 35.71 C 70.16 34.30 69.67 33.82 68.27 34.29 M 76.56 34.29 C 75.06 37.34 79.99 34.33 76.56 34.29 M 61.23 35.26 C 60.72 34.76 60.72 34.76 61.23 35.26 M 71.82 37.95 C 73.20 37.94 74.58 37.94 75.96 37.93 C 75.97 37.50 75.99 36.63 76.00 36.20 C 75.66 36.13 74.97 35.99 74.62 35.92 C 72.73 31.58 71.72 35.72 71.82 37.95 M 54.16 36.18 C 53.66 37.81 54.22 38.36 55.84 37.82 C 56.34 36.18 55.78 35.63 54.16 36.18 M 62.03 35.98 C 62.04 37.31 62.06 38.65 62.08 39.99 C 62.52 39.99 63.40 40.00 63.85 40.00 C 63.89 39.55 63.97 38.63 64.01 38.17 C 64.93 38.07 66.79 37.86 67.71 37.75 C 68.94 34.66 63.74 36.55 62.03 35.98 M 24.36 38.35 C 23.56 39.35 23.52 41.64 25.04 41.97 C 26.94 41.63 26.41 37.13 24.36 38.35 M 57.06 37.96 C 54.26 39.21 58.45 41.30 59.68 39.63 C 60.73 38.12 58.08 37.46 57.06 37.96 M 68.06 38.02 C 68.05 39.36 68.04 40.69 68.03 42.03 C 66.69 42.05 65.34 42.07 63.99 42.09 C 64.01 42.56 64.04 43.50 64.06 43.96 C 66.69 43.95 69.33 43.94 71.97 43.95 C 71.98 43.50 72.00 42.60 72.01 42.15 C 71.49 42.11 70.46 42.03 69.94 41.99 C 69.95 41.49 69.96 40.51 69.96 40.01 C 70.47 39.97 71.50 39.89 72.01 39.85 C 72.00 39.41 71.99 38.52 71.98 38.08 C 70.67 38.06 69.36 38.04 68.06 38.02 M 59.38 41.95 C 59.03 42.01 58.32 42.13 57.97 42.19 C 58.00 42.45 58.06 42.97 58.09 43.24 C 59.01 44.11 59.90 45.01 60.77 45.94 C 61.84 45.93 62.91 45.93 63.99 45.92 C 63.99 45.48 64.00 44.59 64.00 44.14 C 63.55 44.11 62.64 44.04 62.19 44.00 C 62.35 41.78 61.15 37.54 59.38 41.95 M 72.07 44.01 C 72.06 45.35 72.05 46.69 72.04 48.03 C 70.69 48.05 69.35 48.06 68.01 48.08 C 68.01 48.54 68.01 49.47 68.01 49.93 C 69.74 49.94 71.47 49.95 73.21 49.94 C 74.13 48.83 75.23 47.92 76.51 47.23 C 75.01 46.68 74.37 45.05 73.31 43.98 C 73.00 43.99 72.38 44.00 72.07 44.01 M 76.28 44.27 C 75.83 45.68 76.30 46.16 77.72 45.72 C 78.17 44.31 77.69 43.83 76.28 44.27 M 65.03 45.99 C 63.70 46.62 63.68 47.29 64.97 48.01 C 66.30 47.38 66.32 46.70 65.03 45.99 M 19.01 47.99 C 17.69 48.65 17.68 49.33 18.99 50.01 C 20.31 49.35 20.32 48.67 19.01 47.99 M 58.02 48.06 C 58.02 48.51 58.00 49.41 58.00 49.85 C 58.51 49.89 59.54 49.97 60.05 50.01 C 60.05 50.51 60.05 51.50 60.05 52.00 C 59.54 52.03 58.51 52.10 58.00 52.13 C 58.02 53.42 58.05 54.70 58.06 55.99 C 57.55 56.03 56.51 56.11 56.00 56.14 C 56.03 57.42 56.05 58.70 56.08 59.98 C 56.53 59.99 57.41 60.00 57.85 60.01 C 57.89 59.49 57.98 58.46 58.02 57.95 C 58.52 57.95 59.53 57.95 60.03 57.95 C 60.04 59.29 60.05 60.64 60.07 61.98 C 60.53 61.98 61.45 61.99 61.91 61.99 C 61.94 60.03 61.96 58.07 61.98 56.10 C 61.47 56.08 60.46 56.03 59.95 56.00 C 59.95 55.50 59.96 54.50 59.96 53.99 C 60.47 53.96 61.49 53.89 62.00 53.86 C 61.97 52.58 61.95 51.29 61.93 50.01 C 62.45 49.97 63.49 49.90 64.01 49.86 C 63.99 49.40 63.97 48.50 63.95 48.05 C 61.98 48.05 60.00 48.06 58.02 48.06 M 64.99 49.99 C 63.68 50.68 63.69 51.36 65.01 52.02 C 66.32 51.32 66.31 50.65 64.99 49.99 M 19.38 51.92 C 19.03 51.99 18.34 52.13 17.99 52.19 C 18.00 52.63 18.02 53.49 18.03 53.92 C 19.41 53.94 20.79 53.95 22.17 53.96 C 22.30 51.73 21.23 47.60 19.38 51.92 M 32.71 52.06 C 31.85 52.99 30.98 53.90 30.08 54.78 C 30.05 55.07 30.01 55.63 29.98 55.92 C 31.32 55.94 32.65 55.95 33.98 55.97 C 34.02 56.47 34.10 57.49 34.15 58.00 C 34.59 58.00 35.48 57.99 35.93 57.99 C 35.93 56.92 35.94 55.85 35.94 54.78 C 35.01 53.91 34.12 53.01 33.25 52.08 C 33.11 52.07 32.84 52.06 32.71 52.06 M 67.00 51.98 C 64.28 53.31 68.56 55.27 69.71 53.58 C 70.66 52.03 68.01 51.47 67.00 51.98 M 72.06 52.02 C 72.05 53.34 72.05 54.66 72.04 55.98 C 71.53 56.02 70.51 56.11 70.00 56.16 C 70.00 56.60 70.01 57.49 70.02 57.93 C 72.03 57.94 74.04 57.95 76.05 57.96 C 76.05 58.48 76.05 59.51 76.05 60.03 C 74.03 60.04 72.02 60.05 70.00 60.06 C 70.01 60.53 70.04 61.48 70.06 61.95 C 72.69 61.94 75.32 61.94 77.95 61.96 C 77.97 59.56 77.97 57.16 77.94 54.76 C 77.01 53.89 76.10 52.99 75.23 52.06 C 74.17 52.05 73.11 52.03 72.06 52.02 M 38.06 54.06 C 38.06 55.37 38.06 56.68 38.06 57.99 C 38.54 57.97 39.50 57.93 39.98 57.92 C 39.96 56.61 39.93 55.31 39.91 54.00 C 39.44 54.02 38.52 54.04 38.06 54.06 M 42.00 54.06 C 42.02 54.35 42.05 54.94 42.07 55.23 C 42.99 56.11 43.89 57.02 44.76 57.94 C 45.59 57.94 46.41 57.94 47.24 57.94 C 48.11 57.01 49.01 56.11 49.93 55.23 C 49.95 54.94 49.99 54.35 50.01 54.06 C 47.34 54.08 44.67 54.08 42.00 54.06 M 62.17 54.18 C 61.67 55.82 62.23 56.36 63.85 55.82 C 64.35 54.18 63.78 53.64 62.17 54.18 M 42.31 58.25 C 41.80 59.64 42.26 60.14 43.69 59.75 C 44.20 58.37 43.74 57.87 42.31 58.25 M 48.76 58.07 C 47.88 58.98 46.98 59.87 46.07 60.74 C 46.07 60.87 46.07 61.12 46.07 61.25 C 46.98 62.12 47.88 63.01 48.76 63.93 C 49.03 63.95 49.58 64.01 49.85 64.03 C 49.89 63.51 49.97 62.48 50.01 61.96 C 51.33 61.95 52.66 61.94 53.98 61.93 C 53.96 60.63 53.94 59.33 53.92 58.04 C 53.48 58.02 52.59 58.00 52.15 57.99 C 52.11 58.50 52.03 59.53 51.99 60.05 C 51.49 60.05 50.50 60.05 50.01 60.06 C 49.97 59.53 49.89 58.49 49.85 57.97 C 49.58 58.00 49.03 58.05 48.76 58.07 M 66.54 58.30 C 65.23 59.87 68.40 60.87 69.30 59.69 C 70.53 58.11 67.45 57.15 66.54 58.30 M 21.26 59.26 C 21.52 59.52 21.52 59.52 21.26 59.26 M 36.41 58.79 C 35.36 59.58 36.14 62.56 37.60 61.41 C 38.61 60.60 37.88 57.71 36.41 58.79 M 11.03 59.98 C 9.70 60.62 9.68 61.30 10.97 62.01 C 12.30 61.37 12.32 60.70 11.03 59.98 M 16.36 60.46 C 15.40 62.36 19.61 62.68 19.89 60.98 C 19.43 59.62 17.33 59.73 16.36 60.46 M 40.06 60.01 C 40.07 62.65 40.05 65.30 40.03 67.94 C 41.31 67.96 42.58 67.98 43.86 68.00 C 43.90 67.49 43.97 66.46 44.01 65.95 C 44.53 65.95 45.55 65.95 46.06 65.95 C 46.06 66.46 46.05 67.48 46.04 67.99 C 45.53 68.03 44.51 68.10 44.00 68.14 C 44.00 68.58 44.01 69.47 44.01 69.91 C 45.30 69.94 46.58 69.97 47.86 70.00 C 47.90 69.51 47.97 68.53 48.00 68.03 C 49.95 68.01 51.90 67.99 53.85 67.86 C 54.69 64.59 49.91 66.56 48.02 65.97 C 47.98 65.67 47.90 65.05 47.86 64.74 C 46.97 63.87 46.10 62.98 45.25 62.07 C 44.98 62.04 44.42 62.00 44.14 61.97 C 44.10 62.49 44.02 63.53 43.98 64.05 C 43.48 64.05 42.47 64.05 41.97 64.04 C 41.96 62.70 41.95 61.36 41.94 60.02 C 41.47 60.02 40.53 60.01 40.06 60.01 M 54.06 62.03 C 54.04 63.32 54.03 64.60 54.01 65.88 C 54.52 65.91 55.54 65.97 56.05 66.00 C 56.05 66.50 56.05 67.49 56.05 67.99 C 55.53 68.02 54.50 68.10 53.99 68.14 C 54.00 68.58 54.03 69.48 54.04 69.92 C 55.31 69.94 56.59 69.97 57.87 69.99 C 57.90 69.63 57.97 68.92 58.01 68.57 C 58.51 68.27 59.53 67.67 60.03 67.37 L 59.74 66.72 C 56.61 65.64 58.28 63.91 59.97 63.35 C 59.98 63.03 60.00 62.39 60.01 62.07 C 58.02 62.05 56.04 62.04 54.06 62.03 M 60.17 64.17 C 59.66 65.80 60.21 66.35 61.84 65.83 C 62.35 64.20 61.79 63.64 60.17 64.17 M 64.05 64.05 C 64.05 66.02 64.05 67.99 64.05 69.95 C 66.02 69.95 67.99 69.95 69.96 69.95 C 69.96 67.98 69.95 66.01 69.95 64.04 C 67.98 64.04 66.01 64.05 64.05 64.05 M 72.04 64.04 C 72.05 66.02 72.06 68.00 72.07 69.98 C 72.53 69.99 73.46 69.99 73.92 69.99 C 73.93 68.67 73.95 67.34 73.96 66.02 C 74.47 65.97 75.50 65.89 76.01 65.84 C 76.00 65.40 75.97 64.51 75.96 64.06 C 74.65 64.05 73.35 64.05 72.04 64.04 M 38.27 68.59 C 38.48 72.01 41.24 66.94 38.27 68.59 M 40.37 70.45 C 39.38 72.33 43.57 72.68 43.90 71.00 C 43.46 69.62 41.35 69.73 40.37 70.45 M 74.25 70.31 C 73.86 71.74 74.36 72.20 75.75 71.68 C 76.13 70.25 75.63 69.80 74.25 70.31 M 72.37 72.33 C 71.54 73.33 71.51 75.62 73.02 75.97 C 74.91 75.65 74.42 71.17 72.37 72.33 M 40.29 74.41 C 39.27 76.48 43.72 76.88 43.97 74.97 C 43.54 73.49 41.27 73.53 40.29 74.41 Z" />
<path fill="#4e6fa3" opacity="1.00" d=" M 65.95 5.95 C 70.65 5.95 75.35 5.96 80.05 5.95 C 80.05 10.65 80.05 15.35 80.05 20.05 C 75.35 20.04 70.65 20.05 65.95 20.05 C 65.95 15.35 65.95 10.65 65.95 5.95 M 68.04 8.04 C 68.05 11.34 68.04 14.65 68.04 17.96 C 71.34 17.95 74.65 17.96 77.96 17.96 C 77.95 14.65 77.95 11.35 77.96 8.04 C 74.66 8.04 71.35 8.04 68.04 8.04 Z" />
<path fill="#4e6fa3" opacity="1.00" d=" M 51.96 7.96 C 53.32 7.96 54.69 7.96 56.05 7.96 C 56.05 8.48 56.05 9.53 56.05 10.05 C 54.68 10.05 53.32 10.05 51.96 10.05 C 51.96 9.53 51.96 8.48 51.96 7.96 Z" />
<path fill="#4e6fa3" opacity="1.00" d=" M 9.95 9.95 C 11.98 9.95 14.01 9.95 16.04 9.96 C 16.04 11.98 16.04 14.01 16.04 16.04 C 14.01 16.04 11.98 16.04 9.95 16.04 C 9.95 14.01 9.95 11.98 9.95 9.95 Z" />
<path fill="#4e6fa3" opacity="1.00" d=" M 69.95 9.95 C 71.98 9.95 74.01 9.95 76.05 9.96 C 76.05 11.98 76.05 14.01 76.05 16.04 C 74.02 16.04 71.99 16.04 69.96 16.04 C 69.96 14.01 69.95 11.98 69.95 9.95 Z" />
<path fill="#4e6fa3" opacity="1.00" d=" M 21.95 11.95 C 22.46 11.95 23.48 11.95 23.99 11.95 C 24.02 12.46 24.10 13.48 24.14 14.00 C 25.44 13.97 26.74 13.95 28.04 13.93 C 28.05 14.44 28.05 15.47 28.06 15.98 C 27.53 16.02 26.49 16.10 25.97 16.14 C 25.99 16.42 26.04 16.98 26.06 17.26 C 26.99 18.13 27.89 19.02 28.78 19.93 C 29.06 19.95 29.63 20.00 29.91 20.02 C 29.93 18.66 29.95 17.31 29.97 15.96 C 30.49 15.96 31.53 15.96 32.05 15.96 C 32.04 18.65 32.04 21.34 32.05 24.04 C 31.54 24.04 30.52 24.04 30.01 24.05 C 29.97 23.54 29.90 22.51 29.86 22.00 C 28.57 22.03 27.27 22.04 25.97 22.06 C 25.96 20.71 25.95 19.37 25.93 18.02 C 25.49 18.01 24.60 18.00 24.15 17.99 C 24.11 18.51 24.03 19.54 23.98 20.05 C 23.47 20.05 22.46 20.05 21.95 20.05 C 21.96 17.35 21.96 14.65 21.95 11.95 Z" />
<path fill="#4e6fa3" opacity="1.00" d=" M 29.95 11.95 C 31.98 11.95 34.01 11.95 36.04 11.94 C 36.05 12.47 36.06 13.52 36.06 14.05 C 34.02 14.05 31.98 14.05 29.93 14.05 C 29.94 13.53 29.95 12.48 29.95 11.95 Z" />
<path fill="#4e6fa3" opacity="1.00" d=" M 18.16 22.17 C 19.79 21.64 20.35 22.20 19.83 23.83 C 18.20 24.35 17.65 23.80 18.16 22.17 Z" />
<path fill="#4e6fa3" opacity="1.00" d=" M 30.17 26.17 C 31.80 25.65 32.35 26.20 31.83 27.83 C 30.20 28.35 29.65 27.80 30.17 26.17 Z" />
<path fill="#4e6fa3" opacity="1.00" d=" M 33.30 42.06 C 39.31 40.65 45.54 41.81 51.64 41.31 C 51.57 42.69 51.50 44.07 51.45 45.45 C 50.73 44.56 49.91 43.79 48.99 43.12 C 47.89 43.29 46.79 43.45 45.69 43.61 C 45.23 43.18 44.29 42.31 43.83 41.88 C 43.40 42.28 42.54 43.06 42.11 43.46 C 39.14 43.20 36.11 43.19 33.30 42.06 Z" />
<path fill="#4e6fa3" opacity="1.00" d=" M 18.18 42.15 C 19.82 41.66 20.37 42.23 19.82 43.85 C 18.18 44.34 17.63 43.77 18.18 42.15 Z" />
<path fill="#4e6fa3" opacity="1.00" d=" M 5.95 65.95 C 10.65 65.95 15.35 65.95 20.05 65.95 C 20.05 70.65 20.05 75.35 20.05 80.05 C 15.35 80.05 10.65 80.05 5.95 80.05 C 5.95 75.35 5.95 70.65 5.95 65.95 M 8.04 68.04 C 8.04 71.34 8.04 74.65 8.03 77.96 C 11.34 77.95 14.65 77.95 17.96 77.96 C 17.95 74.65 17.95 71.35 17.96 68.04 C 14.65 68.04 11.35 68.04 8.04 68.04 Z" />
<path fill="#4e6fa3" opacity="1.00" d=" M 66.16 66.18 C 67.78 65.64 68.34 66.18 67.84 67.82 C 66.22 68.36 65.66 67.81 66.16 66.18 Z" />
<path fill="#4e6fa3" opacity="1.00" d=" M 9.95 69.95 C 11.98 69.95 14.01 69.95 16.04 69.95 C 16.04 71.98 16.04 74.01 16.04 76.04 C 14.01 76.04 11.98 76.05 9.95 76.05 C 9.95 74.01 9.95 71.98 9.95 69.95 Z" />
<path fill="#4e6fa3" opacity="1.00" d=" M 22.16 72.18 C 23.78 71.64 24.35 72.19 23.84 73.83 C 22.22 74.36 21.66 73.81 22.16 72.18 Z" />
<path fill="#4e6fa3" opacity="1.00" d=" M 75.95 77.95 C 77.32 77.95 78.68 77.96 80.05 77.96 C 80.05 78.48 80.05 79.53 80.05 80.05 C 78.68 80.05 77.32 80.05 75.95 80.05 C 75.95 79.52 75.95 78.48 75.95 77.95 Z" />
</g>
</svg>
