<?xml version="1.0" encoding="UTF-8" ?>
<!DOCTYPE svg PUBLIC "-//W3C//DTD SVG 1.1//EN" "http://www.w3.org/Graphics/SVG/1.1/DTD/svg11.dtd">
<svg width="320pt" height="320pt" viewBox="0 0 320 320" version="1.1" xmlns="http://www.w3.org/2000/svg">
<g id="#4e6fa4ff">
<path fill="#4e6fa4" opacity="1.00" d=" M 151.68 0.00 L 168.34 0.00 C 202.03 1.79 235.07 14.36 261.15 35.79 C 286.77 56.60 305.73 85.50 314.41 117.35 C 317.53 128.55 319.22 140.10 320.00 151.69 L 320.00 168.29 C 318.23 201.97 305.68 234.99 284.27 261.08 C 263.45 286.71 234.56 305.72 202.68 314.40 C 191.48 317.53 179.93 319.22 168.34 320.00 L 151.66 320.00 C 119.86 318.29 88.64 307.06 63.30 287.72 C 35.46 266.68 14.75 236.34 5.59 202.65 C 2.47 191.45 0.76 179.90 0.00 168.30 L 0.00 151.64 C 0.76 140.34 2.39 129.07 5.38 118.13 C 13.96 85.96 33.04 56.75 58.88 35.77 C 84.97 14.35 117.99 1.77 151.68 0.00 M 153.19 50.34 C 129.54 51.74 106.47 61.12 88.54 76.61 C 69.58 92.76 56.38 115.56 51.95 140.08 C 47.25 165.55 51.79 192.67 64.94 215.02 C 78.27 238.22 100.41 256.16 125.85 264.42 C 151.78 272.97 180.93 271.38 205.72 259.89 C 229.25 249.17 248.68 229.86 259.57 206.41 C 269.99 184.33 272.53 158.73 266.98 134.99 C 261.24 110.08 246.38 87.42 225.90 72.14 C 205.28 56.49 179.01 48.70 153.19 50.34 Z" />
<path fill="#4e6fa4" opacity="1.00" d=" M 153.07 70.13 C 169.89 68.92 187.06 72.22 201.96 80.23 C 225.25 92.33 242.64 115.13 248.09 140.82 C 251.72 158.07 250.46 176.45 243.95 192.88 C 235.88 213.56 219.88 231.03 199.94 240.80 C 184.05 248.85 165.72 251.57 148.11 249.35 C 129.35 246.94 111.44 238.34 97.83 225.21 C 84.48 212.63 75.22 195.81 71.62 177.83 C 67.71 157.93 70.42 136.67 79.90 118.68 C 93.74 91.31 122.44 72.17 153.07 70.13 M 201.55 110.60 C 190.36 117.19 179.53 124.41 168.38 131.07 C 178.14 133.73 185.85 141.71 188.97 151.24 C 195.80 140.62 202.45 129.87 209.07 119.12 C 212.03 114.52 206.45 108.32 201.55 110.60 M 155.50 140.67 C 146.76 142.60 139.92 151.05 140.20 160.06 C 139.87 170.61 149.47 180.14 160.00 179.80 C 170.98 180.19 180.75 169.83 179.77 158.90 C 179.55 147.03 166.98 137.61 155.50 140.67 M 112.43 198.37 C 111.26 200.34 109.57 202.45 110.26 204.89 C 110.85 209.09 116.34 211.27 119.70 208.75 C 130.15 202.12 140.85 195.84 151.13 188.93 C 141.69 185.87 134.12 178.25 131.04 168.82 C 124.60 178.52 118.71 188.57 112.43 198.37 Z" />
</g>
</svg>
