<?xml version="1.0" encoding="UTF-8" ?>
<!DOCTYPE svg PUBLIC "-//W3C//DTD SVG 1.1//EN" "http://www.w3.org/Graphics/SVG/1.1/DTD/svg11.dtd">
<svg width="200pt" height="200pt" viewBox="0 0 200 200" version="1.1" xmlns="http://www.w3.org/2000/svg">
<g id="#4e6fa4ff">
<path fill="#4e6fa4" opacity="1.00" d=" M 91.04 12.93 C 102.42 11.06 114.22 12.92 124.84 17.26 C 139.69 23.57 152.04 35.63 158.49 50.44 C 162.66 60.08 164.61 70.74 163.77 81.23 C 161.31 105.53 149.00 127.46 135.13 147.06 C 124.70 161.71 112.84 175.31 100.00 187.89 C 84.79 172.95 70.92 156.58 59.18 138.75 C 47.55 120.73 37.50 100.70 36.11 78.95 C 35.64 65.04 39.59 50.91 47.69 39.54 C 57.63 25.20 73.72 15.21 91.04 12.93 M 93.40 45.18 C 86.10 46.85 79.33 50.99 74.83 57.01 C 66.27 68.02 66.33 84.87 75.22 95.68 C 81.35 103.67 91.54 108.14 101.52 107.75 C 109.02 107.16 116.48 104.30 121.85 98.92 C 128.38 92.86 131.93 83.86 131.50 74.98 C 131.33 63.08 123.61 51.75 112.63 47.17 C 106.65 44.39 99.82 44.13 93.40 45.18 Z" />
</g>
</svg>
