<?xml version="1.0" encoding="UTF-8" ?>
<!DOCTYPE svg PUBLIC "-//W3C//DTD SVG 1.1//EN" "http://www.w3.org/Graphics/SVG/1.1/DTD/svg11.dtd">
<svg width="200pt" height="200pt" viewBox="0 0 200 200" version="1.1" xmlns="http://www.w3.org/2000/svg">
<g id="#4e6fa4ff">
<path fill="#4e6fa4" opacity="1.00" d=" M 20.52 38.54 C 21.95 38.04 23.48 38.01 24.97 37.98 C 75.35 38.03 125.72 37.97 176.09 38.01 C 182.45 37.93 188.18 43.70 188.01 50.06 C 188.01 82.38 187.98 114.70 188.02 147.01 C 188.27 150.35 187.76 153.80 185.69 156.53 C 183.17 160.39 178.38 161.53 174.05 161.50 C 125.04 161.54 76.03 161.49 27.02 161.52 C 23.35 161.45 19.30 161.27 16.39 158.74 C 13.57 156.38 11.77 152.67 11.98 148.95 C 12.02 115.99 12.00 83.02 11.99 50.06 C 11.88 44.91 15.61 40.00 20.52 38.54 M 42.97 78.12 C 44.19 79.27 45.46 80.40 46.94 81.21 C 63.40 90.74 79.90 100.22 96.36 109.77 C 98.11 110.99 100.44 111.79 102.46 110.67 C 119.84 100.67 137.17 90.58 154.56 80.60 C 156.56 79.61 158.19 77.34 157.20 75.06 C 156.95 73.33 154.96 72.92 153.76 71.99 C 151.21 72.84 148.88 74.18 146.60 75.58 C 133.47 83.05 120.46 90.73 107.33 98.20 C 104.92 99.51 102.69 101.24 100.07 102.12 C 85.92 94.28 72.01 85.98 57.96 77.94 C 54.35 75.88 50.84 73.63 47.01 71.98 C 44.19 72.72 42.18 75.08 42.97 78.12 Z" />
</g>
</svg>
